  0
SECTION
  2
HEADER
  9
$ACADVER
  1
AC1015
  9
$ACADMAINTVER
 70
     6
  9
$DWGCODEPAGE
  3
ANSI_1252
  9
$INSBASE
 10
0.0
 20
0.0
 30
0.0
  9
$EXTMIN
 10
-3.0
 20
-0.75
 30
0.0
  9
$EXTMAX
 10
3.0
 20
0.75
 30
0.0
  9
$LIMMIN
 10
0.0
 20
0.0
  9
$LIMMAX
 10
420.0
 20
297.0
  9
$ORTHOMODE
 70
     0
  9
$REGENMODE
 70
     1
  9
$FILLMODE
 70
     1
  9
$QTEXTMODE
 70
     0
  9
$MIRRTEXT
 70
     1
  9
$LTSCALE
 40
1.0
  9
$ATTMODE
 70
     1
  9
$TEXTSIZE
 40
0.3175
  9
$TRACEWID
 40
1.0
  9
$TEXTSTYLE
  7
Standard
  9
$CLAYER
  8
0
  9
$CELTYPE
  6
ByLayer
  9
$CECOLOR
 62
   256
  9
$CELTSCALE
 40
1.0
  9
$DISPSILH
 70
     0
  9
$DIMSCALE
 40
1.0
  9
$DIMASZ
 40
0.3302
  9
$DIMEXO
 40
0.0
  9
$DIMDLI
 40
3.75
  9
$DIMRND
 40
0.0
  9
$DIMDLE
 40
0.0
  9
$DIMEXE
 40
0.3175
  9
$DIMTP
 40
0.0
  9
$DIMTM
 40
0.0
  9
$DIMTXT
 40
0.3175
  9
$DIMCEN
 40
2.5
  9
$DIMTSZ
 40
0.0
  9
$DIMTOL
 70
     0
  9
$DIMLIM
 70
     0
  9
$DIMTIH
 70
     1
  9
$DIMTOH
 70
     1
  9
$DIMSE1
 70
     0
  9
$DIMSE2
 70
     0
  9
$DIMTAD
 70
     0
  9
$DIMZIN
 70
     1
  9
$DIMBLK
  1

  9
$DIMASO
 70
     1
  9
$DIMSHO
 70
     1
  9
$DIMPOST
  1

  9
$DIMAPOST
  1

  9
$DIMALT
 70
     0
  9
$DIMALTD
 70
     3
  9
$DIMALTF
 40
0.3937007874
  9
$DIMLFAC
 40
1.0
  9
$DIMTOFL
 70
     1
  9
$DIMTVP
 40
0.0
  9
$DIMTIX
 70
     0
  9
$DIMSOXD
 70
     0
  9
$DIMSAH
 70
     0
  9
$DIMBLK1
  1

  9
$DIMBLK2
  1

  9
$DIMSTYLE
  2
ISO-25
  9
$DIMCLRD
 70
     0
  9
$DIMCLRE
 70
     0
  9
$DIMCLRT
 70
     0
  9
$DIMTFAC
 40
1.0
  9
$DIMGAP
 40
0.1524
  9
$DIMJUST
 70
     0
  9
$DIMSD1
 70
     0
  9
$DIMSD2
 70
     0
  9
$DIMTOLJ
 70
     0
  9
$DIMTZIN
 70
     1
  9
$DIMALTZ
 70
     0
  9
$DIMALTTZ
 70
     0
  9
$DIMUPT
 70
     0
  9
$DIMDEC
 70
     2
  9
$DIMTDEC
 70
     2
  9
$DIMALTU
 70
     2
  9
$DIMALTTD
 70
     3
  9
$DIMTXSTY
  7
Standard
  9
$DIMAUNIT
 70
     0
  9
$DIMADEC
 70
     2
  9
$DIMALTRND
 40
0.0
  9
$DIMAZIN
 70
     0
  9
$DIMDSEP
 70
    44
  9
$DIMATFIT
 70
     3
  9
$DIMFRAC
 70
     0
  9
$DIMLDRBLK
  1

  9
$DIMLUNIT
 70
     2
  9
$DIMLWD
 70
    -2
  9
$DIMLWE
 70
    -2
  9
$DIMTMOVE
 70
     0
  9
$LUNITS
 70
     2
  9
$LUPREC
 70
     2
  9
$SKETCHINC
 40
1.0
  9
$FILLETRAD
 40
10.0
  9
$AUNITS
 70
     0
  9
$AUPREC
 70
     2
  9
$MENU
  1
.
  9
$ELEVATION
 40
0.0
  9
$PELEVATION
 40
0.0
  9
$THICKNESS
 40
0.0
  9
$LIMCHECK
 70
     0
  9
$CHAMFERA
 40
0.0
  9
$CHAMFERB
 40
0.0
  9
$CHAMFERC
 40
0.0
  9
$CHAMFERD
 40
0.0
  9
$SKPOLY
 70
     0
  9
$TDCREATE
 40
2459912.655804143
  9
$TDUCREATE
 40
2459912.655804143
  9
$TDUPDATE
 40
2459912.656127812
  9
$TDUUPDATE
 40
2459912.656127812
  9
$TDINDWG
 40
0.0000000116
  9
$TDUSRTIMER
 40
0.0000000116
  9
$USRTIMER
 70
     1
  9
$ANGBASE
 50
0.0
  9
$ANGDIR
 70
     0
  9
$PDMODE
 70
     0
  9
$PDSIZE
 40
-1.0
  9
$PLINEWID
 40
0.0
  9
$SPLFRAME
 70
     0
  9
$SPLINETYPE
 70
     6
  9
$SPLINESEGS
 70
     8
  9
$HANDSEED
  5
F6
  9
$SURFTAB1
 70
     6
  9
$SURFTAB2
 70
     6
  9
$SURFTYPE
 70
     6
  9
$SURFU
 70
     6
  9
$SURFV
 70
     6
  9
$UCSBASE
  2

  9
$UCSNAME
  2

  9
$UCSORG
 10
0.0
 20
0.0
 30
0.0
  9
$UCSXDIR
 10
1.0
 20
0.0
 30
0.0
  9
$UCSYDIR
 10
0.0
 20
1.0
 30
0.0
  9
$UCSORTHOREF
  2

  9
$UCSORTHOVIEW
 70
     0
  9
$UCSORGTOP
 10
0.0
 20
0.0
 30
0.0
  9
$UCSORGBOTTOM
 10
0.0
 20
0.0
 30
0.0
  9
$UCSORGLEFT
 10
0.0
 20
0.0
 30
0.0
  9
$UCSORGRIGHT
 10
0.0
 20
0.0
 30
0.0
  9
$UCSORGFRONT
 10
0.0
 20
0.0
 30
0.0
  9
$UCSORGBACK
 10
0.0
 20
0.0
 30
0.0
  9
$PUCSBASE
  2

  9
$PUCSNAME
  2

  9
$PUCSORG
 10
0.0
 20
0.0
 30
0.0
  9
$PUCSXDIR
 10
1.0
 20
0.0
 30
0.0
  9
$PUCSYDIR
 10
0.0
 20
1.0
 30
0.0
  9
$PUCSORTHOREF
  2

  9
$PUCSORTHOVIEW
 70
     0
  9
$PUCSORGTOP
 10
0.0
 20
0.0
 30
0.0
  9
$PUCSORGBOTTOM
 10
0.0
 20
0.0
 30
0.0
  9
$PUCSORGLEFT
 10
0.0
 20
0.0
 30
0.0
  9
$PUCSORGRIGHT
 10
0.0
 20
0.0
 30
0.0
  9
$PUCSORGFRONT
 10
0.0
 20
0.0
 30
0.0
  9
$PUCSORGBACK
 10
0.0
 20
0.0
 30
0.0
  9
$USERI1
 70
     0
  9
$USERI2
 70
     0
  9
$USERI3
 70
     0
  9
$USERI4
 70
     0
  9
$USERI5
 70
     0
  9
$USERR1
 40
0.0
  9
$USERR2
 40
0.0
  9
$USERR3
 40
0.0
  9
$USERR4
 40
0.0
  9
$USERR5
 40
0.0
  9
$WORLDVIEW
 70
     1
  9
$SHADEDGE
 70
     3
  9
$SHADEDIF
 70
    70
  9
$TILEMODE
 70
     1
  9
$MAXACTVP
 70
    64
  9
$PINSBASE
 10
0.0
 20
0.0
 30
0.0
  9
$PLIMCHECK
 70
     0
  9
$PEXTMIN
 10
1.0000000000E+20
 20
1.0000000000E+20
 30
1.0000000000E+20
  9
$PEXTMAX
 10
-1.0000000000E+20
 20
-1.0000000000E+20
 30
-1.0000000000E+20
  9
$PLIMMIN
 10
0.0
 20
0.0
  9
$PLIMMAX
 10
420.0
 20
297.0
  9
$UNITMODE
 70
     0
  9
$VISRETAIN
 70
     1
  9
$PLINEGEN
 70
     0
  9
$PSLTSCALE
 70
     1
  9
$TREEDEPTH
 70
  3020
  9
$CMLSTYLE
  2
Standard
  9
$CMLJUST
 70
     0
  9
$CMLSCALE
 40
20.0
  9
$PROXYGRAPHICS
 70
     1
  9
$MEASUREMENT
 70
     1
  9
$CELWEIGHT
370
    -1
  9
$ENDCAPS
280
     0
  9
$JOINSTYLE
280
     0
  9
$LWDISPLAY
290
     1
  9
$INSUNITS
 70
     4
  9
$HYPERLINKBASE
  1

  9
$STYLESHEET
  1

  9
$XEDIT
290
     1
  9
$CEPSNTYPE
380
     0
  9
$PSTYLEMODE
290
     1
  9
$FINGERPRINTGUID
  2
{77ad0c3a-124b-4f10-ab1a-dd8b203ada50}
  9
$VERSIONGUID
  2
{FAEB1C32-E019-11D5-929B-00C0DF256EC4}
  9
$EXTNAMES
290
     1
  9
$PSVPSCALE
 40
0.0
  9
$OLESTARTUP
290
     0
  0
ENDSEC
  0
SECTION
  2
CLASSES
  0
CLASS
  1
ACDBDICTIONARYWDFLT
  2
AcDbDictionaryWithDefault
  3
ObjectDBX Classes
 90
        0
280
     0
281
     0
  0
CLASS
  1
VISUALSTYLE
  2
AcDbVisualStyle
  3
ObjectDBX Classes
 90
     4095
280
     0
281
     0
  0
CLASS
  1
MATERIAL
  2
AcDbMaterial
  3
ObjectDBX Classes
 90
     1153
280
     0
281
     0
  0
CLASS
  1
SCALE
  2
AcDbScale
  3
ObjectDBX Classes
 90
     1153
280
     0
281
     0
  0
CLASS
  1
TABLESTYLE
  2
AcDbTableStyle
  3
ObjectDBX Classes
 90
     4095
280
     0
281
     0
  0
CLASS
  1
MLEADERSTYLE
  2
AcDbMLeaderStyle
  3
ACDB_MLEADERSTYLE_CLASS
 90
     4095
280
     0
281
     0
  0
CLASS
  1
SUN
  2
AcDbSun
  3
SCENEOE
 90
     1153
280
     0
281
     0
  0
CLASS
  1
ACDBPLACEHOLDER
  2
AcDbPlaceHolder
  3
ObjectDBX Classes
 90
        0
280
     0
281
     0
  0
CLASS
  1
LAYOUT
  2
AcDbLayout
  3
ObjectDBX Classes
 90
        0
280
     0
281
     0
  0
ENDSEC
  0
SECTION
  2
TABLES
  0
TABLE
  2
VPORT
  5
8
330
0
100
AcDbSymbolTable
 70
     1
  0
VPORT
  5
29
330
8
100
AcDbSymbolTableRecord
100
AcDbViewportTableRecord
  2
*Active
 70
     0
 10
0.0
 20
0.0
 11
1.0
 21
1.0
 12
0.0
 22
0.0
 13
0.0
 23
0.0
 14
10.0
 24
10.0
 15
10.0
 25
10.0
 16
0.0
 26
0.0
 36
1.0
 17
0.0
 27
0.0
 37
0.0
 40
1.53
 41
4.0
 42
50.0
 43
0.0
 44
0.0
 50
0.0
 51
0.0
 71
     0
 72
   100
 73
     1
 74
     3
 75
     0
 76
     0
 77
     0
 78
     0
281
     0
 65
     1
110
0.0
120
0.0
130
0.0
111
1.0
121
0.0
131
0.0
112
0.0
122
1.0
132
0.0
 79
     0
146
0.0
  0
ENDTAB
  0
TABLE
  2
LTYPE
  5
5
330
0
100
AcDbSymbolTable
 70
     6
  0
LTYPE
  5
14
330
5
100
AcDbSymbolTableRecord
100
AcDbLinetypeTableRecord
  2
ByBlock
 70
     0
  3

 72
    65
 73
     0
 40
0.0
  0
LTYPE
  5
15
330
5
100
AcDbSymbolTableRecord
100
AcDbLinetypeTableRecord
  2
ByLayer
 70
     0
  3

 72
    65
 73
     0
 40
0.0
  0
LTYPE
  5
16
330
5
100
AcDbSymbolTableRecord
100
AcDbLinetypeTableRecord
  2
Continuous
 70
     0
  3
Solid line
 72
    65
 73
     0
 40
0.0
  0
LTYPE
  5
6E
330
5
100
AcDbSymbolTableRecord
100
AcDbLinetypeTableRecord
  2
HIDDEN
 70
     0
  3
Hidden __ __ __ __ __ __ __ __ __ __ __ __ __ __
 72
    65
 73
     2
 40
0.1905
 49
0.127
 74
     0
 49
-0.0635
 74
     0
  0
LTYPE
  5
6F
330
5
100
AcDbSymbolTableRecord
100
AcDbLinetypeTableRecord
  2
PHANTOM
 70
     0
  3
Phantom ______  __  __  ______  __  __  ______
 72
    65
 73
     6
 40
1.27
 49
0.635
 74
     0
 49
-0.127
 74
     0
 49
0.127
 74
     0
 49
-0.127
 74
     0
 49
0.127
 74
     0
 49
-0.127
 74
     0
  0
LTYPE
  5
70
330
5
100
AcDbSymbolTableRecord
100
AcDbLinetypeTableRecord
  2
CENTER
 70
     0
  3
Center ____ _ ____ _ ____ _ ____ _ ____ _ ____
 72
    65
 73
     4
 40
1.016
 49
0.635
 74
     0
 49
-0.127
 74
     0
 49
0.127
 74
     0
 49
-0.127
 74
     0
  0
LTYPE
  5
71
330
5
100
AcDbSymbolTableRecord
100
AcDbLinetypeTableRecord
  2
CENTERX2
 70
     0
  3
Center (2x) ________  __  ________  __  _____
 72
    65
 73
     4
 40
2.032
 49
1.27
 74
     0
 49
-0.254
 74
     0
 49
0.254
 74
     0
 49
-0.254
 74
     0
  0
LTYPE
  5
72
330
5
100
AcDbSymbolTableRecord
100
AcDbLinetypeTableRecord
  2
DOT2
 70
     0
  3
Dot (.5x) ........................................
 72
    65
 73
     2
 40
0.0635
 49
0.0
 74
     0
 49
-0.0635
 74
     0
  0
ENDTAB
  0
TABLE
  2
LAYER
  5
2
330
0
100
AcDbSymbolTable
 70
     1
  0
LAYER
  5
10
330
2
100
AcDbSymbolTableRecord
100
AcDbLayerTableRecord
  2
0
 70
     0
 62
     7
  6
Continuous
370
    -3
390
F
  0
ENDTAB
  0
TABLE
  2
STYLE
  5
3
330
0
100
AcDbSymbolTable
 70
     1
  0
STYLE
  5
11
330
3
100
AcDbSymbolTableRecord
100
AcDbTextStyleTableRecord
  2
Standard
 70
     0
 40
0.0
 41
1.0
 50
0.0
 71
     0
 42
0.3175
  3
txt
  4

  0
ENDTAB
  0
TABLE
  2
VIEW
  5
6
330
0
100
AcDbSymbolTable
 70
     0
  0
ENDTAB
  0
TABLE
  2
UCS
  5
7
330
0
100
AcDbSymbolTable
 70
     0
  0
ENDTAB
  0
TABLE
  2
APPID
  5
9
330
0
100
AcDbSymbolTable
 70
     1
  0
APPID
  5
12
330
9
100
AcDbSymbolTableRecord
100
AcDbRegAppTableRecord
  2
ACAD
 70
     0
  0
ENDTAB
  0
TABLE
  2
DIMSTYLE
  5
A
330
0
100
AcDbSymbolTable
 70
     1
100
AcDbDimStyleTable
  0
DIMSTYLE
105
27
330
A
100
AcDbSymbolTableRecord
100
AcDbDimStyleTableRecord
  2
ISO-25
 70
     0
 41
2.5
 42
0.625
 43
3.75
 44
1.25
 73
     0
 74
     0
 77
     1
 78
     8
140
2.5
141
2.5
143
0.0393700787
147
0.625
171
     3
172
     1
178
     0
271
     2
272
     2
274
     3
278
    44
283
     0
284
     8
340
11
  0
ENDTAB
  0
TABLE
  2
BLOCK_RECORD
  5
1
330
0
100
AcDbSymbolTable
 70
     1
  0
BLOCK_RECORD
  5
1F
330
1
100
AcDbSymbolTableRecord
100
AcDbBlockTableRecord
  2
*Model_Space
340
22
  0
BLOCK_RECORD
  5
1B
330
1
100
AcDbSymbolTableRecord
100
AcDbBlockTableRecord
  2
*Paper_Space
340
1E
  0
BLOCK_RECORD
  5
23
330
1
100
AcDbSymbolTableRecord
100
AcDbBlockTableRecord
  2
*Paper_Space0
340
26
  0
ENDTAB
  0
ENDSEC
  0
SECTION
  2
BLOCKS
  0
BLOCK
  5
20
330
1F
100
AcDbEntity
  8
0
100
AcDbBlockBegin
  2
*Model_Space
 70
     0
 10
0.0
 20
0.0
 30
0.0
  3
*Model_Space
  1

  0
ENDBLK
  5
21
330
1F
100
AcDbEntity
  8
0
100
AcDbBlockEnd
  0
BLOCK
  5
1C
330
1B
100
AcDbEntity
 67
     1
  8
0
100
AcDbBlockBegin
  2
*Paper_Space
 70
     0
 10
0.0
 20
0.0
 30
0.0
  3
*Paper_Space
  1

  0
ENDBLK
  5
1D
330
1B
100
AcDbEntity
 67
     1
  8
0
100
AcDbBlockEnd
  0
BLOCK
  5
24
330
23
100
AcDbEntity
  8
0
100
AcDbBlockBegin
  2
*Paper_Space0
 70
     0
 10
0.0
 20
0.0
 30
0.0
  3
*Paper_Space0
  1

  0
ENDBLK
  5
25
330
23
100
AcDbEntity
  8
0
100
AcDbBlockEnd
  0
ENDSEC
  0
SECTION
  2
ENTITIES
  0
SPLINE
  5
74
330
1F
100
AcDbEntity
  8
0
  6
Continuous
 62
     7
370
    25
100
AcDbSpline
210
0.0
220
0.0
230
1.0
 70
     8
 71
     3
 72
    15
 73
    11
 74
     0
 42
0.00000001
 43
0.00000001
 40
0.0
 40
0.0
 40
0.0
 40
0.0
 40
0.1143755536509287
 40
0.2376558481758989
 40
0.3673427841604434
 40
0.4990480176593563
 40
0.6312832390052497
 40
0.762006152182177
 40
0.886062081600973
 40
0.9999999999999999
 40
0.9999999999999999
 40
0.9999999999999999
 40
0.9999999999999999
 10
2.148026315789474
 20
-0.419736842105259
 30
0.0
 10
2.158785342185707
 20
-0.4285047544568358
 30
0.0
 10
2.18114104200201
 20
-0.4467232074402895
 30
0.0
 10
2.219818009946444
 20
-0.4691326798878882
 30
0.0
 10
2.262407589209892
 20
-0.4881759131895645
 30
0.0
 10
2.307229250903346
 20
-0.5046418017592561
 30
0.0
 10
2.353317641742396
 20
-0.517607805583395
 30
0.0
 10
2.399235437707941
 20
-0.5272880537923396
 30
0.0
 10
2.443571553369116
 20
-0.5334701359745478
 30
0.0
 10
2.472416168002656
 20
-0.5344157262224977
 30
0.0
 10
2.486225328947369
 20
-0.5348684210526273
 30
0.0
  0
SPLINE
  5
75
330
1F
100
AcDbEntity
  8
0
  6
Continuous
 62
     7
370
    25
100
AcDbSpline
210
0.0
220
0.0
230
1.0
 70
     8
 71
     3
 72
    23
 73
    19
 74
     0
 42
0.00000001
 43
0.00000001
 40
0.0
 40
0.0
 40
0.0
 40
0.0
 40
0.0874021776705421
 40
0.1695492917471928
 40
0.2460112956246581
 40
0.3177699313005695
 40
0.3851892577852712
 40
0.4483179627339326
 40
0.5078488894421663
 40
0.5640830169962501
 40
0.6183605724536791
 40
0.6714664382558423
 40
0.7237632350304596
 40
0.7754144782827371
 40
0.8281505093142737
 40
0.8832926081081464
 40
0.9398654736452782
 40
1.0
 40
1.0
 40
1.0
 40
1.0
 10
2.486225328947369
 20
-0.5348684210526273
 30
0.0
 10
2.497194566944101
 20
-0.5347293338478026
 30
0.0
 10
2.518473516541476
 20
-0.5344595220685355
 30
0.0
 10
2.549277821699134
 20
-0.5321367210411843
 30
0.0
 10
2.577956544902301
 20
-0.5283453505372235
 30
0.0
 10
2.604488609850708
 20
-0.5229471365902664
 30
0.0
 10
2.629009739975921
 20
-0.5162115895023056
 30
0.0
 10
2.651170028363539
 20
-0.5072922964141676
 30
0.0
 10
2.671368369049361
 20
-0.4974278604595122
 30
0.0
 10
2.689315429477845
 20
-0.4857619580528389
 30
0.0
 10
2.705015351250727
 20
-0.4724875473379689
 30
0.0
 10
2.719150992783263
 20
-0.4581958871385681
 30
0.0
 10
2.730581724663561
 20
-0.4420726120972124
 30
0.0
 10
2.740420796762035
 20
-0.4249847849522393
 30
0.0
 10
2.747454295955754
 20
-0.4061731649631075
 30
0.0
 10
2.752932036743438
 20
-0.3862483365750355
 30
0.0
 10
2.756021619918205
 20
-0.3648363691264209
 30
0.0
 10
2.756389429958887
 20
-0.3501876737817143
 30
0.0
 10
2.756578947368421
 20
-0.3426398026315747
 30
0.0
  0
SPLINE
  5
76
330
1F
100
AcDbEntity
  8
0
  6
Continuous
 62
     7
370
    25
100
AcDbSpline
210
0.0
220
0.0
230
1.0
 70
     8
 71
     3
 72
    19
 73
    15
 74
     0
 42
0.00000001
 43
0.00000001
 40
0.0
 40
0.0
 40
0.0
 40
0.0
 40
0.0568532760555115
 40
0.1115782678814108
 40
0.1631459832395787
 40
0.2147384508196619
 40
0.2665003290652452
 40
0.31970441514494
 40
0.3743693831971943
 40
0.4318257838784697
 40
0.5554741837354973
 40
0.6923406444210275
 40
0.8411793098957517
 40
1.0
 40
1.0
 40
1.0
 40
1.0
 10
2.756578947368421
 20
-0.3426398026315747
 30
0.0
 10
2.756387945437602
 20
-0.3345643671119004
 30
0.0
 10
2.756013091672234
 20
-0.318715797421853
 30
0.0
 10
2.751455482464459
 20
-0.2959324640272391
 30
0.0
 10
2.744567355172235
 20
-0.2745509661834897
 30
0.0
 10
2.734310695492968
 20
-0.2550136686986444
 30
0.0
 10
2.721768834039493
 20
-0.2366567794262659
 30
0.0
 10
2.707379359602961
 20
-0.2191339640498156
 30
0.0
 10
2.690749056011917
 20
-0.2025434593921132
 30
0.0
 10
2.664906243396899
 20
-0.1812774399161945
 30
0.0
 10
2.627744099822407
 20
-0.1555610581197845
 30
0.0
 10
2.576874108929573
 20
-0.1274749325371165
 30
0.0
 10
2.520724191869175
 20
-0.0988106846910183
 30
0.0
 10
2.481699632818307
 20
-0.079282956059448
 30
0.0
 10
2.46155427631579
 20
-0.0692023026315746
 30
0.0
  0
SPLINE
  5
77
330
1F
100
AcDbEntity
  8
0
  6
Continuous
 62
     7
370
    25
100
AcDbSpline
210
0.0
220
0.0
230
1.0
 70
     8
 71
     3
 72
    21
 73
    17
 74
     0
 42
0.00000001
 43
0.00000001
 40
0.0
 40
0.0
 40
0.0
 40
0.0
 40
0.1427656489126876
 40
0.2785833995769386
 40
0.34376229649707
 40
0.4063964888257279
 40
0.4674939676726172
 40
0.526447079579677
 40
0.5842452092977019
 40
0.6406386266328743
 40
0.6974398874343691
 40
0.7534085114081617
 40
0.8109760355036485
 40
0.8705562673021461
 40
0.9335372130426324
 40
0.9999999999999999
 40
0.9999999999999999
 40
0.9999999999999999
 40
0.9999999999999999
 10
2.46155427631579
 20
-0.0692023026315746
 30
0.0
 10
2.440256349043469
 20
-0.0582557741455441
 30
0.0
 10
2.398696989150852
 20
-0.0368954459263294
 30
0.0
 10
2.348167022563679
 20
-0.0090709185413382
 30
0.0
 10
2.310608546591538
 20
0.0143114203824473
 30
0.0
 10
2.284820897902859
 20
0.0327508768742583
 30
0.0
 10
2.260654854581736
 20
0.0516134007513296
 30
0.0
 10
2.238368565144696
 20
0.0714764478376275
 30
0.0
 10
2.218201514471892
 20
0.0924417790701716
 30
0.0
 10
2.200644792919087
 20
0.115172432570593
 30
0.0
 10
2.184959501546916
 20
0.138854440144156
 30
0.0
 10
2.17159200028564
 20
0.1641635761720621
 30
0.0
 10
2.160929803776336
 20
0.1912580460985088
 30
0.0
 10
2.153611755900538
 20
0.2206322098688649
 30
0.0
 10
2.148831052474276
 20
0.2520504584068281
 30
0.0
 10
2.148299328872106
 20
0.2737754289425607
 30
0.0
 10
2.148026315789474
 20
0.2849300986842147
 30
0.0
  0
SPLINE
  5
78
330
1F
100
AcDbEntity
  8
0
  6
Continuous
 62
     7
370
    25
100
AcDbSpline
210
0.0
220
0.0
230
1.0
 70
     8
 71
     3
 72
    23
 73
    19
 74
     0
 42
0.00000001
 43
0.00000001
 40
0.0
 40
0.0
 40
0.0
 40
0.0
 40
0.0671870636897145
 40
0.1307497070718694
 40
0.1916054624416526
 40
0.2512298541032449
 40
0.3104178105063063
 40
0.3689892944058015
 40
0.4274285829435482
 40
0.4867974202743231
 40
0.5473389728306004
 40
0.6090266782350521
 40
0.671787834223347
 40
0.7365218905578049
 40
0.8022328911213494
 40
0.8680574803618326
 40
0.9337243288437007
 40
1.0
 40
1.0
 40
1.0
 40
1.0
 10
2.148026315789474
 20
0.2849300986842147
 30
0.0
 10
2.148408792979427
 20
0.2986745367668762
 30
0.0
 10
2.149153114546731
 20
0.325421966323774
 30
0.0
 10
2.156712049034522
 20
0.3639810058711125
 30
0.0
 10
2.168031280077434
 20
0.3999656694646316
 30
0.0
 10
2.184882560707305
 20
0.4327468030342783
 30
0.0
 10
2.205215162469148
 20
0.4628347195592384
 30
0.0
 10
2.228748092947975
 20
0.4901806723374977
 30
0.0
 10
2.255129344711373
 20
0.514847803588628
 30
0.0
 10
2.284622274920464
 20
0.5363912583025179
 30
0.0
 10
2.316609078733952
 20
0.5552557781275125
 30
0.0
 10
2.350455885230225
 20
0.5722087921881005
 30
0.0
 10
2.386771542262274
 20
0.5856091293337712
 30
0.0
 10
2.424612043326981
 20
0.5969505124496687
 30
0.0
 10
2.463828421097402
 20
0.605471728610609
 30
0.0
 10
2.503600402003312
 20
0.6120690887744371
 30
0.0
 10
2.543897038953486
 20
0.6156256063607901
 30
0.0
 10
2.570854589029564
 20
0.6161726063931287
 30
0.0
 10
2.584395559210527
 20
0.6164473684210569
 30
0.0
  0
SPLINE
  5
79
330
1F
100
AcDbEntity
  8
0
  6
Continuous
 62
     7
370
    25
100
AcDbSpline
210
0.0
220
0.0
230
1.0
 70
     8
 71
     3
 72
    15
 73
    11
 74
     0
 42
0.00000001
 43
0.00000001
 40
0.0
 40
0.0
 40
0.0
 40
0.0
 40
0.1616465496447368
 40
0.3114937988683869
 40
0.4507185758683105
 40
0.5796369411945257
 40
0.6988440304029301
 40
0.807565387180245
 40
0.9078938111691109
 40
1.0
 40
1.0
 40
1.0
 40
1.0
 10
2.584395559210527
 20
0.6164473684210569
 30
0.0
 10
2.59938971118982
 20
0.6163107518483788
 30
0.0
 10
2.628283525323836
 20
0.616047490954129
 30
0.0
 10
2.67004233267858
 20
0.6137262390074586
 30
0.0
 10
2.708632939436282
 20
0.609915904451567
 30
0.0
 10
2.744208691907035
 20
0.6047059888429429
 30
0.0
 10
2.776523544583912
 20
0.5974368988663963
 30
0.0
 10
2.805838975094281
 20
0.5891328430499512
 30
0.0
 10
2.831916644180053
 20
0.5789307766339404
 30
0.0
 10
2.847705864219196
 20
0.5705855913869751
 30
0.0
 10
2.855263157894737
 20
0.5665912828947411
 30
0.0
  0
SPLINE
  5
7B
330
1F
100
AcDbEntity
  8
0
  6
Continuous
 62
     7
370
    25
100
AcDbSpline
210
0.0
220
0.0
230
1.0
 70
     8
 71
     3
 72
    15
 73
    11
 74
     0
 42
0.00000001
 43
0.00000001
 40
0.0
 40
0.0
 40
0.0
 40
0.0
 40
0.114121154624218
 40
0.2296972401011504
 40
0.3476983475835073
 40
0.4690364184081268
 40
0.5937328776608705
 40
0.7233516142727585
 40
0.858573887005614
 40
1.0
 40
1.0
 40
1.0
 40
1.0
 10
2.855263157894737
 20
0.4026315789473727
 30
0.0
 10
2.845704441268878
 20
0.4092504835068818
 30
0.0
 10
2.826465143917756
 20
0.4225726770547686
 30
0.0
 10
2.795111601577807
 20
0.4391670045870025
 30
0.0
 10
2.76184861841108
 20
0.453368440774112
 30
0.0
 10
2.726569379702241
 20
0.4648671080753053
 30
0.0
 10
2.68936855633511
 20
0.4738964390136776
 30
0.0
 10
2.650190751007205
 20
0.4802379431616067
 30
0.0
 10
2.608976114908265
 20
0.4841742147900009
 30
0.0
 10
2.580806770823636
 20
0.4846335851713731
 30
0.0
 10
2.56640625
 20
0.4848684210526359
 30
0.0
  0
SPLINE
  5
7C
330
1F
100
AcDbEntity
  8
0
  6
Continuous
 62
     7
370
    25
100
AcDbSpline
210
0.0
220
0.0
230
1.0
 70
     8
 71
     3
 72
    21
 73
    17
 74
     0
 42
0.00000001
 43
0.00000001
 40
0.0
 40
0.0
 40
0.0
 40
0.0
 40
0.1328624915088361
 40
0.2670779164926977
 40
0.3332996284264192
 40
0.3971214723769524
 40
0.4593807898751455
 40
0.5202980603209214
 40
0.5797569931660687
 40
0.6372478642894139
 40
0.6945348061702398
 40
0.7523555283230725
 40
0.8108220309785567
 40
0.8702440468186202
 40
0.9328314583496368
 40
1.0
 40
1.0
 40
1.0
 40
1.0
 10
2.56640625
 20
0.4848684210526359
 30
0.0
 10
2.550109242766047
 20
0.4843251478091222
 30
0.0
 10
2.517349276520636
 20
0.4832330691922296
 30
0.0
 10
2.476783680996555
 20
0.4771296079198867
 30
0.0
 10
2.44533186148339
 20
0.469236308940654
 30
0.0
 10
2.422790192775878
 20
0.4621830270773434
 30
0.0
 10
2.401690695471979
 20
0.4530876666870504
 30
0.0
 10
2.381874558922146
 20
0.4425926132892672
 30
0.0
 10
2.363562471418483
 20
0.4306363219212224
 30
0.0
 10
2.347244814752083
 20
0.4167655096529823
 30
0.0
 10
2.332428819462108
 20
0.4015852456167123
 30
0.0
 10
2.319523402807032
 20
0.3845806463075437
 30
0.0
 10
2.308789598349753
 20
0.3657862065696002
 30
0.0
 10
2.301300822067035
 20
0.3448424070414763
 30
0.0
 10
2.296923571678521
 20
0.3219477485421741
 30
0.0
 10
2.296349698616764
 20
0.3060230639544503
 30
0.0
 10
2.296052631578948
 20
0.2977796052631621
 30
0.0
  0
SPLINE
  5
7D
330
1F
100
AcDbEntity
  8
0
  6
Continuous
 62
     7
370
    25
100
AcDbSpline
210
0.0
220
0.0
230
1.0
 70
     8
 71
     3
 72
    21
 73
    17
 74
     0
 42
0.00000001
 43
0.00000001
 40
0.0
 40
0.0
 40
0.0
 40
0.0
 40
0.0570750067052729
 40
0.1109997030619689
 40
0.1621310810618218
 40
0.2117635382420589
 40
0.2612054352469896
 40
0.3119460149664429
 40
0.3645258017030025
 40
0.419431027396317
 40
0.539259140358027
 40
0.6745142602609284
 40
0.7481550603781939
 40
0.8272326208649645
 40
0.9108926818945057
 40
1.0
 40
1.0
 40
1.0
 40
1.0
 10
2.296052631578948
 20
0.2977796052631621
 30
0.0
 10
2.296178590370474
 20
0.2901351888007739
 30
0.0
 10
2.296423555535869
 20
0.2752682968564806
 30
0.0
 10
2.300372778656706
 20
0.253890758535095
 30
0.0
 10
2.305468764411089
 20
0.2338010961889758
 30
0.0
 10
2.313642231625924
 20
0.2153509199212754
 30
0.0
 10
2.324140355715848
 20
0.198245712146457
 30
0.0
 10
2.336549116046247
 20
0.1819773853523939
 30
0.0
 10
2.351035771791788
 20
0.1665101132127128
 30
0.0
 10
2.37384215068632
 20
0.1463589247562435
 30
0.0
 10
2.407952352055814
 20
0.1226318320624413
 30
0.0
 10
2.445896984802948
 20
0.1003825262578796
 30
0.0
 10
2.480194854842319
 20
0.0828679552136396
 30
0.0
 10
2.508322770648304
 20
0.0684529636369639
 30
0.0
 10
2.538520689045916
 20
0.0535468934886797
 30
0.0
 10
2.559291341957457
 20
0.0434349539732892
 30
0.0
 10
2.570004111842105
 20
0.0382195723684253
 30
0.0
  0
SPLINE
  5
7E
330
1F
100
AcDbEntity
  8
0
  6
Continuous
 62
     7
370
    25
100
AcDbSpline
210
0.0
220
0.0
230
1.0
 70
     8
 71
     3
 72
    21
 73
    17
 74
     0
 42
0.00000001
 43
0.00000001
 40
0.0
 40
0.0
 40
0.0
 40
0.0
 40
0.1400887041959536
 40
0.2760421691115779
 40
0.3419338302008784
 40
0.4059537688427935
 40
0.4681461637767677
 40
0.5290064972258886
 40
0.5880872764746063
 40
0.6464147638090362
 40
0.7035245777721817
 40
0.7602698132082645
 40
0.8172783593954909
 40
0.8758479542555555
 40
0.936290265931642
 40
1.0
 40
1.0
 40
1.0
 40
1.0
 10
2.570004111842105
 20
0.0382195723684253
 30
0.0
 10
2.592146892576934
 20
0.0272356549293829
 30
0.0
 10
2.635778827494788
 20
0.0055920512382914
 30
0.0
 10
2.687989075707031
 20
-0.0246517674749448
 30
0.0
 10
2.728039311039236
 20
-0.0490937430519878
 30
0.0
 10
2.755436298112257
 20
-0.0690839129884524
 30
0.0
 10
2.781274970401038
 20
-0.0896174662904439
 30
0.0
 10
2.805220670854199
 20
-0.1110854464798321
 30
0.0
 10
2.826900167580794
 20
-0.133890118637942
 30
0.0
 10
2.846629477724343
 20
-0.1575905208368442
 30
0.0
 10
2.863181559572388
 20
-0.1831062162939363
 30
0.0
 10
2.878153011915251
 20
-0.2092953668135719
 30
0.0
 10
2.890155935911149
 20
-0.237314842714621
 30
0.0
 10
2.898633227248852
 20
-0.2672677233885917
 30
0.0
 10
2.903506004480838
 20
-0.2992208741536016
 30
0.0
 10
2.904232470575724
 20
-0.3211216289308928
 30
0.0
 10
2.904605263157895
 20
-0.3323601973684168
 30
0.0
  0
SPLINE
  5
7F
330
1F
100
AcDbEntity
  8
0
  6
Continuous
 62
     7
370
    25
100
AcDbSpline
210
0.0
220
0.0
230
1.0
 70
     8
 71
     3
 72
    23
 73
    19
 74
     0
 42
0.00000001
 43
0.00000001
 40
0.0
 40
0.0
 40
0.0
 40
0.0
 40
0.0704410524970554
 40
0.1359291947168377
 40
0.1975104555427747
 40
0.2567845602464753
 40
0.3141878487843873
 40
0.3707944930094635
 40
0.427502988978674
 40
0.4848450535443017
 40
0.5434879233463946
 40
0.6033307354764789
 40
0.665423232461025
 40
0.7293094936210854
 40
0.7950830774150032
 40
0.8619462364206382
 40
0.9300450330277573
 40
1.0
 40
1.0
 40
1.0
 40
1.0
 10
2.904605263157895
 20
-0.3323601973684168
 30
0.0
 10
2.904172686922762
 20
-0.3471209324986826
 30
0.0
 10
2.903337950115024
 20
-0.3756045335886785
 30
0.0
 10
2.896632225929179
 20
-0.4165599964604554
 30
0.0
 10
2.885397470888299
 20
-0.4540781069912702
 30
0.0
 10
2.869223002953848
 20
-0.4878715579052211
 30
0.0
 10
2.849566076948553
 20
-0.518494961470089
 30
0.0
 10
2.826435790114252
 20
-0.5458788299253192
 30
0.0
 10
2.800397038050042
 20
-0.5704920066633574
 30
0.0
 10
2.771086802873166
 20
-0.5918371000675317
 30
0.0
 10
2.73915331948443
 20
-0.6103006970676433
 30
0.0
 10
2.704691976923569
 20
-0.6260145847647033
 30
0.0
 10
2.667981198857699
 20
-0.6390853162517021
 30
0.0
 10
2.629088536211573
 20
-0.649291956944772
 30
0.0
 10
2.588588297094857
 20
-0.6567779894993767
 30
0.0
 10
2.546921744047399
 20
-0.6625059689102477
 30
0.0
 10
2.504101253890381
 20
-0.6659272457134265
 30
0.0
 10
2.475180909121123
 20
-0.6662724470764647
 30
0.0
 10
2.460526315789474
 20
-0.6664473684210483
 30
0.0
  0
SPLINE
  5
80
330
1F
100
AcDbEntity
  8
0
  6
Continuous
 62
     7
370
    25
100
AcDbSpline
210
0.0
220
0.0
230
1.0
 70
     8
 71
     3
 72
    19
 73
    15
 74
     0
 42
0.00000001
 43
0.00000001
 40
0.0
 40
0.0
 40
0.0
 40
0.0
 40
0.0482770510028279
 40
0.1021798775564724
 40
0.1609297804986581
 40
0.2261261580137939
 40
0.3627682560559428
 40
0.5029124774097723
 40
0.6422501066181232
 40
0.7774015734545348
 40
0.8407517288911222
 40
0.8981211182536388
 40
0.951930928643839
 40
1.0
 40
1.0
 40
1.0
 40
1.0
 10
2.460526315789474
 20
-0.6664473684210483
 30
0.0
 10
2.455299195793945
 20
-0.66641115653344
 30
0.0
 10
2.444235834009793
 20
-0.6663345129488574
 30
0.0
 10
2.426846429551266
 20
-0.6651671049885967
 30
0.0
 10
2.407659163017891
 20
-0.6636021827301954
 30
0.0
 10
2.37957061924819
 20
-0.6609496105143706
 30
0.0
 10
2.342910859975749
 20
-0.6556446630821259
 30
0.0
 10
2.298627412668103
 20
-0.6473254334588641
 30
0.0
 10
2.254980259118668
 20
-0.6367161045207324
 30
0.0
 10
2.22007432785732
 20
-0.6257482136356163
 30
0.0
 10
2.194004750237284
 20
-0.6163259264083182
 30
0.0
 10
2.176843113585236
 20
-0.6084007995872137
 30
0.0
 10
2.161502132680351
 20
-0.6004780060608048
 30
0.0
 10
2.152346281419597
 20
-0.5943143983300672
 30
0.0
 10
2.148026315789474
 20
-0.5914062499999958
 30
0.0
  0
SPLINE
  5
81
330
1F
100
AcDbEntity
  8
0
  6
Continuous
 62
     7
370
    25
100
AcDbSpline
210
0.0
220
0.0
230
1.0
 70
     8
 71
     3
 72
    23
 73
    19
 74
     0
 42
0.00000001
 43
0.00000001
 40
0.0
 40
0.0
 40
0.0
 40
0.0
 40
0.0785928995978934
 40
0.1527143534648671
 40
0.2219979035788856
 40
0.2872595807120264
 40
0.3493273585225541
 40
0.4079518345567751
 40
0.4646285150825479
 40
0.5196164888892859
 40
0.5738188004203767
 40
0.6282734227826214
 40
0.683586986423375
 40
0.7407196654709495
 40
0.8003739201487212
 40
0.8630644509058872
 40
0.9293443651995271
 40
1.0
 40
1.0
 40
1.0
 40
1.0
 10
-0.6644736842105264
 20
-0.1416735197368379
 30
0.0
 10
-0.6647662400826775
 20
-0.1628475672035674
 30
0.0
 10
-0.6653347072227941
 20
-0.2039909909181783
 30
0.0
 10
-0.67121752881414
 20
-0.2635502205037448
 30
0.0
 10
-0.6799097733360632
 20
-0.319116857616269
 30
0.0
 10
-0.6927496712647134
 20
-0.3705743772965253
 30
0.0
 10
-0.7094093187106262
 20
-0.4178825375135519
 30
0.0
 10
-0.7295069582499731
 20
-0.4613026174190289
 30
0.0
 10
-0.7533298394367177
 20
-0.5006461126661701
 30
0.0
 10
-0.781458993921904
 20
-0.5354822738819963
 30
0.0
 10
-0.812656146769684
 20
-0.5667677478815426
 30
0.0
 10
-0.8479356033478271
 20
-0.593535124410013
 30
0.0
 10
-0.8867544713331368
 20
-0.6164331975877808
 30
0.0
 10
-0.9295579957040294
 20
-0.6344957327947991
 30
0.0
 10
-0.9757545703361524
 20
-0.6489758333234311
 30
0.0
 10
-1.025613625124835
 20
-0.659091695784231
 30
0.0
 10
-1.079094741390359
 20
-0.6653723032743682
 30
0.0
 10
-1.115987031114518
 20
-0.6660814597684482
 30
0.0
 10
-1.135022615131579
 20
-0.6664473684210483
 30
0.0
  0
SPLINE
  5
82
330
1F
100
AcDbEntity
  8
0
  6
Continuous
 62
     7
370
    25
100
AcDbSpline
210
0.0
220
0.0
230
1.0
 70
     8
 71
     3
 72
    23
 73
    19
 74
     0
 42
0.00000001
 43
0.00000001
 40
0.0
 40
0.0
 40
0.0
 40
0.0
 40
0.0703124040370341
 40
0.136705308737816
 40
0.1992992872654291
 40
0.2587319040572937
 40
0.3155693562484085
 40
0.3708212273804016
 40
0.4251791973842448
 40
0.4795513107447689
 40
0.5343159495019966
 40
0.5909859861536291
 40
0.6499919854253461
 40
0.7120404588160074
 40
0.7776327479375543
 40
0.8472117704642225
 40
0.9210864085390835
 40
1.0
 40
1.0
 40
1.0
 40
1.0
 10
-1.135022615131579
 20
-0.6664473684210483
 30
0.0
 10
-1.15320063546456
 20
-0.6660585736750646
 30
0.0
 10
-1.188543359353699
 20
-0.665302657183326
 30
0.0
 10
-1.239781228413913
 20
-0.659298423736902
 30
0.0
 10
-1.287602649804594
 20
-0.6497443107753823
 30
0.0
 10
-1.3317940358164
 20
-0.6358339798888232
 30
0.0
 10
-1.37247104132147
 20
-0.6180085326200077
 30
0.0
 10
-1.409833311423364
 20
-0.5964455081993113
 30
0.0
 10
-1.443428114910861
 20
-0.5704232693120589
 30
0.0
 10
-1.47374395682137
 20
-0.5408298765337246
 30
0.0
 10
-1.500163825006315
 20
-0.5069268086620066
 30
0.0
 10
-1.522999415327581
 20
-0.4691637024437563
 30
0.0
 10
-1.542735098961153
 20
-0.4275761732110929
 30
0.0
 10
-1.558164608403973
 20
-0.3817749806984267
 30
0.0
 10
-1.570451882153673
 20
-0.3322590793911713
 30
0.0
 10
-1.579465837297347
 20
-0.2789276630330195
 30
0.0
 10
-1.584487757233376
 20
-0.2216090576058521
 30
0.0
 10
-1.585172600893097
 20
-0.1821163422439713
 30
0.0
 10
-1.585526315789474
 20
-0.1617187499999958
 30
0.0
  0
SPLINE
  5
86
330
1F
100
AcDbEntity
  8
0
  6
Continuous
 62
     7
370
    25
100
AcDbSpline
210
0.0
220
0.0
230
1.0
 70
     8
 71
     3
 72
    23
 73
    19
 74
     0
 42
0.00000001
 43
0.00000001
 40
0.0
 40
0.0
 40
0.0
 40
0.0
 40
0.0812284201408697
 40
0.1577246097452578
 40
0.2294387844169955
 40
0.2969600366812833
 40
0.3605820252617167
 40
0.4205844433649367
 40
0.478158728757979
 40
0.5332828331678718
 40
0.5875418929793046
 40
0.6410855584536149
 40
0.6950230161798341
 40
0.7505095349644773
 40
0.8081403419422624
 40
0.8686644492751973
 40
0.9322816401187861
 40
0.9999999999999999
 40
0.9999999999999999
 40
0.9999999999999999
 40
0.9999999999999999
 10
-1.4375
 20
-0.1519531249999958
 30
0.0
 10
-1.437231002560229
 20
-0.1673770727802614
 30
0.0
 10
-1.436708679017103
 20
-0.1973263951991225
 30
0.0
 10
-1.433327423144302
 20
-0.2408183665887848
 30
0.0
 10
-1.426652490433862
 20
-0.281263135898337
 30
0.0
 10
-1.418561760776786
 20
-0.3189698077829695
 30
0.0
 10
-1.407119654634702
 20
-0.3534883680248309
 30
0.0
 10
-1.393512637133317
 20
-0.3851334231644645
 30
0.0
 10
-1.377461055198057
 20
-0.413843131959398
 30
0.0
 10
-1.358310527117884
 20
-0.4391891536731239
 30
0.0
 10
-1.337403959477898
 20
-0.4621088297511392
 30
0.0
 10
-1.313378722764613
 20
-0.481407386367098
 30
0.0
 10
-1.2872133683224
 20
-0.4980425276839094
 30
0.0
 10
-1.258498595650883
 20
-0.5117235859277435
 30
0.0
 10
-1.227169590927467
 20
-0.5222460754933083
 30
0.0
 10
-1.193387169252938
 20
-0.5296024600917264
 30
0.0
 10
-1.157153477834621
 20
-0.5339884621365657
 30
0.0
 10
-1.132208288894754
 20
-0.5345690580590687
 30
0.0
 10
-1.119346217105263
 20
-0.5348684210526273
 30
0.0
  0
SPLINE
  5
87
330
1F
100
AcDbEntity
  8
0
  6
Continuous
 62
     7
370
    25
100
AcDbSpline
210
0.0
220
0.0
230
1.0
 70
     8
 71
     3
 72
    23
 73
    19
 74
     0
 42
0.00000001
 43
0.00000001
 40
0.0
 40
0.0
 40
0.0
 40
0.0
 40
0.0678249864441586
 40
0.1313599748614532
 40
0.1917867465768894
 40
0.2489823487134521
 40
0.3048018702501803
 40
0.3587509238418016
 40
0.4121874050545264
 40
0.4667403847766922
 40
0.5216147309469783
 40
0.5791776768776241
 40
0.6392564362152033
 40
0.7026606515786797
 40
0.7703389508936443
 40
0.8421861180386659
 40
0.9186460391208806
 40
1.0
 40
1.0
 40
1.0
 40
1.0
 10
-1.119346217105263
 20
-0.5348684210526273
 30
0.0
 10
-1.106916981869178
 20
-0.5345346137710897
 30
0.0
 10
-1.082844672919977
 20
-0.53388811285144
 30
0.0
 10
-1.047831068997075
 20
-0.5299840696452573
 30
0.0
 10
-1.015455434430621
 20
-0.5223679521266317
 30
0.0
 10
-0.9851863881840702
 20
-0.5124492425593369
 30
0.0
 10
-0.9574964015851084
 20
-0.4992599142262548
 30
0.0
 10
-0.931903115863807
 20
-0.4836114888237121
 30
0.0
 10
-0.9091055131599329
 20
-0.4644641631405133
 30
0.0
 10
-0.8885155686403015
 20
-0.4427434656407797
 30
0.0
 10
-0.8706389582313229
 20
-0.4178054419391029
 30
0.0
 10
-0.854901846197986
 20
-0.3903091219523045
 30
0.0
 10
-0.8418769419467403
 20
-0.3597168921286797
 30
0.0
 10
-0.8310780947041037
 20
-0.3263449886738081
 30
0.0
 10
-0.8226232669597761
 20
-0.2900734406211892
 30
0.0
 10
-0.8168919449185417
 20
-0.2508710157903543
 30
0.0
 10
-0.8132289602667718
 20
-0.2089029445759286
 30
0.0
 10
-0.812747958940973
 20
-0.1799731148074277
 30
0.0
 10
-0.8125000000000003
 20
-0.1650596217105222
 30
0.0
  0
SPLINE
  5
8C
330
1F
100
AcDbEntity
  8
0
  6
Continuous
 62
     7
370
    25
100
AcDbSpline
210
0.0
220
0.0
230
1.0
 70
     8
 71
     3
 72
    23
 73
    19
 74
     0
 42
0.00000001
 43
0.00000001
 40
0.0
 40
0.0
 40
0.0
 40
0.0
 40
0.0791921172456086
 40
0.1542042072713934
 40
0.2247227483384665
 40
0.2925314155878612
 40
0.3565190198189662
 40
0.4184881080530788
 40
0.4777138869244689
 40
0.5365669993060522
 40
0.5939336465173237
 40
0.6500835209735227
 40
0.7058511342462136
 40
0.761237526290537
 40
0.8175721345682175
 40
0.8760919955515768
 40
0.936755345795278
 40
1.0
 40
1.0
 40
1.0
 40
1.0
 10
-0.0022101151315789
 20
-0.5184210526315747
 30
0.0
 10
0.0084191923699426
 20
-0.5182168775901878
 30
0.0
 10
0.0291167566493833
 20
-0.5178193045551843
 30
0.0
 10
0.0591626001787796
 20
-0.5149443895253826
 30
0.0
 10
0.0874718735815025
 20
-0.5104455475638955
 30
0.0
 10
0.1137834323804009
 20
-0.5036578545701725
 30
0.0
 10
0.1385723534032433
 20
-0.4956517280394246
 30
0.0
 10
0.1610662888470333
 20
-0.4849617152210712
 30
0.0
 10
0.1820051754317969
 20
-0.4728350229060913
 30
0.0
 10
0.2009104885070953
 20
-0.4587143659905617
 30
0.0
 10
0.217988846028969
 20
-0.4430520040224651
 30
0.0
 10
0.2327997052158835
 20
-0.4257285856117322
 30
0.0
 10
0.244994788377895
 20
-0.4068330159794689
 30
0.0
 10
0.2556159647612291
 20
-0.3869611066814683
 30
0.0
 10
0.2631949355468133
 20
-0.3653273271808626
 30
0.0
 10
0.2687796225129364
 20
-0.3424315877527008
 30
0.0
 10
0.2726101270645703
 20
-0.3181811646806266
 30
0.0
 10
0.2728856727861638
 20
-0.301536443012239
 30
0.0
 10
0.2730263157894737
 20
-0.2930407072368378
 30
0.0
  0
SPLINE
  5
8D
330
1F
100
AcDbEntity
  8
0
  6
Continuous
 62
     7
370
    25
100
AcDbSpline
210
0.0
220
0.0
230
1.0
 70
     8
 71
     3
 72
    23
 73
    19
 74
     0
 42
0.00000001
 43
0.00000001
 40
0.0
 40
0.0
 40
0.0
 40
0.0
 40
0.0619066382860003
 40
0.1201477763092667
 40
0.1759137292194788
 40
0.2293159694416979
 40
0.2819706229679598
 40
0.3339640538283541
 40
0.3866084396200726
 40
0.4404241227121789
 40
0.4965508155932259
 40
0.555349297779777
 40
0.6182349519132533
 40
0.6849470790519551
 40
0.7559408309566454
 40
0.8322675769466632
 40
0.913533951379484
 40
1.0
 40
1.0
 40
1.0
 40
1.0
 10
0.2730263157894737
 20
-0.2930407072368378
 30
0.0
 10
0.2727783884363839
 20
-0.2842040293100692
 30
0.0
 10
0.27229721354166
 20
-0.267053894328462
 30
0.0
 10
0.2686081898825354
 20
-0.2421644899118789
 30
0.0
 10
0.2627749279420044
 20
-0.2189587829182738
 30
0.0
 10
0.2545241591931953
 20
-0.1973194851334921
 30
0.0
 10
0.2436620451463456
 20
-0.1774828416525034
 30
0.0
 10
0.2304704445835291
 20
-0.1592391296475667
 30
0.0
 10
0.214629568194679
 20
-0.1429963522475313
 30
0.0
 10
0.1964137739353247
 20
-0.1285534755659563
 30
0.0
 10
0.1760387837619684
 20
-0.1156280749755402
 30
0.0
 10
0.1531391837701902
 20
-0.1045946552791222
 30
0.0
 10
0.1279503100609261
 20
-0.0951101762495408
 30
0.0
 10
0.1003352097990602
 20
-0.0874405354787764
 30
0.0
 10
0.0703284635472915
 20
-0.08163007360474
 30
0.0
 10
0.0379868587297996
 20
-0.0772749945459186
 30
0.0
 10
0.003228873864751
 20
-0.074697331612644
 30
0.0
 10
-0.0207089730456192
 20
-0.0744629361186819
 30
0.0
 10
-0.0330489309210526
 20
-0.0743421052631536
 30
0.0
  0
SPLINE
  5
91
330
1F
100
AcDbEntity
  8
0
  6
Continuous
 62
     7
370
    25
100
AcDbSpline
210
0.0
220
0.0
230
1.0
 70
     8
 71
     3
 72
    23
 73
    19
 74
     0
 42
0.00000001
 43
0.00000001
 40
0.0
 40
0.0
 40
0.0
 40
0.0
 40
0.0757572623585411
 40
0.147164360966347
 40
0.2160032025515824
 40
0.2814827898103007
 40
0.3437492320489337
 40
0.4041248901010708
 40
0.4635161751421737
 40
0.5222432755373752
 40
0.5795206539402465
 40
0.6365895504090113
 40
0.6931970839409345
 40
0.7503191207305285
 40
0.8088243854031832
 40
0.8696684530232769
 40
0.9327955952337501
 40
1.0
 40
1.0
 40
1.0
 40
1.0
 10
-0.0528371710526315
 20
0.0572368421052674
 30
0.0
 10
-0.0429807933809525
 20
0.057467849818811
 30
0.0
 10
-0.0238340148895294
 20
0.0579166002287857
 30
0.0
 10
0.0041844565693724
 20
0.0604304071717111
 30
0.0
 10
0.0306096870939962
 20
0.0649431638325777
 30
0.0
 10
0.055306007428334
 20
0.0717276097132028
 30
0.0
 10
0.0783954422221779
 20
0.0799226011833632
 30
0.0
 10
0.0999157898396153
 20
0.0899309827248991
 30
0.0
 10
0.119743938657505
 20
0.1021109177161342
 30
0.0
 10
0.137967988122941
 20
0.1159052784815626
 30
0.0
 10
0.154384130063458
 20
0.1314105627748366
 30
0.0
 10
0.1684302291155599
 20
0.1487204968592077
 30
0.0
 10
0.1807121121197745
 20
0.167297061293545
 30
0.0
 10
0.1905162003353801
 20
0.1875244868447875
 30
0.0
 10
0.1979414536343707
 20
0.2093050533160786
 30
0.0
 10
0.203253570558115
 20
0.2324733430890436
 30
0.0
 10
0.2067760621663174
 20
0.2571536233678341
 30
0.0
 10
0.2070800785325978
 20
0.2741236968998407
 30
0.0
 10
0.2072368421052632
 20
0.2828741776315832
 30
0.0
  0
SPLINE
  5
92
330
1F
100
AcDbEntity
  8
0
  6
Continuous
 62
     7
370
    25
100
AcDbSpline
210
0.0
220
0.0
230
1.0
 70
     8
 71
     3
 72
    23
 73
    19
 74
     0
 42
0.00000001
 43
0.00000001
 40
0.0
 40
0.0
 40
0.0
 40
0.0
 40
0.064372465109227
 40
0.1255242410595118
 40
0.1832523412762028
 40
0.2391387810693735
 40
0.293019467881624
 40
0.3457056762848909
 40
0.3991076857564453
 40
0.4530643643606949
 40
0.5084154763852367
 40
0.5665960572034142
 40
0.627948514088216
 40
0.6936482129361397
 40
0.7632366723008809
 40
0.8371388428424638
 40
0.9157097142306881
 40
1.0
 40
1.0
 40
1.0
 40
1.0
 10
0.2072368421052632
 20
0.2828741776315832
 30
0.0
 10
0.2070314280128267
 20
0.2903365358167186
 30
0.0
 10
0.2066308771249234
 20
0.3048878947885082
 30
0.0
 10
0.2037606368569007
 20
0.3259707562283569
 30
0.0
 10
0.1992175460041186
 20
0.3457487761337412
 30
0.0
 10
0.1925022220198125
 20
0.3640162199508755
 30
0.0
 10
0.1840057103742229
 20
0.3808664546472129
 30
0.0
 10
0.1735869195285441
 20
0.396267360981985
 30
0.0
 10
0.1612095454020537
 20
0.4101549047194437
 30
0.0
 10
0.146948793439439
 20
0.422561807519738
 30
0.0
 10
0.1308426952010739
 20
0.433492758428312
 30
0.0
 10
0.1127032883848909
 20
0.4426272805560064
 30
0.0
 10
0.0927656234970963
 20
0.4506438476046633
 30
0.0
 10
0.0709342193972905
 20
0.4572893608329042
 30
0.0
 10
0.0472053626704559
 20
0.4623825743612179
 30
0.0
 10
0.0216960298057552
 20
0.4659385694690045
 30
0.0
 10
-0.005689895777742
 20
0.4679476689020179
 30
0.0
 10
-0.0245649329531029
 20
0.4682596064778765
 30
0.0
 10
-0.0343338815789474
 20
0.4684210526315832
 30
0.0
  0
SPLINE
  5
97
330
1F
100
AcDbEntity
  8
0
  6
Continuous
 62
     7
370
    25
100
AcDbSpline
210
0.0
220
0.0
230
1.0
 70
     8
 71
     3
 72
    23
 73
    19
 74
     0
 42
0.00000001
 43
0.00000001
 40
0.0
 40
0.0
 40
0.0
 40
0.0
 40
0.0670760133392578
 40
0.1325633901273247
 40
0.1960265865920139
 40
0.2579179567355932
 40
0.3198811722792784
 40
0.3810840741753542
 40
0.4419711462352336
 40
0.5035364539321733
 40
0.564739355828249
 40
0.6251232780728808
 40
0.6863850006474979
 40
0.7466741148261755
 40
0.8082394225231152
 40
0.870329020545624
 40
0.9347070251155793
 40
1.0
 40
1.0
 40
1.0
 40
1.0
 10
0.3552631578947368
 20
0.3108861019736885
 30
0.0
 10
0.3551669824191474
 20
0.3020532521996138
 30
0.0
 10
0.3549769092997634
 20
0.2845967509520743
 30
0.0
 10
0.3519093926528603
 20
0.2589481378691252
 30
0.0
 10
0.3477040745126994
 20
0.2341719437947034
 30
0.0
 10
0.3414019381030221
 20
0.2103090282712883
 30
0.0
 10
0.3335264554478788
 20
0.1872413407510972
 30
0.0
 10
0.3237329481864469
 20
0.1650503494725955
 30
0.0
 10
0.3120465110872079
 20
0.1438676551320827
 30
0.0
 10
0.2987959318883456
 20
0.1236168835865125
 30
0.0
 10
0.2837933766258274
 20
0.1047288613039886
 30
0.0
 10
0.2678459972593046
 20
0.0866770434866384
 30
0.0
 10
0.2501996844322338
 20
0.0704391990938129
 30
0.0
 10
0.231204341426668
 20
0.0555663500326273
 30
0.0
 10
0.2108910138530772
 20
0.042364563632536
 30
0.0
 10
0.1894255398261271
 20
0.0300116182375299
 30
0.0
 10
0.1663879940644969
 20
0.0196023999471278
 30
0.0
 10
0.1503127001477135
 20
0.0138667027979875
 30
0.0
 10
0.1422183388157895
 20
0.0109786184210569
 30
0.0
  0
SPLINE
  5
99
330
1F
100
AcDbEntity
  8
0
  6
Continuous
 62
     7
370
    25
100
AcDbSpline
210
0.0
220
0.0
230
1.0
 70
     8
 71
     3
 72
    23
 73
    19
 74
     0
 42
0.00000001
 43
0.00000001
 40
0.0
 40
0.0
 40
0.0
 40
0.0
 40
0.0685251251032732
 40
0.1346847614273852
 40
0.1986259853915098
 40
0.2609200305295636
 40
0.3215458189792669
 40
0.38201095321857
 40
0.4418957613709214
 40
0.5022051016128591
 40
0.5618658211369535
 40
0.6218703325233305
 40
0.6810021797423512
 40
0.7412136129987736
 40
0.8026623249467508
 40
0.8656917963487936
 40
0.9316099733406527
 40
1.0
 40
1.0
 40
1.0
 40
1.0
 10
0.1422183388157895
 20
0.0076377467105306
 30
0.0
 10
0.1525323749375539
 20
0.0062875581768939
 30
0.0
 10
0.1728044064343184
 20
0.0036337896465807
 30
0.0
 10
0.2021120602156575
 20
-0.0035571512185646
 30
0.0
 10
0.2300121589489701
 20
-0.0121771391012358
 30
0.0
 10
0.256290151954056
 20
-0.0229350777745618
 30
0.0
 10
0.2809012709242746
 20
-0.0359729173961543
 30
0.0
 10
0.3040752229747051
 20
-0.0507666598557083
 30
0.0
 10
0.325517321097987
 20
-0.0679067542541246
 30
0.0
 10
0.3452266130764037
 20
-0.0868263379962073
 30
0.0
 10
0.3630842024750237
 20
-0.1075218466857321
 30
0.0
 10
0.3788159469774502
 20
-0.1296959775107993
 30
0.0
 10
0.3916262463704437
 20
-0.153746956214045
 30
0.0
 10
0.4026430856363791
 20
-0.1789164380956541
 30
0.0
 10
0.4105982038097157
 20
-0.2058240945721502
 30
0.0
 10
0.4170977236486183
 20
-0.2340042365585962
 30
0.0
 10
0.4201684517102663
 20
-0.2638477959838591
 30
0.0
 10
0.4207543108452237
 20
-0.2842127629644933
 30
0.0
 10
0.4210526315789475
 20
-0.2945826480263116
 30
0.0
  0
SPLINE
  5
9A
330
1F
100
AcDbEntity
  8
0
  6
Continuous
 62
     7
370
    25
100
AcDbSpline
210
0.0
220
0.0
230
1.0
 70
     8
 71
     3
 72
    23
 73
    19
 74
     0
 42
0.00000001
 43
0.00000001
 40
0.0
 40
0.0
 40
0.0
 40
0.0
 40
0.0641378451144114
 40
0.1254632582056289
 40
0.1850480915351141
 40
0.2432017259646092
 40
0.3016564165963073
 40
0.3600263511566753
 40
0.4199005353709226
 40
0.4811319360844082
 40
0.5434272458608053
 40
0.6052249453749676
 40
0.667274124952336
 40
0.7301504905075731
 40
0.794202667718939
 40
0.8603564697298656
 40
0.928672444382007
 40
1.0
 40
1.0
 40
1.0
 40
1.0
 10
0.4210526315789473
 20
-0.2945826480263115
 30
0.0
 10
0.4207259903474697
 20
-0.3075378869836787
 30
0.0
 10
0.4200870310389308
 20
-0.3328802801919996
 30
0.0
 10
0.4145222962815065
 20
-0.369918450043364
 30
0.0
 10
0.405608261584456
 20
-0.4050157061521151
 30
0.0
 10
0.3928945040253177
 20
-0.4383359823157314
 30
0.0
 10
0.3763678932164329
 20
-0.4696411872018956
 30
0.0
 10
0.3564314683498024
 20
-0.4993185060109629
 30
0.0
 10
0.3326496341043652
 20
-0.5267648012406559
 30
0.0
 10
0.3056312460480992
 20
-0.5521689902530592
 30
0.0
 10
0.2760037300347191
 20
-0.5750990706502231
 30
0.0
 10
0.2442933712890074
 20
-0.5953997485080489
 30
0.0
 10
0.2103659796917745
 20
-0.6119779929137615
 30
0.0
 10
0.1748298448093127
 20
-0.6259782500545391
 30
0.0
 10
0.1373138853884194
 20
-0.6367975132127336
 30
0.0
 10
0.0979237433298075
 20
-0.6444108636340639
 30
0.0
 10
0.0565858792384205
 20
-0.6491686417664345
 30
0.0
 10
0.0283848648019041
 20
-0.6497189247503082
 30
0.0
 10
0.0139802631578948
 20
-0.6499999999999957
 30
0.0
  0
SPLINE
  5
9C
330
1F
100
AcDbEntity
  8
0
  6
Continuous
 62
     7
370
    25
100
AcDbSpline
210
0.0
220
0.0
230
1.0
 70
     8
 71
     3
 72
    23
 73
    19
 74
     0
 42
0.00000001
 43
0.00000001
 40
0.0
 40
0.0
 40
0.0
 40
0.0
 40
0.0768242403022997
 40
0.1504306197421004
 40
0.220319608589187
 40
0.2872692818347011
 40
0.351883490558487
 40
0.4140664928289973
 40
0.4757778813442282
 40
0.5363024808404895
 40
0.5959573836438989
 40
0.6536026036973002
 40
0.709975496710788
 40
0.7658885796673056
 40
0.8222771073113795
 40
0.8793669675900615
 40
0.9387001413507624
 40
1.0
 40
1.0
 40
1.0
 40
1.0
 10
0.0034436677631579
 20
0.6000000000000042
 30
0.0
 10
0.0165561631090347
 20
0.5997294328709836
 30
0.0
 10
0.0422319236955877
 20
0.5991996315902908
 30
0.0
 10
0.0797354017739226
 20
0.5957661301258856
 30
0.0
 10
0.115087186613297
 20
0.5891923868383844
 30
0.0
 10
0.1484228231899113
 20
0.580596132131983
 30
0.0
 10
0.1795381731217512
 20
0.5692480869664317
 30
0.0
 10
0.2087260845173887
 20
0.5555819809724113
 30
0.0
 10
0.2356421260716675
 20
0.5391333888420248
 30
0.0
 10
0.2603817872614902
 20
0.5202937209112645
 30
0.0
 10
0.2826824773165608
 20
0.4996317210577995
 30
0.0
 10
0.3021752371255281
 20
0.4771890401165342
 30
0.0
 10
0.3182811864558281
 20
0.4530148777338526
 30
0.0
 10
0.3323300193511171
 20
0.4277988492445953
 30
0.0
 10
0.3423595576459363
 20
0.400587479541033
 30
0.0
 10
0.3500113820136143
 20
0.3720589466323979
 30
0.0
 10
0.3543276836526123
 20
0.341941696776809
 30
0.0
 10
0.3549479623384062
 20
0.3213498700181378
 30
0.0
 10
0.3552631578947368
 20
0.3108861019736885
 30
0.0
  0
SPLINE
  5
9F
330
1F
100
AcDbEntity
  8
0
  6
Continuous
 62
     7
370
    25
100
AcDbSpline
210
0.0
220
0.0
230
1.0
 70
     8
 71
     3
 72
    23
 73
    19
 74
     0
 42
0.00000001
 43
0.00000001
 40
0.0
 40
0.0
 40
0.0
 40
0.0
 40
0.0681256402039364
 40
0.1347235436870686
 40
0.199091645970505
 40
0.2620833375153008
 40
0.3239851822764835
 40
0.3840198007490493
 40
0.4433355813842593
 40
0.5013115340455109
 40
0.559447342276233
 40
0.6184249000843455
 40
0.6772448899972108
 40
0.7381356542500291
 40
0.8009076047594664
 40
0.8650831798849877
 40
0.931205588860357
 40
1.0
 40
1.0
 40
1.0
 40
1.0
 10
1.017783717105263
 20
0.0078947368421095
 30
0.0
 10
1.026870573177871
 20
0.0080984537557736
 30
0.0
 10
1.044840510009457
 20
0.0085013191737815
 30
0.0
 10
1.071282751485464
 20
0.0115055346571159
 30
0.0
 10
1.096560630856581
 20
0.0171091727448294
 30
0.0
 10
1.1208755247224
 20
0.0240573594705543
 30
0.0
 10
1.14359305747625
 20
0.0337668563629972
 30
0.0
 10
1.165204056598792
 20
0.0446839852439202
 30
0.0
 10
1.184874815573164
 20
0.057895667394287
 30
0.0
 10
1.203187869649576
 20
0.0725408752558548
 30
0.0
 10
1.219321035259211
 20
0.0894907738863462
 30
0.0
 10
1.234090290814925
 20
0.1077923175012412
 30
0.0
 10
1.246379224910015
 20
0.1282695830664087
 30
0.0
 10
1.257376764705132
 20
0.1500267518875887
 30
0.0
 10
1.265697056570981
 20
0.1737244431830682
 30
0.0
 10
1.271949649940717
 20
0.1987415669314382
 30
0.0
 10
1.275540024160521
 20
0.2251192258486601
 30
0.0
 10
1.276053809230509
 20
0.2431158367708633
 30
0.0
 10
1.276315789473685
 20
0.2522923519736885
 30
0.0
  0
SPLINE
  5
A0
330
1F
100
AcDbEntity
  8
0
  6
Continuous
 62
     7
370
    25
100
AcDbSpline
210
0.0
220
0.0
230
1.0
 70
     8
 71
     3
 72
    23
 73
    19
 74
     0
 42
0.00000001
 43
0.00000001
 40
0.0
 40
0.0
 40
0.0
 40
0.0
 40
0.0647894256790771
 40
0.1266823762661919
 40
0.186220089166137
 40
0.2433731368542255
 40
0.2988631345787018
 40
0.3544104609265514
 40
0.4100150567917017
 40
0.4662861838180682
 40
0.5240091928963658
 40
0.5827627725738334
 40
0.6437044068888222
 40
0.7072538306196562
 40
0.7747988422241541
 40
0.8451918681198333
 40
0.920406326204568
 40
1.0
 40
1.0
 40
1.0
 40
1.0
 10
1.276315789473685
 20
0.2522923519736885
 30
0.0
 10
1.276128791456313
 20
0.2605263553513322
 30
0.0
 10
1.275763155352126
 20
0.2766262528752055
 30
0.0
 10
1.272601338510371
 20
0.3001187400491799
 30
0.0
 10
1.26754595268086
 20
0.3222722213788939
 30
0.0
 10
1.260323519810038
 20
0.3429660699156711
 30
0.0
 10
1.25103351051964
 20
0.3622750765076587
 30
0.0
 10
1.239305720789868
 20
0.37995592885869
 30
0.0
 10
1.225969729459156
 20
0.3965713419656203
 30
0.0
 10
1.210410226666756
 20
0.4115716680238834
 30
0.0
 10
1.192857179992959
 20
0.4247919956541509
 30
0.0
 10
1.173788223090699
 20
0.4368974616465705
 30
0.0
 10
1.152525736265035
 20
0.4465356199152789
 30
0.0
 10
1.129439856096561
 20
0.4544762256942938
 30
0.0
 10
1.104637122342969
 20
0.4609671232048534
 30
0.0
 10
1.077854943239574
 20
0.4651205781508271
 30
0.0
 10
1.049377830370753
 20
0.4681625588832067
 30
0.0
 10
1.029699925140984
 20
0.4683332782775115
 30
0.0
 10
1.019582648026316
 20
0.4684210526315832
 30
0.0
  0
SPLINE
  5
A4
330
1F
100
AcDbEntity
  8
0
  6
Continuous
 62
     7
370
    25
100
AcDbSpline
210
0.0
220
0.0
230
1.0
 70
     8
 71
     3
 72
    15
 73
    11
 74
     0
 42
0.00000001
 43
0.00000001
 40
0.0
 40
0.0
 40
0.0
 40
0.0
 40
0.1633121701935946
 40
0.3072034333469238
 40
0.4348697554190234
 40
0.5509843043610151
 40
0.6595367507775095
 40
0.7659534171126852
 40
0.8769526536307646
 40
1.0
 40
1.0
 40
1.0
 40
1.0
 10
1.190738075657895
 20
-0.3030633223684168
 30
0.0
 10
1.181284816097186
 20
-0.2880022799810047
 30
0.0
 10
1.163502468401193
 20
-0.2596712381136912
 30
0.0
 10
1.134923577352162
 20
-0.2219049075050059
 30
0.0
 10
1.107270087933141
 20
-0.1899185875532445
 30
0.0
 10
1.078070453331354
 20
-0.1648805830554635
 30
0.0
 10
1.047584859556834
 20
-0.145305188290073
 30
0.0
 10
1.014212804299047
 20
-0.1326950544352575
 30
0.0
 10
0.9777938279005335
 20
-0.1249788141515044
 30
0.0
 10
0.9522939954754475
 20
-0.1241303047542689
 30
0.0
 10
0.9388877467105264
 20
-0.1236842105263115
 30
0.0
  0
SPLINE
  5
AA
330
1F
100
AcDbEntity
  8
0
  6
Continuous
 62
     7
370
    25
100
AcDbSpline
210
0.0
220
0.0
230
1.0
 70
     8
 71
     3
 72
    23
 73
    19
 74
     0
 42
0.00000001
 43
0.00000001
 40
0.0
 40
0.0
 40
0.0
 40
0.0
 40
0.0675920517315779
 40
0.1328683301164382
 40
0.1963420186584116
 40
0.2585497991225326
 40
0.3191506579680989
 40
0.3785939586167913
 40
0.4381010686152981
 40
0.4974313076842841
 40
0.5563120874807359
 40
0.6159564011429313
 40
0.6764728995992018
 40
0.7382190728309296
 40
0.8015638526100356
 40
0.8656417609395968
 40
0.9317909901987541
 40
1.0
 40
1.0
 40
1.0
 40
1.0
 10
1.424342105263158
 20
0.26411389802632
 30
0.0
 10
1.424081281084319
 20
0.2533961898617596
 30
0.0
 10
1.423568568831789
 20
0.2323279732590794
 30
0.0
 10
1.419941725631994
 20
0.2013627124821045
 30
0.0
 10
1.413822843327791
 20
0.1716671898306788
 30
0.0
 10
1.405001997449369
 20
0.1434374365308679
 30
0.0
 10
1.394220193942018
 20
0.1165970553045002
 30
0.0
 10
1.381300787645947
 20
0.0911813898286165
 30
0.0
 10
1.366104555143296
 20
0.06730258012448
 30
0.0
 10
1.348921764498884
 20
0.0449159359572803
 30
0.0
 10
1.329645456469132
 20
0.0242977766964204
 30
0.0
 10
1.30892174594697
 20
0.0048446610945124
 30
0.0
 10
1.285862378495975
 20
-0.0125516971989646
 30
0.0
 10
1.26113284742204
 20
-0.0285445979620524
 30
0.0
 10
1.2347342385293
 20
-0.0428398014744819
 30
0.0
 10
1.206779704477515
 20
-0.0555678585427918
 30
0.0
 10
1.17717626905808
 20
-0.0663260081209059
 30
0.0
 10
1.156682670731456
 20
-0.0721542697348079
 30
0.0
 10
1.146278782894737
 20
-0.0751130756578905
 30
0.0
  0
SPLINE
  5
AC
330
1F
100
AcDbEntity
  8
0
  6
Continuous
 62
     7
370
    25
100
AcDbSpline
210
0.0
220
0.0
230
1.0
 70
     8
 71
     3
 72
    15
 73
    11
 74
     0
 42
0.00000001
 43
0.00000001
 40
0.0
 40
0.0
 40
0.0
 40
0.0
 40
0.1205450693636887
 40
0.229913857972065
 40
0.3367165763199347
 40
0.448759227192026
 40
0.5682680732961867
 40
0.6966734577644876
 40
0.8388676366948538
 40
1.0
 40
1.0
 40
1.0
 40
1.0
 10
1.146278782894737
 20
-0.0787109374999957
 30
0.0
 10
1.156616220843242
 20
-0.0834122487659898
 30
0.0
 10
1.176332665927502
 20
-0.0923789913826548
 30
0.0
 10
1.20291459846756
 20
-0.1097811174958572
 30
0.0
 10
1.227042498979281
 20
-0.1291578911183504
 30
0.0
 10
1.248964896985707
 20
-0.1523105762309353
 30
0.0
 10
1.271109868965707
 20
-0.1779602353037605
 30
0.0
 10
1.292302884375722
 20
-0.2079649131663438
 30
0.0
 10
1.31522155634919
 20
-0.2414873593612464
 30
0.0
 10
1.330764629388878
 20
-0.2654212032280125
 30
0.0
 10
1.339021381578948
 20
-0.2781352796052589
 30
0.0
  0
SPLINE
  5
AE
330
1F
100
AcDbEntity
  8
0
  6
Continuous
 62
     7
370
    25
100
AcDbSpline
210
0.0
220
0.0
230
1.0
 70
     8
 71
     3
 72
    23
 73
    19
 74
     0
 42
0.00000001
 43
0.00000001
 40
0.0
 40
0.0
 40
0.0
 40
0.0
 40
0.0701662573653369
 40
0.1379487884727673
 40
0.2037521993189898
 40
0.2673474514141416
 40
0.3292203912985694
 40
0.3891837464659462
 40
0.4476390368100177
 40
0.5054421338045186
 40
0.5629840174841939
 40
0.620010382372127
 40
0.6782399493618614
 40
0.737179648881796
 40
0.797985621772938
 40
0.8616921599625205
 40
0.9289071169288906
 40
1.0
 40
1.0
 40
1.0
 40
1.0
 10
1.042454769736842
 20
0.6000000000000042
 30
0.0
 10
1.055912149293438
 20
0.5997545168169027
 30
0.0
 10
1.082369726989006
 20
0.5992718901389119
 30
0.0
 10
1.121306976898166
 20
0.5954276258302128
 30
0.0
 10
1.15854442255476
 20
0.5886682849915529
 30
0.0
 10
1.194150667322529
 20
0.579744372008513
 30
0.0
 10
1.227891147044705
 20
0.5683304113643008
 30
0.0
 10
1.259336710469518
 20
0.5538266832156068
 30
0.0
 10
1.288648782002197
 20
0.5368786699053751
 30
0.0
 10
1.315411917107021
 20
0.5169142130566868
 30
0.0
 10
1.339986306262468
 20
0.494697947703571
 30
0.0
 10
1.361485826050441
 20
0.4693687832121944
 30
0.0
 10
1.38025401329688
 20
0.4416545938309691
 30
0.0
 10
1.396036505784277
 20
0.411306537079975
 30
0.0
 10
1.408707876613382
 20
0.3784086917317772
 30
0.0
 10
1.417994268974332
 20
0.3427527038418498
 30
0.0
 10
1.423360902579734
 20
0.304282291750868
 30
0.0
 10
1.424008980684569
 20
0.2777513242769099
 30
0.0
 10
1.424342105263158
 20
0.26411389802632
 30
0.0
  0
LINE
  5
C3
330
1F
100
AcDbEntity
  8
0
  6
Continuous
 62
     7
370
    25
100
AcDbLine
 10
2.1480263158
 20
-0.59140625
 30
0.0
 11
2.1480263158
 21
-0.4197368421
 31
0.0
  0
LINE
  5
C4
330
1F
100
AcDbEntity
  8
0
  6
Continuous
 62
     7
370
    25
100
AcDbLine
 10
2.8552631579
 20
0.5665912829
 30
0.0
 11
2.8552631579
 21
0.4026315789
 31
0.0
  0
LINE
  5
C5
330
1F
100
AcDbEntity
  8
0
  6
Continuous
 62
     7
370
    25
100
AcDbLine
 10
-1.5855263158
 20
-0.16171875
 30
0.0
 11
-1.5855263158
 21
0.6
 31
0.0
  0
LINE
  5
C6
330
1F
100
AcDbEntity
  8
0
  6
Continuous
 62
     7
370
    25
100
AcDbLine
 10
-1.5855263158
 20
0.6
 30
0.0
 11
-1.4375
 21
0.6
 31
0.0
  0
LINE
  5
C7
330
1F
100
AcDbEntity
  8
0
  6
Continuous
 62
     7
370
    25
100
AcDbLine
 10
-1.4375
 20
0.6
 30
0.0
 11
-1.4375
 21
-0.151953125
 31
0.0
  0
LINE
  5
C8
330
1F
100
AcDbEntity
  8
0
  6
Continuous
 62
     7
370
    25
100
AcDbLine
 10
-0.8125
 20
-0.1650596217
 30
0.0
 11
-0.8125
 21
0.6
 31
0.0
  0
LINE
  5
C9
330
1F
100
AcDbEntity
  8
0
  6
Continuous
 62
     7
370
    25
100
AcDbLine
 10
-0.8125
 20
0.6
 30
0.0
 11
-0.6644736842
 21
0.6
 31
0.0
  0
LINE
  5
CA
330
1F
100
AcDbEntity
  8
0
  6
Continuous
 62
     7
370
    25
100
AcDbLine
 10
-0.6644736842
 20
0.6
 30
0.0
 11
-0.6644736842
 21
-0.1416735197
 31
0.0
  0
LINE
  5
CB
330
1F
100
AcDbEntity
  8
0
  6
Continuous
 62
     7
370
    25
100
AcDbLine
 10
-0.2039473684
 20
-0.5184210526
 30
0.0
 11
-0.0022101151
 21
-0.5184210526
 31
0.0
  0
LINE
  5
CC
330
1F
100
AcDbEntity
  8
0
  6
Continuous
 62
     7
370
    25
100
AcDbLine
 10
-0.0330489309
 20
-0.0743421053
 30
0.0
 11
-0.2039473684
 21
-0.0743421053
 31
0.0
  0
LINE
  5
CD
330
1F
100
AcDbEntity
  8
0
  6
Continuous
 62
     7
370
    25
100
AcDbLine
 10
-0.2039473684
 20
-0.0743421053
 30
0.0
 11
-0.2039473684
 21
-0.5184210526
 31
0.0
  0
LINE
  5
CE
330
1F
100
AcDbEntity
  8
0
  6
Continuous
 62
     7
370
    25
100
AcDbLine
 10
-0.2039473684
 20
0.0572368421
 30
0.0
 11
-0.0528371711
 21
0.0572368421
 31
0.0
  0
LINE
  5
CF
330
1F
100
AcDbEntity
  8
0
  6
Continuous
 62
     7
370
    25
100
AcDbLine
 10
-0.0343338816
 20
0.4684210526
 30
0.0
 11
-0.2039473684
 21
0.4684210526
 31
0.0
  0
LINE
  5
D0
330
1F
100
AcDbEntity
  8
0
  6
Continuous
 62
     7
370
    25
100
AcDbLine
 10
-0.2039473684
 20
0.4684210526
 30
0.0
 11
-0.2039473684
 21
0.0572368421
 31
0.0
  0
LINE
  5
D1
330
1F
100
AcDbEntity
  8
0
  6
Continuous
 62
     7
370
    25
100
AcDbLine
 10
-0.3519736842
 20
-0.65
 30
0.0
 11
-0.3519736842
 21
0.6
 31
0.0
  0
LINE
  5
D2
330
1F
100
AcDbEntity
  8
0
  6
Continuous
 62
     7
370
    25
100
AcDbLine
 10
-0.3519736842
 20
0.6
 30
0.0
 11
0.0034436678
 21
0.6
 31
0.0
  0
LINE
  5
D3
330
1F
100
AcDbEntity
  8
0
  6
Continuous
 62
     7
370
    25
100
AcDbLine
 10
0.1422183388
 20
0.0109786184
 30
0.0
 11
0.1422183388
 21
0.0076377467
 31
0.0
  0
LINE
  5
D4
330
1F
100
AcDbEntity
  8
0
  6
Continuous
 62
     7
370
    25
100
AcDbLine
 10
0.0139802632
 20
-0.65
 30
0.0
 11
-0.3519736842
 21
-0.65
 31
0.0
  0
LINE
  5
D5
330
1F
100
AcDbEntity
  8
0
  6
Continuous
 62
     7
370
    25
100
AcDbLine
 10
0.8157894737
 20
0.4684210526
 30
0.0
 11
0.8157894737
 21
0.0078947368
 31
0.0
  0
LINE
  5
D6
330
1F
100
AcDbEntity
  8
0
  6
Continuous
 62
     7
370
    25
100
AcDbLine
 10
0.8157894737
 20
0.0078947368
 30
0.0
 11
1.0177837171
 21
0.0078947368
 31
0.0
  0
LINE
  5
D7
330
1F
100
AcDbEntity
  8
0
  6
Continuous
 62
     7
370
    25
100
AcDbLine
 10
1.019582648
 20
0.4684210526
 30
0.0
 11
0.8157894737
 21
0.4684210526
 31
0.0
  0
LINE
  5
D8
330
1F
100
AcDbEntity
  8
0
  6
Continuous
 62
     7
370
    25
100
AcDbLine
 10
1.5723684211
 20
-0.65
 30
0.0
 11
1.3989000822
 21
-0.65
 31
0.0
  0
LINE
  5
D9
330
1F
100
AcDbEntity
  8
0
  6
Continuous
 62
     7
370
    25
100
AcDbLine
 10
1.3989000822
 20
-0.65
 30
0.0
 11
1.1907380757
 21
-0.3030633224
 31
0.0
  0
LINE
  5
DA
330
1F
100
AcDbEntity
  8
0
  6
Continuous
 62
     7
370
    25
100
AcDbLine
 10
0.9388877467
 20
-0.1236842105
 30
0.0
 11
0.8157894737
 21
-0.1236842105
 31
0.0
  0
LINE
  5
DB
330
1F
100
AcDbEntity
  8
0
  6
Continuous
 62
     7
370
    25
100
AcDbLine
 10
0.8157894737
 20
-0.1236842105
 30
0.0
 11
0.8157894737
 21
-0.65
 31
0.0
  0
LINE
  5
DC
330
1F
100
AcDbEntity
  8
0
  6
Continuous
 62
     7
370
    25
100
AcDbLine
 10
0.8157894737
 20
-0.65
 30
0.0
 11
0.6677631579
 21
-0.65
 31
0.0
  0
LINE
  5
DD
330
1F
100
AcDbEntity
  8
0
  6
Continuous
 62
     7
370
    25
100
AcDbLine
 10
0.6677631579
 20
-0.65
 30
0.0
 11
0.6677631579
 21
0.6
 31
0.0
  0
LINE
  5
DE
330
1F
100
AcDbEntity
  8
0
  6
Continuous
 62
     7
370
    25
100
AcDbLine
 10
0.6677631579
 20
0.6
 30
0.0
 11
1.0424547697
 21
0.6
 31
0.0
  0
LINE
  5
DF
330
1F
100
AcDbEntity
  8
0
  6
Continuous
 62
     7
370
    25
100
AcDbLine
 10
1.1462787829
 20
-0.0751130757
 30
0.0
 11
1.1462787829
 21
-0.0787109375
 31
0.0
  0
LINE
  5
E0
330
1F
100
AcDbEntity
  8
0
  6
Continuous
 62
     7
370
    25
100
AcDbLine
 10
1.3390213816
 20
-0.2781352796
 30
0.0
 11
1.5723684211
 21
-0.65
 31
0.0
  0
LINE
  5
E1
330
1F
100
AcDbEntity
  8
0
  6
Continuous
 62
     7
370
    25
100
AcDbLine
 10
1.8848684211
 20
-0.65
 30
0.0
 11
1.7368421053
 21
-0.65
 31
0.0
  0
LINE
  5
E2
330
1F
100
AcDbEntity
  8
0
  6
Continuous
 62
     7
370
    25
100
AcDbLine
 10
1.7368421053
 20
-0.65
 30
0.0
 11
1.7368421053
 21
0.6
 31
0.0
  0
LINE
  5
E3
330
1F
100
AcDbEntity
  8
0
  6
Continuous
 62
     7
370
    25
100
AcDbLine
 10
1.7368421053
 20
0.6
 30
0.0
 11
1.8848684211
 21
0.6
 31
0.0
  0
LINE
  5
E4
330
1F
100
AcDbEntity
  8
0
  6
Continuous
 62
     7
370
    25
100
AcDbLine
 10
1.8848684211
 20
0.6
 30
0.0
 11
1.8848684211
 21
-0.65
 31
0.0
  0
LINE
  5
E5
330
1F
100
AcDbEntity
  8
0
  6
Continuous
 62
     7
370
    25
100
AcDbLine
 10
-1.8980263158
 20
-0.65
 30
0.0
 11
-2.0460526316
 21
-0.65
 31
0.0
  0
LINE
  5
E6
330
1F
100
AcDbEntity
  8
0
  6
Continuous
 62
     7
370
    25
100
AcDbLine
 10
-2.0460526316
 20
-0.65
 30
0.0
 11
-2.0460526316
 21
-0.0743421053
 31
0.0
  0
LINE
  5
E7
330
1F
100
AcDbEntity
  8
0
  6
Continuous
 62
     7
370
    25
100
AcDbLine
 10
-2.0460526316
 20
-0.0743421053
 30
0.0
 11
-2.6875
 21
-0.0743421053
 31
0.0
  0
LINE
  5
E8
330
1F
100
AcDbEntity
  8
0
  6
Continuous
 62
     7
370
    25
100
AcDbLine
 10
-2.6875
 20
-0.0743421053
 30
0.0
 11
-2.6875
 21
-0.65
 31
0.0
  0
LINE
  5
E9
330
1F
100
AcDbEntity
  8
0
  6
Continuous
 62
     7
370
    25
100
AcDbLine
 10
-2.6875
 20
-0.65
 30
0.0
 11
-2.8355263158
 21
-0.65
 31
0.0
  0
LINE
  5
EA
330
1F
100
AcDbEntity
  8
0
  6
Continuous
 62
     7
370
    25
100
AcDbLine
 10
-2.6875
 20
0.6
 30
0.0
 11
-2.6875
 21
0.0572368421
 31
0.0
  0
LINE
  5
EB
330
1F
100
AcDbEntity
  8
0
  6
Continuous
 62
     7
370
    25
100
AcDbLine
 10
-2.6875
 20
0.0572368421
 30
0.0
 11
-2.0460526316
 21
0.0572368421
 31
0.0
  0
LINE
  5
EC
330
1F
100
AcDbEntity
  8
0
  6
Continuous
 62
     7
370
    25
100
AcDbLine
 10
-2.0460526316
 20
0.0572368421
 30
0.0
 11
-2.0460526316
 21
0.6
 31
0.0
  0
LINE
  5
ED
330
1F
100
AcDbEntity
  8
0
  6
Continuous
 62
     7
370
    25
100
AcDbLine
 10
-2.0460526316
 20
0.6
 30
0.0
 11
-1.8980263158
 21
0.6
 31
0.0
  0
LINE
  5
EE
330
1F
100
AcDbEntity
  8
0
  6
Continuous
 62
     7
370
    25
100
AcDbLine
 10
-1.8980263158
 20
0.6
 30
0.0
 11
-1.8980263158
 21
-0.65
 31
0.0
  0
LINE
  5
EF
330
1F
100
AcDbEntity
  8
0
  6
Continuous
 62
     7
370
    25
100
AcDbLine
 10
-2.8355263158
 20
0.6
 30
0.0
 11
-2.6875
 21
0.6
 31
0.0
  0
LINE
  5
F0
330
1F
100
AcDbEntity
  8
0
  6
Continuous
 62
     7
370
    25
100
AcDbLine
 10
-2.8355263158
 20
-0.65
 30
0.0
 11
-2.8355263158
 21
0.6
 31
0.0
  0
LINE
  5
F1
330
1F
100
AcDbEntity
  8
0
  6
Continuous
 62
     7
370
    25
100
AcDbLine
 10
-3.0
 20
-0.75
 30
0.0
 11
3.0
 21
-0.75
 31
0.0
  0
LINE
  5
F2
330
1F
100
AcDbEntity
  8
0
  6
Continuous
 62
     7
370
    25
100
AcDbLine
 10
-3.0
 20
0.75
 30
0.0
 11
-3.0
 21
-0.75
 31
0.0
  0
LINE
  5
F3
330
1F
100
AcDbEntity
  8
0
  6
Continuous
 62
     7
370
    25
100
AcDbLine
 10
3.0
 20
-0.75
 30
0.0
 11
3.0
 21
0.75
 31
0.0
  0
LINE
  5
F4
330
1F
100
AcDbEntity
  8
0
  6
Continuous
 62
     7
370
    25
100
AcDbLine
 10
3.0
 20
0.75
 30
0.0
 11
-3.0
 21
0.75
 31
0.0
  0
ENDSEC
  0
SECTION
  2
OBJECTS
  0
DICTIONARY
  5
C
330
0
100
AcDbDictionary
281
     1
  3
ACAD_GROUP
350
D
  3
ACAD_LAYOUT
350
1A
  3
ACAD_MLINESTYLE
350
17
  3
ACAD_PLOTSETTINGS
350
19
  3
ACAD_PLOTSTYLENAME
350
E
  3
ACAD_SCALELIST
350
47
  3
DWGPROPS
350
F5
  0
DICTIONARY
  5
D
102
{ACAD_REACTORS
330
C
102
}
330
C
100
AcDbDictionary
281
     1
  0
DICTIONARY
  5
1A
102
{ACAD_REACTORS
330
C
102
}
330
C
100
AcDbDictionary
281
     1
  3
Layout1
350
1E
  3
Layout2
350
26
  3
Model
350
22
  0
DICTIONARY
  5
17
102
{ACAD_REACTORS
330
C
102
}
330
C
100
AcDbDictionary
281
     1
  3
Standard
350
18
  0
DICTIONARY
  5
19
102
{ACAD_REACTORS
330
C
102
}
330
C
100
AcDbDictionary
281
     1
  0
ACDBDICTIONARYWDFLT
  5
E
102
{ACAD_REACTORS
330
C
102
}
330
C
100
AcDbDictionary
281
     1
  3
Normal
350
F
100
AcDbDictionaryWithDefault
340
F
  0
DICTIONARY
  5
47
102
{ACAD_REACTORS
330
C
102
}
330
C
100
AcDbDictionary
281
     1
  3
A0
350
48
  3
A1
350
49
  3
A2
350
4A
  3
A3
350
4B
  3
A4
350
4C
  3
A5
350
4D
  3
A6
350
4E
  3
A7
350
4F
  3
A8
350
50
  3
A9
350
51
  3
B0
350
52
  3
B1
350
53
  3
B2
350
54
  3
B3
350
55
  3
B4
350
56
  3
B5
350
57
  3
B6
350
58
  3
B7
350
59
  3
B8
350
5A
  3
B9
350
5B
  3
C0
350
5C
  3
C1
350
5D
  3
C2
350
5E
  3
C3
350
5F
  3
C4
350
60
  3
C5
350
61
  3
C6
350
62
  3
C7
350
63
  3
C8
350
64
  3
C9
350
65
  3
D0
350
66
  3
D1
350
67
  3
D2
350
68
  0
XRECORD
  5
F5
102
{ACAD_REACTORS
330
C
102
}
330
C
100
AcDbXrecord
280
     1
  1
DWGPROPS COOKIE
  2

  3

  4

  6

  7

  8
Achyuth
  9

300
=
301
=
302
=
303
=
304
=
305
=
306
=
307
=
308
=
309
=
 40
0.0
 41
2459912.655804143
 42
2459912.656127812
  1

 90
        0
  0
LAYOUT
  5
1E
102
{ACAD_REACTORS
330
1A
102
}
330
1A
100
AcDbPlotSettings
  1

  2
none_device
  4

  6

 40
0.0
 41
0.0
 42
0.0
 43
0.0
 44
0.0
 45
0.0
 46
0.0
 47
0.0
 48
0.0
 49
0.0
140
0.0
141
0.0
142
1.0
143
1.0
 70
   688
 72
     1
 73
     0
 74
     5
  7

 75
    16
147
1.0
148
0.0
149
0.0
100
AcDbLayout
  1
Layout1
 70
     1
 71
     1
 10
0.0
 20
0.0
 11
420.0
 21
297.0
 12
0.0
 22
0.0
 32
0.0
 14
1.0000000000E+20
 24
1.0000000000E+20
 34
1.0000000000E+20
 15
-1.0000000000E+20
 25
-1.0000000000E+20
 35
-1.0000000000E+20
146
0.0
 13
0.0
 23
0.0
 33
0.0
 16
1.0
 26
0.0
 36
0.0
 17
0.0
 27
1.0
 37
0.0
 76
     0
330
1B
  0
LAYOUT
  5
26
102
{ACAD_REACTORS
330
1A
102
}
330
1A
100
AcDbPlotSettings
  1

  2
none_device
  4

  6

 40
0.0
 41
0.0
 42
0.0
 43
0.0
 44
0.0
 45
0.0
 46
0.0
 47
0.0
 48
0.0
 49
0.0
140
0.0
141
0.0
142
1.0
143
1.0
 70
   688
 72
     1
 73
     0
 74
     5
  7

 75
    16
147
1.0
148
0.0
149
0.0
100
AcDbLayout
  1
Layout2
 70
     1
 71
     2
 10
0.0
 20
0.0
 11
0.0
 21
0.0
 12
0.0
 22
0.0
 32
0.0
 14
0.0
 24
0.0
 34
0.0
 15
0.0
 25
0.0
 35
0.0
146
0.0
 13
0.0
 23
0.0
 33
0.0
 16
1.0
 26
0.0
 36
0.0
 17
0.0
 27
1.0
 37
0.0
 76
     0
330
23
  0
LAYOUT
  5
22
102
{ACAD_REACTORS
330
1A
102
}
330
1A
100
AcDbPlotSettings
  1

  2
none_device
  4
ANSI_A_(11.00_x_8.50_Inches)
  6

 40
6.35
 41
19.05
 42
6.35000508
 43
19.05000254
 44
279.4
 45
215.9
 46
133.34999746
 47
88.89999873
 48
0.0
 49
0.0
140
0.0
141
0.0
142
1.815
143
1.0
 70
  1696
 72
     0
 73
     0
 74
     0
  7

 75
     0
147
0.0179189148
148
-1300.4909072572
149
0.0
100
AcDbLayout
  1
Model
 70
     1
 71
     0
 10
0.0
 20
0.0
 11
420.0
 21
297.0
 12
0.0
 22
0.0
 32
0.0
 14
-3.0
 24
-0.75
 34
0.0
 15
3.0
 25
0.75
 35
0.0
146
0.0
 13
0.0
 23
0.0
 33
0.0
 16
1.0
 26
0.0
 36
0.0
 17
0.0
 27
1.0
 37
0.0
 76
     0
330
1F
331
29
  0
MLINESTYLE
  5
18
102
{ACAD_REACTORS
330
17
102
}
330
17
100
AcDbMlineStyle
  2
Standard
 70
     0
  3

 62
   256
 51
90.0
 52
90.0
 71
     2
 49
0.5
 62
   256
  6
BYLAYER
 49
-0.5
 62
   256
  6
BYLAYER
  0
ACDBPLACEHOLDER
  5
F
102
{ACAD_REACTORS
330
E
102
}
330
E
  0
SCALE
  5
48
102
{ACAD_REACTORS
330
47
102
}
330
47
100
AcDbScale
 70
     0
300
1:1
140
1.0
141
1.0
290
     1
  0
SCALE
  5
49
102
{ACAD_REACTORS
330
47
102
}
330
47
100
AcDbScale
 70
     0
300
1:2
140
1.0
141
2.0
290
     0
  0
SCALE
  5
4A
102
{ACAD_REACTORS
330
47
102
}
330
47
100
AcDbScale
 70
     0
300
1:4
140
1.0
141
4.0
290
     0
  0
SCALE
  5
4B
102
{ACAD_REACTORS
330
47
102
}
330
47
100
AcDbScale
 70
     0
300
1:5
140
1.0
141
5.0
290
     0
  0
SCALE
  5
4C
102
{ACAD_REACTORS
330
47
102
}
330
47
100
AcDbScale
 70
     0
300
1:8
140
1.0
141
8.0
290
     0
  0
SCALE
  5
4D
102
{ACAD_REACTORS
330
47
102
}
330
47
100
AcDbScale
 70
     0
300
1:10
140
1.0
141
10.0
290
     0
  0
SCALE
  5
4E
102
{ACAD_REACTORS
330
47
102
}
330
47
100
AcDbScale
 70
     0
300
1:16
140
1.0
141
16.0
290
     0
  0
SCALE
  5
4F
102
{ACAD_REACTORS
330
47
102
}
330
47
100
AcDbScale
 70
     0
300
1:20
140
1.0
141
20.0
290
     0
  0
SCALE
  5
50
102
{ACAD_REACTORS
330
47
102
}
330
47
100
AcDbScale
 70
     0
300
1:30
140
1.0
141
30.0
290
     0
  0
SCALE
  5
51
102
{ACAD_REACTORS
330
47
102
}
330
47
100
AcDbScale
 70
     0
300
1:40
140
1.0
141
40.0
290
     0
  0
SCALE
  5
52
102
{ACAD_REACTORS
330
47
102
}
330
47
100
AcDbScale
 70
     0
300
1:50
140
1.0
141
50.0
290
     0
  0
SCALE
  5
53
102
{ACAD_REACTORS
330
47
102
}
330
47
100
AcDbScale
 70
     0
300
1:100
140
1.0
141
100.0
290
     0
  0
SCALE
  5
54
102
{ACAD_REACTORS
330
47
102
}
330
47
100
AcDbScale
 70
     0
300
2:1
140
2.0
141
1.0
290
     0
  0
SCALE
  5
55
102
{ACAD_REACTORS
330
47
102
}
330
47
100
AcDbScale
 70
     0
300
4:1
140
4.0
141
1.0
290
     0
  0
SCALE
  5
56
102
{ACAD_REACTORS
330
47
102
}
330
47
100
AcDbScale
 70
     0
300
8:1
140
8.0
141
1.0
290
     0
  0
SCALE
  5
57
102
{ACAD_REACTORS
330
47
102
}
330
47
100
AcDbScale
 70
     0
300
10:1
140
10.0
141
1.0
290
     0
  0
SCALE
  5
58
102
{ACAD_REACTORS
330
47
102
}
330
47
100
AcDbScale
 70
     0
300
100:1
140
100.0
141
1.0
290
     0
  0
SCALE
  5
59
102
{ACAD_REACTORS
330
47
102
}
330
47
100
AcDbScale
 70
     0
300
1/128" = 1'-0"
140
0.0078125
141
12.0
290
     0
  0
SCALE
  5
5A
102
{ACAD_REACTORS
330
47
102
}
330
47
100
AcDbScale
 70
     0
300
1/64" = 1'-0"
140
0.015625
141
12.0
290
     0
  0
SCALE
  5
5B
102
{ACAD_REACTORS
330
47
102
}
330
47
100
AcDbScale
 70
     0
300
1/32" = 1'-0"
140
0.03125
141
12.0
290
     0
  0
SCALE
  5
5C
102
{ACAD_REACTORS
330
47
102
}
330
47
100
AcDbScale
 70
     0
300
1/16" = 1'-0"
140
0.0625
141
12.0
290
     0
  0
SCALE
  5
5D
102
{ACAD_REACTORS
330
47
102
}
330
47
100
AcDbScale
 70
     0
300
3/32" = 1'-0"
140
0.09375
141
12.0
290
     0
  0
SCALE
  5
5E
102
{ACAD_REACTORS
330
47
102
}
330
47
100
AcDbScale
 70
     0
300
1/8" = 1'-0"
140
0.125
141
12.0
290
     0
  0
SCALE
  5
5F
102
{ACAD_REACTORS
330
47
102
}
330
47
100
AcDbScale
 70
     0
300
3/16" = 1'-0"
140
0.1875
141
12.0
290
     0
  0
SCALE
  5
60
102
{ACAD_REACTORS
330
47
102
}
330
47
100
AcDbScale
 70
     0
300
1/4" = 1'-0"
140
0.25
141
12.0
290
     0
  0
SCALE
  5
61
102
{ACAD_REACTORS
330
47
102
}
330
47
100
AcDbScale
 70
     0
300
3/8" = 1'-0"
140
0.375
141
12.0
290
     0
  0
SCALE
  5
62
102
{ACAD_REACTORS
330
47
102
}
330
47
100
AcDbScale
 70
     0
300
1/2" = 1'-0"
140
0.5
141
12.0
290
     0
  0
SCALE
  5
63
102
{ACAD_REACTORS
330
47
102
}
330
47
100
AcDbScale
 70
     0
300
3/4" = 1'-0"
140
0.75
141
12.0
290
     0
  0
SCALE
  5
64
102
{ACAD_REACTORS
330
47
102
}
330
47
100
AcDbScale
 70
     0
300
1" = 1'-0"
140
1.0
141
12.0
290
     0
  0
SCALE
  5
65
102
{ACAD_REACTORS
330
47
102
}
330
47
100
AcDbScale
 70
     0
300
1-1/2" = 1'-0"
140
1.5
141
12.0
290
     0
  0
SCALE
  5
66
102
{ACAD_REACTORS
330
47
102
}
330
47
100
AcDbScale
 70
     0
300
3" = 1'-0"
140
3.0
141
12.0
290
     0
  0
SCALE
  5
67
102
{ACAD_REACTORS
330
47
102
}
330
47
100
AcDbScale
 70
     0
300
6" = 1'-0"
140
6.0
141
12.0
290
     0
  0
SCALE
  5
68
102
{ACAD_REACTORS
330
47
102
}
330
47
100
AcDbScale
 70
     0
300
1'-0" = 1'-0"
140
12.0
141
12.0
290
     0
  0
ENDSEC
  0
EOF
