  0
SECTION
  2
HEADER
  9
$ACADVER
  1
AC1015
  9
$ACADMAINTVER
 70
     6
  9
$DWGCODEPAGE
  3
ANSI_1252
  9
$INSBASE
 10
0.0
 20
0.0
 30
0.0
  9
$EXTMIN
 10
-29.1754773219
 20
-33.3592679732
 30
0.0
  9
$EXTMAX
 10
25.804436288
 20
-8.3592679732
 30
0.0
  9
$LIMMIN
 10
0.0
 20
0.0
  9
$LIMMAX
 10
420.0
 20
297.0
  9
$ORTHOMODE
 70
     0
  9
$REGENMODE
 70
     1
  9
$FILLMODE
 70
     1
  9
$QTEXTMODE
 70
     0
  9
$MIRRTEXT
 70
     1
  9
$LTSCALE
 40
1.0
  9
$ATTMODE
 70
     1
  9
$TEXTSIZE
 40
0.3175
  9
$TRACEWID
 40
1.0
  9
$TEXTSTYLE
  7
Standard
  9
$CLAYER
  8
0
  9
$CELTYPE
  6
ByLayer
  9
$CECOLOR
 62
   256
  9
$CELTSCALE
 40
1.0
  9
$DISPSILH
 70
     0
  9
$DIMSCALE
 40
1.0
  9
$DIMASZ
 40
0.3302
  9
$DIMEXO
 40
0.0
  9
$DIMDLI
 40
3.75
  9
$DIMRND
 40
0.0
  9
$DIMDLE
 40
0.0
  9
$DIMEXE
 40
0.3175
  9
$DIMTP
 40
0.0
  9
$DIMTM
 40
0.0
  9
$DIMTXT
 40
0.3175
  9
$DIMCEN
 40
2.5
  9
$DIMTSZ
 40
0.0
  9
$DIMTOL
 70
     0
  9
$DIMLIM
 70
     0
  9
$DIMTIH
 70
     1
  9
$DIMTOH
 70
     1
  9
$DIMSE1
 70
     0
  9
$DIMSE2
 70
     0
  9
$DIMTAD
 70
     0
  9
$DIMZIN
 70
     1
  9
$DIMBLK
  1

  9
$DIMASO
 70
     1
  9
$DIMSHO
 70
     1
  9
$DIMPOST
  1

  9
$DIMAPOST
  1

  9
$DIMALT
 70
     0
  9
$DIMALTD
 70
     3
  9
$DIMALTF
 40
0.3937007874
  9
$DIMLFAC
 40
1.0
  9
$DIMTOFL
 70
     1
  9
$DIMTVP
 40
0.0
  9
$DIMTIX
 70
     0
  9
$DIMSOXD
 70
     0
  9
$DIMSAH
 70
     0
  9
$DIMBLK1
  1

  9
$DIMBLK2
  1

  9
$DIMSTYLE
  2
ISO-25
  9
$DIMCLRD
 70
     0
  9
$DIMCLRE
 70
     0
  9
$DIMCLRT
 70
     0
  9
$DIMTFAC
 40
1.0
  9
$DIMGAP
 40
0.1524
  9
$DIMJUST
 70
     0
  9
$DIMSD1
 70
     0
  9
$DIMSD2
 70
     0
  9
$DIMTOLJ
 70
     0
  9
$DIMTZIN
 70
     1
  9
$DIMALTZ
 70
     0
  9
$DIMALTTZ
 70
     0
  9
$DIMUPT
 70
     0
  9
$DIMDEC
 70
     2
  9
$DIMTDEC
 70
     2
  9
$DIMALTU
 70
     2
  9
$DIMALTTD
 70
     3
  9
$DIMTXSTY
  7
Standard
  9
$DIMAUNIT
 70
     0
  9
$DIMADEC
 70
     2
  9
$DIMALTRND
 40
0.0
  9
$DIMAZIN
 70
     0
  9
$DIMDSEP
 70
    44
  9
$DIMATFIT
 70
     3
  9
$DIMFRAC
 70
     0
  9
$DIMLDRBLK
  1

  9
$DIMLUNIT
 70
     2
  9
$DIMLWD
 70
    -2
  9
$DIMLWE
 70
    -2
  9
$DIMTMOVE
 70
     0
  9
$LUNITS
 70
     2
  9
$LUPREC
 70
     2
  9
$SKETCHINC
 40
1.0
  9
$FILLETRAD
 40
10.0
  9
$AUNITS
 70
     0
  9
$AUPREC
 70
     2
  9
$MENU
  1
.
  9
$ELEVATION
 40
0.0
  9
$PELEVATION
 40
0.0
  9
$THICKNESS
 40
0.0
  9
$LIMCHECK
 70
     0
  9
$CHAMFERA
 40
0.0
  9
$CHAMFERB
 40
0.0
  9
$CHAMFERC
 40
0.0
  9
$CHAMFERD
 40
0.0
  9
$SKPOLY
 70
     0
  9
$TDCREATE
 40
2459912.630067812
  9
$TDUCREATE
 40
2459912.630067812
  9
$TDUPDATE
 40
2459912.630125255
  9
$TDUUPDATE
 40
2459912.630125255
  9
$TDINDWG
 40
0.0000000116
  9
$TDUSRTIMER
 40
0.0000000116
  9
$USRTIMER
 70
     1
  9
$ANGBASE
 50
0.0
  9
$ANGDIR
 70
     0
  9
$PDMODE
 70
     0
  9
$PDSIZE
 40
-1.0
  9
$PLINEWID
 40
0.0
  9
$SPLFRAME
 70
     0
  9
$SPLINETYPE
 70
     6
  9
$SPLINESEGS
 70
     8
  9
$HANDSEED
  5
6D4
  9
$SURFTAB1
 70
     6
  9
$SURFTAB2
 70
     6
  9
$SURFTYPE
 70
     6
  9
$SURFU
 70
     6
  9
$SURFV
 70
     6
  9
$UCSBASE
  2

  9
$UCSNAME
  2

  9
$UCSORG
 10
0.0
 20
0.0
 30
0.0
  9
$UCSXDIR
 10
1.0
 20
0.0
 30
0.0
  9
$UCSYDIR
 10
0.0
 20
1.0
 30
0.0
  9
$UCSORTHOREF
  2

  9
$UCSORTHOVIEW
 70
     0
  9
$UCSORGTOP
 10
0.0
 20
0.0
 30
0.0
  9
$UCSORGBOTTOM
 10
0.0
 20
0.0
 30
0.0
  9
$UCSORGLEFT
 10
0.0
 20
0.0
 30
0.0
  9
$UCSORGRIGHT
 10
0.0
 20
0.0
 30
0.0
  9
$UCSORGFRONT
 10
0.0
 20
0.0
 30
0.0
  9
$UCSORGBACK
 10
0.0
 20
0.0
 30
0.0
  9
$PUCSBASE
  2

  9
$PUCSNAME
  2

  9
$PUCSORG
 10
0.0
 20
0.0
 30
0.0
  9
$PUCSXDIR
 10
1.0
 20
0.0
 30
0.0
  9
$PUCSYDIR
 10
0.0
 20
1.0
 30
0.0
  9
$PUCSORTHOREF
  2

  9
$PUCSORTHOVIEW
 70
     0
  9
$PUCSORGTOP
 10
0.0
 20
0.0
 30
0.0
  9
$PUCSORGBOTTOM
 10
0.0
 20
0.0
 30
0.0
  9
$PUCSORGLEFT
 10
0.0
 20
0.0
 30
0.0
  9
$PUCSORGRIGHT
 10
0.0
 20
0.0
 30
0.0
  9
$PUCSORGFRONT
 10
0.0
 20
0.0
 30
0.0
  9
$PUCSORGBACK
 10
0.0
 20
0.0
 30
0.0
  9
$USERI1
 70
     0
  9
$USERI2
 70
     0
  9
$USERI3
 70
     0
  9
$USERI4
 70
     0
  9
$USERI5
 70
     0
  9
$USERR1
 40
0.0
  9
$USERR2
 40
0.0
  9
$USERR3
 40
0.0
  9
$USERR4
 40
0.0
  9
$USERR5
 40
0.0
  9
$WORLDVIEW
 70
     1
  9
$SHADEDGE
 70
     3
  9
$SHADEDIF
 70
    70
  9
$TILEMODE
 70
     1
  9
$MAXACTVP
 70
    64
  9
$PINSBASE
 10
0.0
 20
0.0
 30
0.0
  9
$PLIMCHECK
 70
     0
  9
$PEXTMIN
 10
1.0000000000E+20
 20
1.0000000000E+20
 30
1.0000000000E+20
  9
$PEXTMAX
 10
-1.0000000000E+20
 20
-1.0000000000E+20
 30
-1.0000000000E+20
  9
$PLIMMIN
 10
0.0
 20
0.0
  9
$PLIMMAX
 10
420.0
 20
297.0
  9
$UNITMODE
 70
     0
  9
$VISRETAIN
 70
     1
  9
$PLINEGEN
 70
     0
  9
$PSLTSCALE
 70
     1
  9
$TREEDEPTH
 70
  3020
  9
$CMLSTYLE
  2
Standard
  9
$CMLJUST
 70
     0
  9
$CMLSCALE
 40
20.0
  9
$PROXYGRAPHICS
 70
     1
  9
$MEASUREMENT
 70
     1
  9
$CELWEIGHT
370
    -1
  9
$ENDCAPS
280
     0
  9
$JOINSTYLE
280
     0
  9
$LWDISPLAY
290
     1
  9
$INSUNITS
 70
     4
  9
$HYPERLINKBASE
  1

  9
$STYLESHEET
  1

  9
$XEDIT
290
     1
  9
$CEPSNTYPE
380
     0
  9
$PSTYLEMODE
290
     1
  9
$FINGERPRINTGUID
  2
{7357fd68-df04-422f-a4e6-4e90f24f45e8}
  9
$VERSIONGUID
  2
{FAEB1C32-E019-11D5-929B-00C0DF256EC4}
  9
$EXTNAMES
290
     1
  9
$PSVPSCALE
 40
0.0
  9
$OLESTARTUP
290
     0
  0
ENDSEC
  0
SECTION
  2
CLASSES
  0
CLASS
  1
ACDBDICTIONARYWDFLT
  2
AcDbDictionaryWithDefault
  3
ObjectDBX Classes
 90
        0
280
     0
281
     0
  0
CLASS
  1
VISUALSTYLE
  2
AcDbVisualStyle
  3
ObjectDBX Classes
 90
     4095
280
     0
281
     0
  0
CLASS
  1
MATERIAL
  2
AcDbMaterial
  3
ObjectDBX Classes
 90
     1153
280
     0
281
     0
  0
CLASS
  1
SCALE
  2
AcDbScale
  3
ObjectDBX Classes
 90
     1153
280
     0
281
     0
  0
CLASS
  1
TABLESTYLE
  2
AcDbTableStyle
  3
ObjectDBX Classes
 90
     4095
280
     0
281
     0
  0
CLASS
  1
MLEADERSTYLE
  2
AcDbMLeaderStyle
  3
ACDB_MLEADERSTYLE_CLASS
 90
     4095
280
     0
281
     0
  0
CLASS
  1
SUN
  2
AcDbSun
  3
SCENEOE
 90
     1153
280
     0
281
     0
  0
CLASS
  1
ACDBPLACEHOLDER
  2
AcDbPlaceHolder
  3
ObjectDBX Classes
 90
        0
280
     0
281
     0
  0
CLASS
  1
LAYOUT
  2
AcDbLayout
  3
ObjectDBX Classes
 90
        0
280
     0
281
     0
  0
ENDSEC
  0
SECTION
  2
TABLES
  0
TABLE
  2
VPORT
  5
8
330
0
100
AcDbSymbolTable
 70
     1
  0
VPORT
  5
29
330
8
100
AcDbSymbolTableRecord
100
AcDbViewportTableRecord
  2
*Active
 70
     0
 10
0.0
 20
0.0
 11
1.0
 21
1.0
 12
-1.685520517
 22
-20.8592679732
 13
0.0
 23
0.0
 14
10.0
 24
10.0
 15
10.0
 25
10.0
 16
0.0
 26
0.0
 36
1.0
 17
0.0
 27
0.0
 37
0.0
 40
25.5
 41
2.1991965444
 42
50.0
 43
0.0
 44
0.0
 50
0.0
 51
0.0
 71
     0
 72
   100
 73
     1
 74
     3
 75
     0
 76
     0
 77
     0
 78
     0
281
     0
 65
     1
110
0.0
120
0.0
130
0.0
111
1.0
121
0.0
131
0.0
112
0.0
122
1.0
132
0.0
 79
     0
146
0.0
  0
ENDTAB
  0
TABLE
  2
LTYPE
  5
5
330
0
100
AcDbSymbolTable
 70
     6
  0
LTYPE
  5
14
330
5
100
AcDbSymbolTableRecord
100
AcDbLinetypeTableRecord
  2
ByBlock
 70
     0
  3

 72
    65
 73
     0
 40
0.0
  0
LTYPE
  5
15
330
5
100
AcDbSymbolTableRecord
100
AcDbLinetypeTableRecord
  2
ByLayer
 70
     0
  3

 72
    65
 73
     0
 40
0.0
  0
LTYPE
  5
16
330
5
100
AcDbSymbolTableRecord
100
AcDbLinetypeTableRecord
  2
Continuous
 70
     0
  3
Solid line
 72
    65
 73
     0
 40
0.0
  0
LTYPE
  5
6E
330
5
100
AcDbSymbolTableRecord
100
AcDbLinetypeTableRecord
  2
HIDDEN
 70
     0
  3
Hidden __ __ __ __ __ __ __ __ __ __ __ __ __ __
 72
    65
 73
     2
 40
0.1905
 49
0.127
 74
     0
 49
-0.0635
 74
     0
  0
LTYPE
  5
6F
330
5
100
AcDbSymbolTableRecord
100
AcDbLinetypeTableRecord
  2
PHANTOM
 70
     0
  3
Phantom ______  __  __  ______  __  __  ______
 72
    65
 73
     6
 40
1.27
 49
0.635
 74
     0
 49
-0.127
 74
     0
 49
0.127
 74
     0
 49
-0.127
 74
     0
 49
0.127
 74
     0
 49
-0.127
 74
     0
  0
LTYPE
  5
70
330
5
100
AcDbSymbolTableRecord
100
AcDbLinetypeTableRecord
  2
CENTER
 70
     0
  3
Center ____ _ ____ _ ____ _ ____ _ ____ _ ____
 72
    65
 73
     4
 40
1.016
 49
0.635
 74
     0
 49
-0.127
 74
     0
 49
0.127
 74
     0
 49
-0.127
 74
     0
  0
LTYPE
  5
71
330
5
100
AcDbSymbolTableRecord
100
AcDbLinetypeTableRecord
  2
CENTERX2
 70
     0
  3
Center (2x) ________  __  ________  __  _____
 72
    65
 73
     4
 40
2.032
 49
1.27
 74
     0
 49
-0.254
 74
     0
 49
0.254
 74
     0
 49
-0.254
 74
     0
  0
LTYPE
  5
72
330
5
100
AcDbSymbolTableRecord
100
AcDbLinetypeTableRecord
  2
DOT2
 70
     0
  3
Dot (.5x) ........................................
 72
    65
 73
     2
 40
0.0635
 49
0.0
 74
     0
 49
-0.0635
 74
     0
  0
ENDTAB
  0
TABLE
  2
LAYER
  5
2
330
0
100
AcDbSymbolTable
 70
     1
  0
LAYER
  5
10
330
2
100
AcDbSymbolTableRecord
100
AcDbLayerTableRecord
  2
0
 70
     0
 62
     7
  6
Continuous
370
    -3
390
F
  0
ENDTAB
  0
TABLE
  2
STYLE
  5
3
330
0
100
AcDbSymbolTable
 70
     1
  0
STYLE
  5
11
330
3
100
AcDbSymbolTableRecord
100
AcDbTextStyleTableRecord
  2
Standard
 70
     0
 40
0.0
 41
1.0
 50
0.0
 71
     0
 42
0.3175
  3
txt
  4

  0
ENDTAB
  0
TABLE
  2
VIEW
  5
6
330
0
100
AcDbSymbolTable
 70
     0
  0
ENDTAB
  0
TABLE
  2
UCS
  5
7
330
0
100
AcDbSymbolTable
 70
     0
  0
ENDTAB
  0
TABLE
  2
APPID
  5
9
330
0
100
AcDbSymbolTable
 70
     1
  0
APPID
  5
12
330
9
100
AcDbSymbolTableRecord
100
AcDbRegAppTableRecord
  2
ACAD
 70
     0
  0
ENDTAB
  0
TABLE
  2
DIMSTYLE
  5
A
330
0
100
AcDbSymbolTable
 70
     1
100
AcDbDimStyleTable
  0
DIMSTYLE
105
27
330
A
100
AcDbSymbolTableRecord
100
AcDbDimStyleTableRecord
  2
ISO-25
 70
     0
 41
2.5
 42
0.625
 43
3.75
 44
1.25
 73
     0
 74
     0
 77
     1
 78
     8
140
2.5
141
2.5
143
0.0393700787
147
0.625
171
     3
172
     1
178
     0
271
     2
272
     2
274
     3
278
    44
283
     0
284
     8
340
11
  0
ENDTAB
  0
TABLE
  2
BLOCK_RECORD
  5
1
330
0
100
AcDbSymbolTable
 70
     1
  0
BLOCK_RECORD
  5
1F
330
1
100
AcDbSymbolTableRecord
100
AcDbBlockTableRecord
  2
*Model_Space
340
22
  0
BLOCK_RECORD
  5
1B
330
1
100
AcDbSymbolTableRecord
100
AcDbBlockTableRecord
  2
*Paper_Space
340
1E
  0
BLOCK_RECORD
  5
23
330
1
100
AcDbSymbolTableRecord
100
AcDbBlockTableRecord
  2
*Paper_Space0
340
26
  0
ENDTAB
  0
ENDSEC
  0
SECTION
  2
BLOCKS
  0
BLOCK
  5
20
330
1F
100
AcDbEntity
  8
0
100
AcDbBlockBegin
  2
*Model_Space
 70
     0
 10
0.0
 20
0.0
 30
0.0
  3
*Model_Space
  1

  0
ENDBLK
  5
21
330
1F
100
AcDbEntity
  8
0
100
AcDbBlockEnd
  0
BLOCK
  5
1C
330
1B
100
AcDbEntity
 67
     1
  8
0
100
AcDbBlockBegin
  2
*Paper_Space
 70
     0
 10
0.0
 20
0.0
 30
0.0
  3
*Paper_Space
  1

  0
ENDBLK
  5
1D
330
1B
100
AcDbEntity
 67
     1
  8
0
100
AcDbBlockEnd
  0
BLOCK
  5
24
330
23
100
AcDbEntity
  8
0
100
AcDbBlockBegin
  2
*Paper_Space0
 70
     0
 10
0.0
 20
0.0
 30
0.0
  3
*Paper_Space0
  1

  0
ENDBLK
  5
25
330
23
100
AcDbEntity
  8
0
100
AcDbBlockEnd
  0
ENDSEC
  0
SECTION
  2
ENTITIES
  0
CIRCLE
  5
88
330
1F
100
AcDbEntity
  8
0
  6
Continuous
 62
     7
370
    25
100
AcDbCircle
 10
23.8445106684
 20
-26.4211455211
 30
0.0
 40
0.1500000000000021
  0
CIRCLE
  5
89
330
1F
100
AcDbEntity
  8
0
  6
Continuous
 62
     7
370
    25
100
AcDbCircle
 10
22.3445106684
 20
-26.4211455211
 30
0.0
 40
0.1500000000000021
  0
CIRCLE
  5
8A
330
1F
100
AcDbEntity
  8
0
  6
Continuous
 62
     7
370
    25
100
AcDbCircle
 10
21.5945106684
 20
-31.5911455211
 30
0.0
 40
0.1500000000000021
  0
CIRCLE
  5
8B
330
1F
100
AcDbEntity
  8
0
  6
Continuous
 62
     7
370
    25
100
AcDbCircle
 10
19.5945106684
 20
-31.5911455211
 30
0.0
 40
0.1500000000000092
  0
CIRCLE
  5
8C
330
1F
100
AcDbEntity
  8
0
  6
Continuous
 62
     7
370
    25
100
AcDbCircle
 10
23.5945106684
 20
-27.7411455211
 30
0.0
 40
0.1500000000000021
  0
CIRCLE
  5
8D
330
1F
100
AcDbEntity
  8
0
  6
Continuous
 62
     7
370
    25
100
AcDbCircle
 10
21.5945106684
 20
-27.7411455211
 30
0.0
 40
0.1500000000000057
  0
CIRCLE
  5
8E
330
1F
100
AcDbEntity
  8
0
  6
Continuous
 62
     7
370
    25
100
AcDbCircle
 10
17.5945106684
 20
-27.7411455211
 30
0.0
 40
0.1500000000000057
  0
CIRCLE
  5
8F
330
1F
100
AcDbEntity
  8
0
  6
Continuous
 62
     7
370
    25
100
AcDbCircle
 10
17.5945106684
 20
-31.5911455211
 30
0.0
 40
0.1500000000000057
  0
CIRCLE
  5
90
330
1F
100
AcDbEntity
  8
0
  6
Continuous
 62
     7
370
    25
100
AcDbCircle
 10
19.5945106684
 20
-27.7411455211
 30
0.0
 40
0.1499999999999986
  0
CIRCLE
  5
91
330
1F
100
AcDbEntity
  8
0
  6
Continuous
 62
     7
370
    25
100
AcDbCircle
 10
23.5945106684
 20
-31.5911455211
 30
0.0
 40
0.1499999999999986
  0
CIRCLE
  5
92
330
1F
100
AcDbEntity
  8
0
  6
Continuous
 62
     7
370
    25
100
AcDbCircle
 10
24.8333047427
 20
-9.9857591804
 30
0.0
 40
0.1500000000000001
  0
CIRCLE
  5
A1
330
1F
100
AcDbEntity
  8
0
  6
Continuous
 62
     7
370
    25
100
AcDbCircle
 10
23.0382576516
 20
-17.0594785656
 30
0.0
 40
0.1499999999999997
  0
CIRCLE
  5
A2
330
1F
100
AcDbEntity
  8
0
  6
Continuous
 62
     7
370
    25
100
AcDbCircle
 10
22.8392502135
 20
-15.0694041851
 30
0.0
 40
0.1500000000000022
  0
CIRCLE
  5
A3
330
1F
100
AcDbEntity
  8
0
  6
Continuous
 62
     7
370
    25
100
AcDbCircle
 10
22.4412353374
 20
-11.0892554243
 30
0.0
 40
0.1499999999999994
  0
CIRCLE
  5
A4
330
1F
100
AcDbEntity
  8
0
  6
Continuous
 62
     7
370
    25
100
AcDbCircle
 10
22.6402427755
 20
-13.0793298047
 30
0.0
 40
0.1500000000000022
  0
CIRCLE
  5
A5
330
1F
100
AcDbEntity
  8
0
  6
Continuous
 62
     7
370
    25
100
AcDbCircle
 10
24.013394098
 20
-16.9619649209
 30
0.0
 40
0.1500000000000032
  0
CIRCLE
  5
A6
330
1F
100
AcDbEntity
  8
0
  6
Continuous
 62
     7
370
    25
100
AcDbCircle
 10
23.4163717838
 20
-10.9917417797
 30
0.0
 40
0.1499999999999997
  0
CIRCLE
  5
A7
330
1F
100
AcDbEntity
  8
0
  6
Continuous
 62
     7
370
    25
100
AcDbCircle
 10
23.6153792219
 20
-12.9818161601
 30
0.0
 40
0.1500000000000022
  0
CIRCLE
  5
A8
330
1F
100
AcDbEntity
  8
0
  6
Continuous
 62
     7
370
    25
100
AcDbCircle
 10
23.8143866599
 20
-14.9718905405
 30
0.0
 40
0.1500000000000032
  0
CIRCLE
  5
A9
330
1F
100
AcDbEntity
  8
0
  6
Continuous
 62
     7
370
    25
100
AcDbCircle
 10
20.8531559819
 20
-10.3837740564
 30
0.0
 40
0.1499999999999983
  0
CIRCLE
  5
AA
330
1F
100
AcDbEntity
  8
0
  6
Continuous
 62
     7
370
    25
100
AcDbCircle
 10
23.804436288
 20
-19.7968258758
 30
0.0
 40
0.7250000000000109
  0
CIRCLE
  5
AB
330
1F
100
AcDbEntity
  8
0
  6
Continuous
 62
     7
370
    25
100
AcDbCircle
 10
24.5801525811
 20
-18.8487281843
 30
0.0
 40
0.0500000000000047
  0
CIRCLE
  5
AC
330
1F
100
AcDbEntity
  8
0
  6
Continuous
 62
     7
370
    25
100
AcDbCircle
 10
23.6825442322
 20
-18.5779053178
 30
0.0
 40
0.049999999999998
  0
CIRCLE
  5
AD
330
1F
100
AcDbEntity
  8
0
  6
Continuous
 62
     7
370
    25
100
AcDbCircle
 10
22.8563385965
 20
-19.0211095828
 30
0.0
 40
0.0500000000000012
  0
CIRCLE
  5
AE
330
1F
100
AcDbEntity
  8
0
  6
Continuous
 62
     7
370
    25
100
AcDbCircle
 10
22.58551573
 20
-19.9187179316
 30
0.0
 40
0.0500000000000047
  0
CIRCLE
  5
AF
330
1F
100
AcDbEntity
  8
0
  6
Continuous
 62
     7
370
    25
100
AcDbCircle
 10
23.028719995
 20
-20.7449235673
 30
0.0
 40
0.0499999999999977
  0
CIRCLE
  5
B0
330
1F
100
AcDbEntity
  8
0
  6
Continuous
 62
     7
370
    25
100
AcDbCircle
 10
23.9263283438
 20
-21.0157464338
 30
0.0
 40
0.0500000000000086
  0
CIRCLE
  5
B1
330
1F
100
AcDbEntity
  8
0
  6
Continuous
 62
     7
370
    25
100
AcDbCircle
 10
24.7525339795
 20
-20.5725421689
 30
0.0
 40
0.0500000000000044
  0
CIRCLE
  5
B2
330
1F
100
AcDbEntity
  8
0
  6
Continuous
 62
     7
370
    25
100
AcDbCircle
 10
25.023356846
 20
-19.67493382
 30
0.0
 40
0.0499999999999977
  0
CIRCLE
  5
B3
330
1F
100
AcDbEntity
  8
0
  6
Continuous
 62
     7
370
    25
100
AcDbCircle
 10
16.5057165942
 20
-20.535788479
 30
0.0
 40
0.1500000000000004
  0
CIRCLE
  5
C2
330
1F
100
AcDbEntity
  8
0
  6
Continuous
 62
     7
370
    25
100
AcDbCircle
 10
18.3007636853
 20
-13.4620690938
 30
0.0
 40
0.1500000000000001
  0
CIRCLE
  5
C3
330
1F
100
AcDbEntity
  8
0
  6
Continuous
 62
     7
370
    25
100
AcDbCircle
 10
18.4997711234
 20
-15.4521434742
 30
0.0
 40
0.1500000000000001
  0
CIRCLE
  5
C4
330
1F
100
AcDbEntity
  8
0
  6
Continuous
 62
     7
370
    25
100
AcDbCircle
 10
18.8977859994
 20
-19.432292235
 30
0.0
 40
0.149999999999999
  0
CIRCLE
  5
C5
330
1F
100
AcDbEntity
  8
0
  6
Continuous
 62
     7
370
    25
100
AcDbCircle
 10
18.6987785614
 20
-17.4422178546
 30
0.0
 40
0.1499999999999997
  0
CIRCLE
  5
C6
330
1F
100
AcDbEntity
  8
0
  6
Continuous
 62
     7
370
    25
100
AcDbCircle
 10
17.3256272389
 20
-13.5595827384
 30
0.0
 40
0.1499999999999976
  0
CIRCLE
  5
C7
330
1F
100
AcDbEntity
  8
0
  6
Continuous
 62
     7
370
    25
100
AcDbCircle
 10
17.922649553
 20
-19.5298058797
 30
0.0
 40
0.1500000000000001
  0
CIRCLE
  5
C8
330
1F
100
AcDbEntity
  8
0
  6
Continuous
 62
     7
370
    25
100
AcDbCircle
 10
17.723642115
 20
-17.5397314992
 30
0.0
 40
0.1500000000000036
  0
CIRCLE
  5
C9
330
1F
100
AcDbEntity
  8
0
  6
Continuous
 62
     7
370
    25
100
AcDbCircle
 10
17.524634677
 20
-15.5496571188
 30
0.0
 40
0.1499999999999979
  0
CIRCLE
  5
CA
330
1F
100
AcDbEntity
  8
0
  6
Continuous
 62
     7
370
    25
100
AcDbCircle
 10
20.485865355
 20
-20.1377736029
 30
0.0
 40
0.1499999999999994
  0
CIRCLE
  5
CB
330
1F
100
AcDbEntity
  8
0
  6
Continuous
 62
     7
370
    25
100
AcDbCircle
 10
17.5345850489
 20
-10.7247217835
 30
0.0
 40
0.725000000000001
  0
CIRCLE
  5
CC
330
1F
100
AcDbEntity
  8
0
  6
Continuous
 62
     7
370
    25
100
AcDbCircle
 10
16.7588687558
 20
-11.672819475
 30
0.0
 40
0.0500000000000026
  0
CIRCLE
  5
CD
330
1F
100
AcDbEntity
  8
0
  6
Continuous
 62
     7
370
    25
100
AcDbCircle
 10
17.6564771047
 20
-11.9436423415
 30
0.0
 40
0.0499999999999966
  0
CIRCLE
  5
CE
330
1F
100
AcDbEntity
  8
0
  6
Continuous
 62
     7
370
    25
100
AcDbCircle
 10
18.4826827404
 20
-11.5004380766
 30
0.0
 40
0.0499999999999948
  0
CIRCLE
  5
CF
330
1F
100
AcDbEntity
  8
0
  6
Continuous
 62
     7
370
    25
100
AcDbCircle
 10
18.7535056069
 20
-10.6028297277
 30
0.0
 40
0.049999999999998
  0
CIRCLE
  5
D0
330
1F
100
AcDbEntity
  8
0
  6
Continuous
 62
     7
370
    25
100
AcDbCircle
 10
18.3103013419
 20
-9.776624092
 30
0.0
 40
0.0499999999999945
  0
CIRCLE
  5
D1
330
1F
100
AcDbEntity
  8
0
  6
Continuous
 62
     7
370
    25
100
AcDbCircle
 10
17.4126929931
 20
-9.5058012255
 30
0.0
 40
0.0500000000000069
  0
CIRCLE
  5
D2
330
1F
100
AcDbEntity
  8
0
  6
Continuous
 62
     7
370
    25
100
AcDbCircle
 10
16.5864873573
 20
-9.9490054904
 30
0.0
 40
0.0500000000000044
  0
CIRCLE
  5
D3
330
1F
100
AcDbEntity
  8
0
  6
Continuous
 62
     7
370
    25
100
AcDbCircle
 10
16.3156644909
 20
-10.8466138393
 30
0.0
 40
0.0499999999999959
  0
CIRCLE
  5
F0
330
1F
100
AcDbEntity
  8
0
  6
Continuous
 62
     7
370
    25
100
AcDbCircle
 10
-25.6654773219
 20
-10.7805327734
 30
0.0
 40
0.3499999999999979
  0
CIRCLE
  5
F1
330
1F
100
AcDbEntity
  8
0
  6
Continuous
 62
     7
370
    25
100
AcDbCircle
 10
-23.6054773219
 20
-11.6555327734
 30
0.0
 40
0.1500000000000021
  0
CIRCLE
  5
F2
330
1F
100
AcDbEntity
  8
0
  6
Continuous
 62
     7
370
    25
100
AcDbCircle
 10
-23.6054773219
 20
-9.9055327734
 30
0.0
 40
0.1500000000000021
  0
CIRCLE
  5
116
330
1F
100
AcDbEntity
  8
0
  6
Continuous
 62
     7
370
    25
100
AcDbCircle
 10
-25.7154773219
 20
-30.9105034127
 30
0.0
 40
0.3500000000000085
  0
CIRCLE
  5
117
330
1F
100
AcDbEntity
  8
0
  6
Continuous
 62
     7
370
    25
100
AcDbCircle
 10
-23.6554773219
 20
-31.7855034127
 30
0.0
 40
0.1499999999999986
  0
CIRCLE
  5
118
330
1F
100
AcDbEntity
  8
0
  6
Continuous
 62
     7
370
    25
100
AcDbCircle
 10
-23.6554773219
 20
-30.0355034127
 30
0.0
 40
0.1499999999999986
  0
CIRCLE
  5
11A
330
1F
100
AcDbEntity
  8
0
  6
Continuous
 62
     7
370
    25
100
AcDbCircle
 10
-4.5654833268
 20
-23.7592679732
 30
0.0
 40
0.1100000000000003
  0
CIRCLE
  5
123
330
1F
100
AcDbEntity
  8
0
  6
Continuous
 62
     7
370
    25
100
AcDbCircle
 10
-2.5654833268
 20
-23.7592679732
 30
0.0
 40
0.1099999999999999
  0
CIRCLE
  5
12A
330
1F
100
AcDbEntity
  8
0
  6
Continuous
 62
     7
370
    25
100
AcDbCircle
 10
-2.5654833268
 20
-22.3592679732
 30
0.0
 40
0.1099999999999981
  0
CIRCLE
  5
12B
330
1F
100
AcDbEntity
  8
0
  6
Continuous
 62
     7
370
    25
100
AcDbCircle
 10
-4.5654833268
 20
-22.3592679732
 30
0.0
 40
0.1099999999999968
  0
CIRCLE
  5
13A
330
1F
100
AcDbEntity
  8
0
  6
Continuous
 62
     7
370
    25
100
AcDbCircle
 10
-2.5654833268
 20
-20.9592679732
 30
0.0
 40
0.1099999999999963
  0
CIRCLE
  5
13B
330
1F
100
AcDbEntity
  8
0
  6
Continuous
 62
     7
370
    25
100
AcDbCircle
 10
-4.5654833268
 20
-20.9592679732
 30
0.0
 40
0.1099999999999985
  0
CIRCLE
  5
152
330
1F
100
AcDbEntity
  8
0
  6
Continuous
 62
     7
370
    25
100
AcDbCircle
 10
-2.5654833268
 20
-19.5592679732
 30
0.0
 40
0.1100000000000021
  0
CIRCLE
  5
153
330
1F
100
AcDbEntity
  8
0
  6
Continuous
 62
     7
370
    25
100
AcDbCircle
 10
-4.5654833268
 20
-19.5592679732
 30
0.0
 40
0.1099999999999985
  0
CIRCLE
  5
15A
330
1F
100
AcDbEntity
  8
0
  6
Continuous
 62
     7
370
    25
100
AcDbCircle
 10
-2.5654833268
 20
-18.1592679732
 30
0.0
 40
0.1099999999999999
  0
CIRCLE
  5
15B
330
1F
100
AcDbEntity
  8
0
  6
Continuous
 62
     7
370
    25
100
AcDbCircle
 10
-4.5654833268
 20
-18.1592679732
 30
0.0
 40
0.109999999999995
  0
CIRCLE
  5
16A
330
1F
100
AcDbEntity
  8
0
  6
Continuous
 62
     7
370
    25
100
AcDbCircle
 10
-1.1283171825
 20
-9.5815926718
 30
0.0
 40
0.1100000000000008
  0
CIRCLE
  5
16B
330
1F
100
AcDbEntity
  8
0
  6
Continuous
 62
     7
370
    25
100
AcDbCircle
 10
-3.1283171825
 20
-9.5815926718
 30
0.0
 40
0.1100000000000021
  0
CIRCLE
  5
17A
330
1F
100
AcDbEntity
  8
0
  6
Continuous
 62
     7
370
    25
100
AcDbCircle
 10
-4.0230212769
 20
-9.5632395479
 30
0.0
 40
0.1100000000000021
  0
CIRCLE
  5
17B
330
1F
100
AcDbEntity
  8
0
  6
Continuous
 62
     7
370
    25
100
AcDbCircle
 10
-6.0230212769
 20
-9.5632395479
 30
0.0
 40
0.1099999999999994
  0
CIRCLE
  5
18A
330
1F
100
AcDbEntity
  8
0
  6
Continuous
 62
     7
370
    25
100
AcDbCircle
 10
-2.5295757926
 20
-10.2323585674
 30
0.0
 40
0.1100000000000003
  0
CIRCLE
  5
194
330
1F
100
AcDbEntity
  8
0
  6
Continuous
 62
     7
370
    25
100
AcDbCircle
 10
-4.5295757926
 20
-10.2323585674
 30
0.0
 40
0.1099999999999994
  0
CIRCLE
  5
19A
330
1F
100
AcDbEntity
  8
0
  6
Continuous
 62
     7
370
    25
100
AcDbCircle
 10
-27.8979879882
 20
-25.8094064072
 30
0.0
 40
0.1099999999999994
  0
CIRCLE
  5
19B
330
1F
100
AcDbEntity
  8
0
  6
Continuous
 62
     7
370
    25
100
AcDbCircle
 10
-27.8979879882
 20
-27.8094064072
 30
0.0
 40
0.1099999999999994
  0
CIRCLE
  5
1AA
330
1F
100
AcDbEntity
  8
0
  6
Continuous
 62
     7
370
    25
100
AcDbCircle
 10
-27.9211582773
 20
-18.5339356221
 30
0.0
 40
0.1099999999999994
  0
CIRCLE
  5
1AB
330
1F
100
AcDbEntity
  8
0
  6
Continuous
 62
     7
370
    25
100
AcDbCircle
 10
-27.9211582773
 20
-20.5339356221
 30
0.0
 40
0.1099999999999994
  0
CIRCLE
  5
1BA
330
1F
100
AcDbEntity
  8
0
  6
Continuous
 62
     7
370
    25
100
AcDbCircle
 10
-27.9211582773
 20
-15.6839900598
 30
0.0
 40
0.110000000000003
  0
CIRCLE
  5
1BB
330
1F
100
AcDbEntity
  8
0
  6
Continuous
 62
     7
370
    25
100
AcDbCircle
 10
-27.9211582773
 20
-17.6839900598
 30
0.0
 40
0.1099999999999994
  0
CIRCLE
  5
1D1
330
1F
100
AcDbEntity
  8
0
  6
Continuous
 62
     7
370
    25
100
AcDbCircle
 10
-2.5654833268
 20
-16.7592679732
 30
0.0
 40
0.1099999999999981
  0
CIRCLE
  5
1D6
330
1F
100
AcDbEntity
  8
0
  6
Continuous
 62
     7
370
    25
100
AcDbCircle
 10
-4.5654833268
 20
-16.7592679732
 30
0.0
 40
0.1099999999999959
  0
CIRCLE
  5
1DA
330
1F
100
AcDbEntity
  8
0
  6
Continuous
 62
     7
370
    25
100
AcDbCircle
 10
-1.1684419263
 20
-32.0384656001
 30
0.0
 40
0.1142999999999945
  0
CIRCLE
  5
1E0
330
1F
100
AcDbEntity
  8
0
  6
Continuous
 62
     7
370
    25
100
AcDbCircle
 10
-2.6416419263
 20
-32.0384656001
 30
0.0
 40
0.1142999999999947
  0
CIRCLE
  5
1E4
330
1F
100
AcDbEntity
  8
0
  6
Continuous
 62
     7
370
    25
100
AcDbCircle
 10
-4.4237612957
 20
-31.9944747978
 30
0.0
 40
0.1143000000000001
  0
CIRCLE
  5
1EB
330
1F
100
AcDbEntity
  8
0
  6
Continuous
 62
     7
370
    25
100
AcDbCircle
 10
-5.8969612957
 20
-31.9944747978
 30
0.0
 40
0.1143000000000018
  0
CIRCLE
  5
1EE
330
1F
100
AcDbEntity
  8
0
  6
Continuous
 62
     7
370
    25
100
AcDbCircle
 10
-2.796101611
 20
-30.7187415314
 30
0.0
 40
0.1143000000000032
  0
CIRCLE
  5
1F6
330
1F
100
AcDbEntity
  8
0
  6
Continuous
 62
     7
370
    25
100
AcDbCircle
 10
-4.269301611
 20
-30.7187415314
 30
0.0
 40
0.1143000000000027
  0
CIRCLE
  5
220
330
1F
100
AcDbEntity
  8
0
  6
Continuous
 62
     7
370
    25
100
AcDbCircle
 10
-7.2728918372
 20
-13.9648679852
 30
0.0
 40
0.1749999999999989
  0
CIRCLE
  5
221
330
1F
100
AcDbEntity
  8
0
  6
Continuous
 62
     7
370
    25
100
AcDbCircle
 10
-18.8430688115
 20
-13.9648679852
 30
0.0
 40
0.1750000000000025
  0
CIRCLE
  5
23E
330
1F
100
AcDbEntity
  8
0
  6
Continuous
 62
     7
370
    25
100
AcDbCircle
 10
-18.4079803244
 20
-31.3592679732
 30
0.0
 40
0.1750000000000078
  0
CIRCLE
  5
23F
330
1F
100
AcDbEntity
  8
0
  6
Continuous
 62
     7
370
    25
100
AcDbCircle
 10
-7.7079803244
 20
-31.3592679732
 30
0.0
 40
0.1750000000000078
  0
CIRCLE
  5
240
330
1F
100
AcDbEntity
  8
0
  6
Continuous
 62
     7
370
    25
100
AcDbCircle
 10
-16.0579803244
 20
-32.1592679732
 30
0.0
 40
0.1750000000000043
  0
CIRCLE
  5
241
330
1F
100
AcDbEntity
  8
0
  6
Continuous
 62
     7
370
    25
100
AcDbCircle
 10
-10.0579803244
 20
-32.1592679732
 30
0.0
 40
0.1749999999999972
  0
CIRCLE
  5
25E
330
1F
100
AcDbEntity
  8
0
  6
Continuous
 62
     7
370
    25
100
AcDbCircle
 10
-15.0579803244
 20
-27.8492679732
 30
0.0
 40
0.1499999999999986
  0
CIRCLE
  5
25F
330
1F
100
AcDbEntity
  8
0
  6
Continuous
 62
     7
370
    25
100
AcDbCircle
 10
-11.0579803244
 20
-30.7192679732
 30
0.0
 40
0.1500000000000021
  0
CIRCLE
  5
260
330
1F
100
AcDbEntity
  8
0
  6
Continuous
 62
     7
370
    25
100
AcDbCircle
 10
-15.0579803244
 20
-30.7192679732
 30
0.0
 40
0.1500000000000021
  0
CIRCLE
  5
261
330
1F
100
AcDbEntity
  8
0
  6
Continuous
 62
     7
370
    25
100
AcDbCircle
 10
-11.0579803244
 20
-27.8492679732
 30
0.0
 40
0.1499999999999986
  0
CIRCLE
  5
262
330
1F
100
AcDbEntity
  8
0
  6
Continuous
 62
     7
370
    25
100
AcDbCircle
 10
-18.3079803244
 20
-30.6092679732
 30
0.0
 40
0.2250000000000014
  0
CIRCLE
  5
263
330
1F
100
AcDbEntity
  8
0
  6
Continuous
 62
     7
370
    25
100
AcDbCircle
 10
-18.3079803244
 20
-25.3592679732
 30
0.0
 40
0.225000000000005
  0
CIRCLE
  5
264
330
1F
100
AcDbEntity
  8
0
  6
Continuous
 62
     7
370
    25
100
AcDbCircle
 10
-7.8079803244
 20
-27.9842679732
 30
0.0
 40
0.2250000000000014
  0
CIRCLE
  5
265
330
1F
100
AcDbEntity
  8
0
  6
Continuous
 62
     7
370
    25
100
AcDbCircle
 10
-18.3079803244
 20
-22.7342679732
 30
0.0
 40
0.2250000000000014
  0
CIRCLE
  5
266
330
1F
100
AcDbEntity
  8
0
  6
Continuous
 62
     7
370
    25
100
AcDbCircle
 10
-18.3079803244
 20
-20.1092679732
 30
0.0
 40
0.2250000000000014
  0
CIRCLE
  5
267
330
1F
100
AcDbEntity
  8
0
  6
Continuous
 62
     7
370
    25
100
AcDbCircle
 10
-15.6829803244
 20
-20.1092679732
 30
0.0
 40
0.2250000000000014
  0
CIRCLE
  5
268
330
1F
100
AcDbEntity
  8
0
  6
Continuous
 62
     7
370
    25
100
AcDbCircle
 10
-13.0579803244
 20
-20.1092679732
 30
0.0
 40
0.2250000000000014
  0
CIRCLE
  5
269
330
1F
100
AcDbEntity
  8
0
  6
Continuous
 62
     7
370
    25
100
AcDbCircle
 10
-10.4329803244
 20
-20.1092679732
 30
0.0
 40
0.2250000000000014
  0
CIRCLE
  5
26A
330
1F
100
AcDbEntity
  8
0
  6
Continuous
 62
     7
370
    25
100
AcDbCircle
 10
-7.8079803244
 20
-20.1092679732
 30
0.0
 40
0.2250000000000014
  0
CIRCLE
  5
26B
330
1F
100
AcDbEntity
  8
0
  6
Continuous
 62
     7
370
    25
100
AcDbCircle
 10
-7.8079803244
 20
-22.7342679732
 30
0.0
 40
0.2250000000000014
  0
CIRCLE
  5
26C
330
1F
100
AcDbEntity
  8
0
  6
Continuous
 62
     7
370
    25
100
AcDbCircle
 10
-7.8079803244
 20
-25.3592679732
 30
0.0
 40
0.2250000000000014
  0
CIRCLE
  5
26D
330
1F
100
AcDbEntity
  8
0
  6
Continuous
 62
     7
370
    25
100
AcDbCircle
 10
-7.8079803244
 20
-30.6092679732
 30
0.0
 40
0.2250000000000014
  0
CIRCLE
  5
26E
330
1F
100
AcDbEntity
  8
0
  6
Continuous
 62
     7
370
    25
100
AcDbCircle
 10
-10.4329803244
 20
-30.6092679732
 30
0.0
 40
0.2250000000000014
  0
CIRCLE
  5
26F
330
1F
100
AcDbEntity
  8
0
  6
Continuous
 62
     7
370
    25
100
AcDbCircle
 10
-15.6829803244
 20
-30.6092679732
 30
0.0
 40
0.2250000000000014
  0
CIRCLE
  5
270
330
1F
100
AcDbEntity
  8
0
  6
Continuous
 62
     7
370
    25
100
AcDbCircle
 10
-18.3079803244
 20
-27.9842679732
 30
0.0
 40
0.225000000000005
  0
CIRCLE
  5
271
330
1F
100
AcDbEntity
  8
0
  6
Continuous
 62
     7
370
    25
100
AcDbCircle
 10
-14.1079803244
 20
-14.6092679732
 30
0.0
 40
0.1750000000000043
  0
CIRCLE
  5
272
330
1F
100
AcDbEntity
  8
0
  6
Continuous
 62
     7
370
    25
100
AcDbCircle
 10
-9.0079803244
 20
-14.6092679732
 30
0.0
 40
0.1750000000000025
  0
CIRCLE
  5
273
330
1F
100
AcDbEntity
  8
0
  6
Continuous
 62
     7
370
    25
100
AcDbCircle
 10
-12.0079803244
 20
-14.6092679732
 30
0.0
 40
0.1750000000000025
  0
CIRCLE
  5
274
330
1F
100
AcDbEntity
  8
0
  6
Continuous
 62
     7
370
    25
100
AcDbCircle
 10
-17.1079803244
 20
-14.6092679732
 30
0.0
 40
0.1750000000000043
  0
CIRCLE
  5
275
330
1F
100
AcDbEntity
  8
0
  6
Continuous
 62
     7
370
    25
100
AcDbCircle
 10
-13.0579803244
 20
-9.7592679732
 30
0.0
 40
0.4000000000000004
  0
CIRCLE
  5
2F6
330
1F
100
AcDbEntity
  8
0
  6
Continuous
 62
     7
370
    25
100
AcDbCircle
 10
-21.2678424415
 20
-9.7264832193
 30
0.0
 40
0.7499999999999982
  0
CIRCLE
  5
307
330
1F
100
AcDbEntity
  8
0
  6
Continuous
 62
     7
370
    25
100
AcDbCircle
 10
15.42819363
 20
-23.3256647002
 30
0.0
 40
0.7499999999999964
  0
CIRCLE
  5
318
330
1F
100
AcDbEntity
  8
0
  6
Continuous
 62
     7
370
    25
100
AcDbCircle
 10
18.1098205331
 20
-23.3230631112
 30
0.0
 40
0.7500000000000107
  0
CIRCLE
  5
329
330
1F
100
AcDbEntity
  8
0
  6
Continuous
 62
     7
370
    25
100
AcDbCircle
 10
23.4820949793
 20
-23.3306815874
 30
0.0
 40
0.75
  0
CIRCLE
  5
33A
330
1F
100
AcDbEntity
  8
0
  6
Continuous
 62
     7
370
    25
100
AcDbCircle
 10
20.8067850646
 20
-23.3192109397
 30
0.0
 40
0.7499999999999964
  0
CIRCLE
  5
34B
330
1F
100
AcDbEntity
  8
0
  6
Continuous
 62
     7
370
    25
100
AcDbCircle
 10
14.386791022
 20
-32.1230814057
 30
0.0
 40
0.7499999999999929
  0
CIRCLE
  5
35C
330
1F
100
AcDbEntity
  8
0
  6
Continuous
 62
     7
370
    25
100
AcDbCircle
 10
-21.3009385707
 20
-32.0458352377
 30
0.0
 40
0.7500000000000071
  0
CIRCLE
  5
36D
330
1F
100
AcDbEntity
  8
0
  6
Continuous
 62
     7
370
    25
100
AcDbCircle
 10
14.2672288108
 20
-9.7595359973
 30
0.0
 40
0.7499999999999982
  0
CIRCLE
  5
37E
330
1F
100
AcDbEntity
  8
0
  6
Continuous
 62
     7
370
    25
100
AcDbCircle
 10
12.6770136708
 20
-23.8592679732
 30
0.0
 40
0.110000000000003
  0
CIRCLE
  5
37F
330
1F
100
AcDbEntity
  8
0
  6
Continuous
 62
     7
370
    25
100
AcDbCircle
 10
12.6770136708
 20
-21.8592679732
 30
0.0
 40
0.1099999999999994
  0
CIRCLE
  5
380
330
1F
100
AcDbEntity
  8
0
  6
Continuous
 62
     7
370
    25
100
AcDbCircle
 10
12.6770136708
 20
-19.8592679732
 30
0.0
 40
0.1099999999999994
  0
CIRCLE
  5
381
330
1F
100
AcDbEntity
  8
0
  6
Continuous
 62
     7
370
    25
100
AcDbCircle
 10
12.6770136708
 20
-17.8592679732
 30
0.0
 40
0.1099999999999994
  0
CIRCLE
  5
382
330
1F
100
AcDbEntity
  8
0
  6
Continuous
 62
     7
370
    25
100
AcDbCircle
 10
-0.8229863292
 20
-23.8592679732
 30
0.0
 40
0.1099999999999994
  0
CIRCLE
  5
383
330
1F
100
AcDbEntity
  8
0
  6
Continuous
 62
     7
370
    25
100
AcDbCircle
 10
-0.8229863292
 20
-21.8592679732
 30
0.0
 40
0.1099999999999994
  0
CIRCLE
  5
384
330
1F
100
AcDbEntity
  8
0
  6
Continuous
 62
     7
370
    25
100
AcDbCircle
 10
-0.8229863292
 20
-19.8592679732
 30
0.0
 40
0.110000000000003
  0
CIRCLE
  5
385
330
1F
100
AcDbEntity
  8
0
  6
Continuous
 62
     7
370
    25
100
AcDbCircle
 10
-0.8229863292
 20
-17.8592679732
 30
0.0
 40
0.1099999999999994
  0
CIRCLE
  5
38E
330
1F
100
AcDbEntity
  8
0
  6
Continuous
 62
     7
370
    25
100
AcDbCircle
 10
6.6620136708
 20
-32.5776402629
 30
0.0
 40
0.115000000000002
  0
CIRCLE
  5
38F
330
1F
100
AcDbEntity
  8
0
  6
Continuous
 62
     7
370
    25
100
AcDbCircle
 10
5.1920136708
 20
-32.5776402629
 30
0.0
 40
0.115000000000002
  0
CIRCLE
  5
390
330
1F
100
AcDbEntity
  8
0
  6
Continuous
 62
     7
370
    25
100
AcDbCircle
 10
11.712102158
 20
-13.9648679852
 30
0.0
 40
0.1750000000000007
  0
CIRCLE
  5
391
330
1F
100
AcDbEntity
  8
0
  6
Continuous
 62
     7
370
    25
100
AcDbCircle
 10
0.1419251837
 20
-13.9648679852
 30
0.0
 40
0.1750000000000007
  0
CIRCLE
  5
3AE
330
1F
100
AcDbEntity
  8
0
  6
Continuous
 62
     7
370
    25
100
AcDbCircle
 10
5.1920136708
 20
-9.1408956835
 30
0.0
 40
0.115000000000002
  0
CIRCLE
  5
3AF
330
1F
100
AcDbEntity
  8
0
  6
Continuous
 62
     7
370
    25
100
AcDbCircle
 10
6.6620136708
 20
-9.1408956835
 30
0.0
 40
0.1150000000000002
  0
CIRCLE
  5
3B8
330
1F
100
AcDbEntity
  8
0
  6
Continuous
 62
     7
370
    25
100
AcDbCircle
 10
11.2770136708
 20
-18.1592679732
 30
0.0
 40
0.1749999999999972
  0
CIRCLE
  5
3B9
330
1F
100
AcDbEntity
  8
0
  6
Continuous
 62
     7
370
    25
100
AcDbCircle
 10
0.5770136708
 20
-31.3592679732
 30
0.0
 40
0.1750000000000078
  0
CIRCLE
  5
3BA
330
1F
100
AcDbEntity
  8
0
  6
Continuous
 62
     7
370
    25
100
AcDbCircle
 10
11.2770136708
 20
-31.3592679732
 30
0.0
 40
0.1750000000000078
  0
CIRCLE
  5
3BB
330
1F
100
AcDbEntity
  8
0
  6
Continuous
 62
     7
370
    25
100
AcDbCircle
 10
0.5770136708
 20
-18.1592679732
 30
0.0
 40
0.1749999999999972
  0
CIRCLE
  5
3BC
330
1F
100
AcDbEntity
  8
0
  6
Continuous
 62
     7
370
    25
100
AcDbCircle
 10
6.9270136708
 20
-11.3122848069
 30
0.0
 40
0.1750000000000007
  0
CIRCLE
  5
3BD
330
1F
100
AcDbEntity
  8
0
  6
Continuous
 62
     7
370
    25
100
AcDbCircle
 10
2.9270136708
 20
-11.3122848069
 30
0.0
 40
0.1749999999999989
  0
CIRCLE
  5
3BE
330
1F
100
AcDbEntity
  8
0
  6
Continuous
 62
     7
370
    25
100
AcDbCircle
 10
4.9270136708
 20
-11.3122848069
 30
0.0
 40
0.1750000000000007
  0
CIRCLE
  5
3BF
330
1F
100
AcDbEntity
  8
0
  6
Continuous
 62
     7
370
    25
100
AcDbCircle
 10
8.9270136708
 20
-11.3122848069
 30
0.0
 40
0.1750000000000007
  0
CIRCLE
  5
3C0
330
1F
100
AcDbEntity
  8
0
  6
Continuous
 62
     7
370
    25
100
AcDbCircle
 10
8.9270136708
 20
-32.1592679732
 30
0.0
 40
0.1750000000000043
  0
CIRCLE
  5
3C1
330
1F
100
AcDbEntity
  8
0
  6
Continuous
 62
     7
370
    25
100
AcDbCircle
 10
2.9270136708
 20
-32.1592679732
 30
0.0
 40
0.1750000000000043
  0
CIRCLE
  5
3C2
330
1F
100
AcDbEntity
  8
0
  6
Continuous
 62
     7
370
    25
100
AcDbCircle
 10
1.5770136708
 20
-18.1592679732
 30
0.0
 40
0.1749999999999972
  0
CIRCLE
  5
3C3
330
1F
100
AcDbEntity
  8
0
  6
Continuous
 62
     7
370
    25
100
AcDbCircle
 10
10.2770136708
 20
-31.3592679732
 30
0.0
 40
0.1750000000000078
  0
CIRCLE
  5
3C4
330
1F
100
AcDbEntity
  8
0
  6
Continuous
 62
     7
370
    25
100
AcDbCircle
 10
1.5770136708
 20
-31.3592679732
 30
0.0
 40
0.1750000000000078
  0
CIRCLE
  5
3C5
330
1F
100
AcDbEntity
  8
0
  6
Continuous
 62
     7
370
    25
100
AcDbCircle
 10
10.2770136708
 20
-18.1592679732
 30
0.0
 40
0.1750000000000007
  0
CIRCLE
  5
3D6
330
1F
100
AcDbEntity
  8
0
  6
Continuous
 62
     7
370
    25
100
AcDbCircle
 10
3.9270136708
 20
-22.7092679732
 30
0.0
 40
0.1750000000000007
  0
CIRCLE
  5
3D7
330
1F
100
AcDbEntity
  8
0
  6
Continuous
 62
     7
370
    25
100
AcDbCircle
 10
7.9270136708
 20
-19.0092679732
 30
0.0
 40
0.1750000000000043
  0
CIRCLE
  5
3DC
330
1F
100
AcDbEntity
  8
0
  6
Continuous
 62
     7
370
    25
100
AcDbCircle
 10
7.9270136708
 20
-22.7092679732
 30
0.0
 40
0.1750000000000007
  0
CIRCLE
  5
3DD
330
1F
100
AcDbEntity
  8
0
  6
Continuous
 62
     7
370
    25
100
AcDbCircle
 10
3.9270136708
 20
-19.0092679732
 30
0.0
 40
0.1750000000000043
  0
CIRCLE
  5
3DE
330
1F
100
AcDbEntity
  8
0
  6
Continuous
 62
     7
370
    25
100
AcDbCircle
 10
-23.7579803244
 20
-22.705875585
 30
0.0
 40
0.1500000000000021
  0
CIRCLE
  5
3DF
330
1F
100
AcDbEntity
  8
0
  6
Continuous
 62
     7
370
    25
100
AcDbCircle
 10
-22.2579803244
 20
-22.705875585
 30
0.0
 40
0.1500000000000021
  0
CIRCLE
  5
3E5
330
1F
100
AcDbEntity
  8
0
  6
Continuous
 62
     7
370
    25
100
AcDbCircle
 10
-23.7579803244
 20
-23.685875585
 30
0.0
 40
0.1499999999999986
  0
CIRCLE
  5
3E6
330
1F
100
AcDbEntity
  8
0
  6
Continuous
 62
     7
370
    25
100
AcDbCircle
 10
-22.2579803244
 20
-23.685875585
 30
0.0
 40
0.1499999999999986
  0
CIRCLE
  5
3E7
330
1F
100
AcDbEntity
  8
0
  6
Continuous
 62
     7
370
    25
100
AcDbCircle
 10
-27.1741861313
 20
-24.062081392
 30
0.0
 40
0.0500000000000043
  0
CIRCLE
  5
3E8
330
1F
100
AcDbEntity
  8
0
  6
Continuous
 62
     7
370
    25
100
AcDbCircle
 10
-26.3079803244
 20
-24.420875585
 30
0.0
 40
0.0499999999999972
  0
CIRCLE
  5
3E9
330
1F
100
AcDbEntity
  8
0
  6
Continuous
 62
     7
370
    25
100
AcDbCircle
 10
-25.4417745174
 20
-24.062081392
 30
0.0
 40
0.0499999999999972
  0
CIRCLE
  5
3EA
330
1F
100
AcDbEntity
  8
0
  6
Continuous
 62
     7
370
    25
100
AcDbCircle
 10
-25.0829803244
 20
-23.195875585
 30
0.0
 40
0.0500000000000007
  0
CIRCLE
  5
3EB
330
1F
100
AcDbEntity
  8
0
  6
Continuous
 62
     7
370
    25
100
AcDbCircle
 10
-25.4417745174
 20
-22.329669778
 30
0.0
 40
0.0500000000000043
  0
CIRCLE
  5
3EC
330
1F
100
AcDbEntity
  8
0
  6
Continuous
 62
     7
370
    25
100
AcDbCircle
 10
-26.3079803244
 20
-21.970875585
 30
0.0
 40
0.0500000000000043
  0
CIRCLE
  5
3ED
330
1F
100
AcDbEntity
  8
0
  6
Continuous
 62
     7
370
    25
100
AcDbCircle
 10
-27.1741861313
 20
-22.329669778
 30
0.0
 40
0.0500000000000007
  0
CIRCLE
  5
3EE
330
1F
100
AcDbEntity
  8
0
  6
Continuous
 62
     7
370
    25
100
AcDbCircle
 10
-27.5329803244
 20
-23.195875585
 30
0.0
 40
0.0500000000000007
  0
LINE
  5
3F6
330
1F
100
AcDbEntity
  8
0
  6
Continuous
 62
     7
370
    25
100
AcDbLine
 10
16.3945106684
 20
-27.0811455211
 30
0.0
 11
16.3945106684
 21
-31.2311455211
 31
0.0
  0
LINE
  5
3F7
330
1F
100
AcDbEntity
  8
0
  6
Continuous
 62
     7
370
    25
100
AcDbLine
 10
15.7945106684
 20
-27.0811455211
 30
0.0
 11
16.3945106684
 21
-27.0811455211
 31
0.0
  0
LINE
  5
3F8
330
1F
100
AcDbEntity
  8
0
  6
Continuous
 62
     7
370
    25
100
AcDbLine
 10
15.7945106684
 20
-27.0811455211
 30
0.0
 11
15.7945106684
 21
-25.0811455211
 31
0.0
  0
LINE
  5
3F9
330
1F
100
AcDbEntity
  8
0
  6
Continuous
 62
     7
370
    25
100
AcDbLine
 10
15.7945106684
 20
-25.0811455211
 30
0.0
 11
24.3945106684
 21
-25.0811455211
 31
0.0
  0
LINE
  5
3FA
330
1F
100
AcDbEntity
  8
0
  6
Continuous
 62
     7
370
    25
100
AcDbLine
 10
24.8945106684
 20
-25.7811455211
 30
0.0
 11
24.8945106684
 21
-25.5811455211
 31
0.0
  0
LINE
  5
3FB
330
1F
100
AcDbEntity
  8
0
  6
Continuous
 62
     7
370
    25
100
AcDbLine
 10
24.8945106684
 20
-25.7811455211
 30
0.0
 11
23.1445106684
 21
-25.7811455211
 31
0.0
  0
LINE
  5
3FC
330
1F
100
AcDbEntity
  8
0
  6
Continuous
 62
     7
370
    25
100
AcDbLine
 10
23.1445106684
 20
-26.0811455211
 30
0.0
 11
23.1445106684
 21
-25.7811455211
 31
0.0
  0
LINE
  5
3FD
330
1F
100
AcDbEntity
  8
0
  6
Continuous
 62
     7
370
    25
100
AcDbLine
 10
24.8945106684
 20
-26.0811455211
 30
0.0
 11
23.1445106684
 21
-26.0811455211
 31
0.0
  0
LINE
  5
3FE
330
1F
100
AcDbEntity
  8
0
  6
Continuous
 62
     7
370
    25
100
AcDbLine
 10
24.8945106684
 20
-28.0811455211
 30
0.0
 11
24.8945106684
 21
-26.0811455211
 31
0.0
  0
LINE
  5
3FF
330
1F
100
AcDbEntity
  8
0
  6
Continuous
 62
     7
370
    25
100
AcDbLine
 10
24.8945106684
 20
-28.0811455211
 30
0.0
 11
21.3945106684
 21
-28.0811455211
 31
0.0
  0
LINE
  5
400
330
1F
100
AcDbEntity
  8
0
  6
Continuous
 62
     7
370
    25
100
AcDbLine
 10
21.3945106684
 20
-28.3811455211
 30
0.0
 11
21.3945106684
 21
-28.0811455211
 31
0.0
  0
LINE
  5
401
330
1F
100
AcDbEntity
  8
0
  6
Continuous
 62
     7
370
    25
100
AcDbLine
 10
24.8945106684
 20
-28.3811455211
 30
0.0
 11
21.3945106684
 21
-28.3811455211
 31
0.0
  0
LINE
  5
402
330
1F
100
AcDbEntity
  8
0
  6
Continuous
 62
     7
370
    25
100
AcDbLine
 10
24.8945106684
 20
-28.3811455211
 30
0.0
 11
24.8945106684
 21
-31.9311455211
 31
0.0
  0
LINE
  5
403
330
1F
100
AcDbEntity
  8
0
  6
Continuous
 62
     7
370
    25
100
AcDbLine
 10
24.8945106684
 20
-31.9311455211
 30
0.0
 11
21.3945106684
 21
-31.9311455211
 31
0.0
  0
LINE
  5
404
330
1F
100
AcDbEntity
  8
0
  6
Continuous
 62
     7
370
    25
100
AcDbLine
 10
21.3945106684
 20
-32.2311455211
 30
0.0
 11
21.3945106684
 21
-31.9311455211
 31
0.0
  0
LINE
  5
405
330
1F
100
AcDbEntity
  8
0
  6
Continuous
 62
     7
370
    25
100
AcDbLine
 10
24.8945106684
 20
-32.2311455211
 30
0.0
 11
21.3945106684
 21
-32.2311455211
 31
0.0
  0
LINE
  5
406
330
1F
100
AcDbEntity
  8
0
  6
Continuous
 62
     7
370
    25
100
AcDbLine
 10
15.7945106684
 20
-33.2311455211
 30
0.0
 11
23.8945106684
 21
-33.2311455211
 31
0.0
  0
LINE
  5
407
330
1F
100
AcDbEntity
  8
0
  6
Continuous
 62
     7
370
    25
100
AcDbLine
 10
15.7945106684
 20
-33.2311455211
 30
0.0
 11
15.7945106684
 21
-31.2311455211
 31
0.0
  0
LINE
  5
408
330
1F
100
AcDbEntity
  8
0
  6
Continuous
 62
     7
370
    25
100
AcDbLine
 10
15.7945106684
 20
-31.2311455211
 30
0.0
 11
16.3945106684
 21
-31.2311455211
 31
0.0
  0
LINE
  5
409
330
1F
100
AcDbEntity
  8
0
  6
Continuous
 62
     7
370
    25
100
AcDbLine
 10
23.4561732714
 20
-14.8067143669
 30
0.0
 11
23.1576621144
 21
-14.8365654826
 31
0.0
  0
LINE
  5
40A
330
1F
100
AcDbEntity
  8
0
  6
Continuous
 62
     7
370
    25
100
AcDbLine
 10
23.4561732714
 20
-14.8067143669
 30
0.0
 11
22.9586546763
 21
-9.8315284159
 31
0.0
  0
LINE
  5
40B
330
1F
100
AcDbEntity
  8
0
  6
Continuous
 62
     7
370
    25
100
AcDbLine
 10
23.804436288
 20
-9.7469502547
 30
0.0
 11
22.9586546763
 21
-9.8315284159
 31
0.0
  0
LINE
  5
40C
330
1F
100
AcDbEntity
  8
0
  6
Continuous
 62
     7
370
    25
100
AcDbLine
 10
23.7447340566
 20
-9.1499279406
 30
0.0
 11
23.804436288
 21
-9.7469502547
 31
0.0
  0
LINE
  5
40D
330
1F
100
AcDbEntity
  8
0
  6
Continuous
 62
     7
370
    25
100
AcDbLine
 10
25.734808437
 20
-8.9509205025
 30
0.0
 11
23.7447340566
 21
-9.1499279406
 31
0.0
  0
LINE
  5
40E
330
1F
100
AcDbEntity
  8
0
  6
Continuous
 62
     7
370
    25
100
AcDbLine
 10
25.7945106684
 20
-9.5479428167
 30
0.0
 11
25.734808437
 21
-8.9509205025
 31
0.0
  0
LINE
  5
40F
330
1F
100
AcDbEntity
  8
0
  6
Continuous
 62
     7
370
    25
100
AcDbLine
 10
25.7945106684
 20
-19.5978184378
 30
0.0
 11
25.7945106684
 21
-9.5479428167
 31
0.0
  0
LINE
  5
410
330
1F
100
AcDbEntity
  8
0
  6
Continuous
 62
     7
370
    25
100
AcDbLine
 10
21.8143619076
 20
-19.9958333139
 30
0.0
 11
19.8242875272
 21
-10.1449651308
 31
0.0
  0
LINE
  5
411
330
1F
100
AcDbEntity
  8
0
  6
Continuous
 62
     7
370
    25
100
AcDbLine
 10
19.8242875272
 20
-10.1449651308
 30
0.0
 11
19.7645852958
 21
-9.5479428167
 31
0.0
  0
LINE
  5
412
330
1F
100
AcDbEntity
  8
0
  6
Continuous
 62
     7
370
    25
100
AcDbLine
 10
21.7546596762
 20
-9.3489353786
 30
0.0
 11
19.7645852958
 21
-9.5479428167
 31
0.0
  0
LINE
  5
413
330
1F
100
AcDbEntity
  8
0
  6
Continuous
 62
     7
370
    25
100
AcDbLine
 10
21.7546596762
 20
-9.3489353786
 30
0.0
 11
21.8143619076
 21
-9.9459576927
 31
0.0
  0
LINE
  5
414
330
1F
100
AcDbEntity
  8
0
  6
Continuous
 62
     7
370
    25
100
AcDbLine
 10
22.6601435193
 20
-9.8613795316
 30
0.0
 11
21.8143619076
 21
-9.9459576927
 31
0.0
  0
LINE
  5
415
330
1F
100
AcDbEntity
  8
0
  6
Continuous
 62
     7
370
    25
100
AcDbLine
 10
23.1576621144
 20
-14.8365654826
 30
0.0
 11
22.6601435193
 21
-9.8613795316
 31
0.0
  0
LINE
  5
416
330
1F
100
AcDbEntity
  8
0
  6
Continuous
 62
     7
370
    25
100
AcDbLine
 10
17.8828480654
 20
-15.7148332924
 30
0.0
 11
18.1813592225
 21
-15.6849821767
 31
0.0
  0
LINE
  5
417
330
1F
100
AcDbEntity
  8
0
  6
Continuous
 62
     7
370
    25
100
AcDbLine
 10
17.8828480654
 20
-15.7148332924
 30
0.0
 11
18.3803666605
 21
-20.6900192435
 31
0.0
  0
LINE
  5
418
330
1F
100
AcDbEntity
  8
0
  6
Continuous
 62
     7
370
    25
100
AcDbLine
 10
17.5345850489
 20
-20.7745974046
 30
0.0
 11
18.3803666605
 21
-20.6900192435
 31
0.0
  0
LINE
  5
419
330
1F
100
AcDbEntity
  8
0
  6
Continuous
 62
     7
370
    25
100
AcDbLine
 10
17.5942872803
 20
-21.3716197187
 30
0.0
 11
17.5345850489
 21
-20.7745974046
 31
0.0
  0
LINE
  5
41A
330
1F
100
AcDbEntity
  8
0
  6
Continuous
 62
     7
370
    25
100
AcDbLine
 10
15.6042128999
 20
-21.5706271568
 30
0.0
 11
17.5942872803
 21
-21.3716197187
 31
0.0
  0
LINE
  5
41B
330
1F
100
AcDbEntity
  8
0
  6
Continuous
 62
     7
370
    25
100
AcDbLine
 10
15.5445106684
 20
-20.9736048427
 30
0.0
 11
15.6042128999
 21
-21.5706271568
 31
0.0
  0
LINE
  5
41C
330
1F
100
AcDbEntity
  8
0
  6
Continuous
 62
     7
370
    25
100
AcDbLine
 10
15.5445106684
 20
-10.9237292215
 30
0.0
 11
15.5445106684
 21
-20.9736048427
 31
0.0
  0
LINE
  5
41D
330
1F
100
AcDbEntity
  8
0
  6
Continuous
 62
     7
370
    25
100
AcDbLine
 10
19.5246594293
 20
-10.5257143455
 30
0.0
 11
21.5147338097
 21
-20.3765825285
 31
0.0
  0
LINE
  5
41E
330
1F
100
AcDbEntity
  8
0
  6
Continuous
 62
     7
370
    25
100
AcDbLine
 10
21.5147338097
 20
-20.3765825285
 30
0.0
 11
21.5744360411
 21
-20.9736048427
 31
0.0
  0
LINE
  5
41F
330
1F
100
AcDbEntity
  8
0
  6
Continuous
 62
     7
370
    25
100
AcDbLine
 10
19.5843616607
 20
-21.1726122807
 30
0.0
 11
21.5744360411
 21
-20.9736048427
 31
0.0
  0
LINE
  5
420
330
1F
100
AcDbEntity
  8
0
  6
Continuous
 62
     7
370
    25
100
AcDbLine
 10
19.5843616607
 20
-21.1726122807
 30
0.0
 11
19.5246594293
 21
-20.5755899666
 31
0.0
  0
LINE
  5
421
330
1F
100
AcDbEntity
  8
0
  6
Continuous
 62
     7
370
    25
100
AcDbLine
 10
18.6788778176
 20
-20.6601681277
 30
0.0
 11
19.5246594293
 21
-20.5755899666
 31
0.0
  0
LINE
  5
422
330
1F
100
AcDbEntity
  8
0
  6
Continuous
 62
     7
370
    25
100
AcDbLine
 10
18.1813592225
 20
-15.6849821767
 30
0.0
 11
18.6788778176
 21
-20.6601681277
 31
0.0
  0
LINE
  5
423
330
1F
100
AcDbEntity
  8
0
  6
Continuous
 62
     7
370
    25
100
AcDbLine
 10
-22.6254773219
 20
-12.4567700595
 30
0.0
 11
-22.8754773219
 21
-12.4567700595
 31
0.0
  0
LINE
  5
424
330
1F
100
AcDbEntity
  8
0
  6
Continuous
 62
     7
370
    25
100
AcDbLine
 10
-22.8754773219
 20
-12.4567700595
 30
0.0
 11
-22.8754773219
 21
-12.7567700595
 31
0.0
  0
LINE
  5
425
330
1F
100
AcDbEntity
  8
0
  6
Continuous
 62
     7
370
    25
100
AcDbLine
 10
-22.8754773219
 20
-12.7567700595
 30
0.0
 11
-22.6254773219
 21
-12.7567700595
 31
0.0
  0
LINE
  5
426
330
1F
100
AcDbEntity
  8
0
  6
Continuous
 62
     7
370
    25
100
AcDbLine
 10
-22.6254773219
 20
-12.7567700595
 30
0.0
 11
-22.6254773219
 21
-13.0567700595
 31
0.0
  0
LINE
  5
427
330
1F
100
AcDbEntity
  8
0
  6
Continuous
 62
     7
370
    25
100
AcDbLine
 10
-22.6254773219
 20
-13.0567700595
 30
0.0
 11
-24.6254773219
 21
-13.0567700595
 31
0.0
  0
LINE
  5
428
330
1F
100
AcDbEntity
  8
0
  6
Continuous
 62
     7
370
    25
100
AcDbLine
 10
-24.6254773219
 20
-13.0567700595
 30
0.0
 11
-24.6254773219
 21
-12.7567700595
 31
0.0
  0
LINE
  5
429
330
1F
100
AcDbEntity
  8
0
  6
Continuous
 62
     7
370
    25
100
AcDbLine
 10
-24.6254773219
 20
-12.7567700595
 30
0.0
 11
-24.3754773219
 21
-12.7567700595
 31
0.0
  0
LINE
  5
42A
330
1F
100
AcDbEntity
  8
0
  6
Continuous
 62
     7
370
    25
100
AcDbLine
 10
-24.3754773219
 20
-12.7567700595
 30
0.0
 11
-24.3754773219
 21
-12.4567700595
 31
0.0
  0
LINE
  5
42B
330
1F
100
AcDbEntity
  8
0
  6
Continuous
 62
     7
370
    25
100
AcDbLine
 10
-24.3754773219
 20
-12.4567700595
 30
0.0
 11
-24.6254773219
 21
-12.4567700595
 31
0.0
  0
LINE
  5
42C
330
1F
100
AcDbEntity
  8
0
  6
Continuous
 62
     7
370
    25
100
AcDbLine
 10
-24.6254773219
 20
-12.4567700595
 30
0.0
 11
-24.6254773219
 21
-12.1436514164
 31
0.0
  0
LINE
  5
42D
330
1F
100
AcDbEntity
  8
0
  6
Continuous
 62
     7
370
    25
100
AcDbLine
 10
-24.6254773219
 20
-12.1436514164
 30
0.0
 11
-26.6254773219
 21
-12.1436514164
 31
0.0
  0
LINE
  5
42E
330
1F
100
AcDbEntity
  8
0
  6
Continuous
 62
     7
370
    25
100
AcDbLine
 10
-26.6254773219
 20
-12.1436514164
 30
0.0
 11
-26.6254773219
 21
-12.4567700595
 31
0.0
  0
LINE
  5
42F
330
1F
100
AcDbEntity
  8
0
  6
Continuous
 62
     7
370
    25
100
AcDbLine
 10
-26.6254773219
 20
-12.4567700595
 30
0.0
 11
-26.8754773219
 21
-12.4567700595
 31
0.0
  0
LINE
  5
430
330
1F
100
AcDbEntity
  8
0
  6
Continuous
 62
     7
370
    25
100
AcDbLine
 10
-26.8754773219
 20
-12.4567700595
 30
0.0
 11
-26.8754773219
 21
-12.7567700595
 31
0.0
  0
LINE
  5
431
330
1F
100
AcDbEntity
  8
0
  6
Continuous
 62
     7
370
    25
100
AcDbLine
 10
-26.8754773219
 20
-12.7567700595
 30
0.0
 11
-26.6254773219
 21
-12.7567700595
 31
0.0
  0
LINE
  5
432
330
1F
100
AcDbEntity
  8
0
  6
Continuous
 62
     7
370
    25
100
AcDbLine
 10
-26.6254773219
 20
-12.7567700595
 30
0.0
 11
-26.6254773219
 21
-13.0567700595
 31
0.0
  0
LINE
  5
433
330
1F
100
AcDbEntity
  8
0
  6
Continuous
 62
     7
370
    25
100
AcDbLine
 10
-26.6254773219
 20
-13.0567700595
 30
0.0
 11
-28.6254773219
 21
-13.0567700595
 31
0.0
  0
LINE
  5
434
330
1F
100
AcDbEntity
  8
0
  6
Continuous
 62
     7
370
    25
100
AcDbLine
 10
-28.6254773219
 20
-13.0567700595
 30
0.0
 11
-28.6254773219
 21
-12.7567700595
 31
0.0
  0
LINE
  5
435
330
1F
100
AcDbEntity
  8
0
  6
Continuous
 62
     7
370
    25
100
AcDbLine
 10
-28.6254773219
 20
-12.7567700595
 30
0.0
 11
-28.3754773219
 21
-12.7567700595
 31
0.0
  0
LINE
  5
436
330
1F
100
AcDbEntity
  8
0
  6
Continuous
 62
     7
370
    25
100
AcDbLine
 10
-28.3754773219
 20
-12.7567700595
 30
0.0
 11
-28.3754773219
 21
-12.4567700595
 31
0.0
  0
LINE
  5
437
330
1F
100
AcDbEntity
  8
0
  6
Continuous
 62
     7
370
    25
100
AcDbLine
 10
-28.3754773219
 20
-12.4567700595
 30
0.0
 11
-28.6254773219
 21
-12.4567700595
 31
0.0
  0
LINE
  5
438
330
1F
100
AcDbEntity
  8
0
  6
Continuous
 62
     7
370
    25
100
AcDbLine
 10
-28.6254773219
 20
-12.4567700595
 30
0.0
 11
-28.6254773219
 21
-12.1436514164
 31
0.0
  0
LINE
  5
439
330
1F
100
AcDbEntity
  8
0
  6
Continuous
 62
     7
370
    25
100
AcDbLine
 10
-28.6254773219
 20
-12.1436514164
 30
0.0
 11
-29.1254773219
 21
-12.1436514164
 31
0.0
  0
LINE
  5
43A
330
1F
100
AcDbEntity
  8
0
  6
Continuous
 62
     7
370
    25
100
AcDbLine
 10
-29.1254773219
 20
-12.1436514164
 30
0.0
 11
-29.1254773219
 21
-8.9436514164
 31
0.0
  0
LINE
  5
43B
330
1F
100
AcDbEntity
  8
0
  6
Continuous
 62
     7
370
    25
100
AcDbLine
 10
-28.6254773219
 20
-8.9436514164
 30
0.0
 11
-29.1254773219
 21
-8.9436514164
 31
0.0
  0
LINE
  5
43C
330
1F
100
AcDbEntity
  8
0
  6
Continuous
 62
     7
370
    25
100
AcDbLine
 10
-28.6254773219
 20
-8.6436514164
 30
0.0
 11
-28.6254773219
 21
-8.9436514164
 31
0.0
  0
LINE
  5
43D
330
1F
100
AcDbEntity
  8
0
  6
Continuous
 62
     7
370
    25
100
AcDbLine
 10
-26.6254773219
 20
-8.9436514164
 30
0.0
 11
-26.6254773219
 21
-8.6436514164
 31
0.0
  0
LINE
  5
43E
330
1F
100
AcDbEntity
  8
0
  6
Continuous
 62
     7
370
    25
100
AcDbLine
 10
-24.6254773219
 20
-8.9436514164
 30
0.0
 11
-26.6254773219
 21
-8.9436514164
 31
0.0
  0
LINE
  5
43F
330
1F
100
AcDbEntity
  8
0
  6
Continuous
 62
     7
370
    25
100
AcDbLine
 10
-26.6254773219
 20
-8.6436514164
 30
0.0
 11
-28.6254773219
 21
-8.6436514164
 31
0.0
  0
LINE
  5
440
330
1F
100
AcDbEntity
  8
0
  6
Continuous
 62
     7
370
    25
100
AcDbLine
 10
-24.6254773219
 20
-8.6436514164
 30
0.0
 11
-24.6254773219
 21
-8.9436514164
 31
0.0
  0
LINE
  5
441
330
1F
100
AcDbEntity
  8
0
  6
Continuous
 62
     7
370
    25
100
AcDbLine
 10
-22.6254773219
 20
-8.6436514164
 30
0.0
 11
-22.6254773219
 21
-12.4567700595
 31
0.0
  0
LINE
  5
442
330
1F
100
AcDbEntity
  8
0
  6
Continuous
 62
     7
370
    25
100
AcDbLine
 10
-22.6254773219
 20
-8.6436514164
 30
0.0
 11
-24.6254773219
 21
-8.6436514164
 31
0.0
  0
LINE
  5
443
330
1F
100
AcDbEntity
  8
0
  6
Continuous
 62
     7
370
    25
100
AcDbLine
 10
-22.6754773219
 20
-32.5867406989
 30
0.0
 11
-22.9254773219
 21
-32.5867406989
 31
0.0
  0
LINE
  5
444
330
1F
100
AcDbEntity
  8
0
  6
Continuous
 62
     7
370
    25
100
AcDbLine
 10
-22.9254773219
 20
-32.5867406989
 30
0.0
 11
-22.9254773219
 21
-32.8867406989
 31
0.0
  0
LINE
  5
445
330
1F
100
AcDbEntity
  8
0
  6
Continuous
 62
     7
370
    25
100
AcDbLine
 10
-22.9254773219
 20
-32.8867406989
 30
0.0
 11
-22.6754773219
 21
-32.8867406989
 31
0.0
  0
LINE
  5
446
330
1F
100
AcDbEntity
  8
0
  6
Continuous
 62
     7
370
    25
100
AcDbLine
 10
-22.6754773219
 20
-32.8867406989
 30
0.0
 11
-22.6754773219
 21
-33.1867406989
 31
0.0
  0
LINE
  5
447
330
1F
100
AcDbEntity
  8
0
  6
Continuous
 62
     7
370
    25
100
AcDbLine
 10
-22.6754773219
 20
-33.1867406989
 30
0.0
 11
-24.6754773219
 21
-33.1867406989
 31
0.0
  0
LINE
  5
448
330
1F
100
AcDbEntity
  8
0
  6
Continuous
 62
     7
370
    25
100
AcDbLine
 10
-24.6754773219
 20
-33.1867406989
 30
0.0
 11
-24.6754773219
 21
-32.8867406989
 31
0.0
  0
LINE
  5
449
330
1F
100
AcDbEntity
  8
0
  6
Continuous
 62
     7
370
    25
100
AcDbLine
 10
-24.6754773219
 20
-32.8867406989
 30
0.0
 11
-24.4254773219
 21
-32.8867406989
 31
0.0
  0
LINE
  5
44A
330
1F
100
AcDbEntity
  8
0
  6
Continuous
 62
     7
370
    25
100
AcDbLine
 10
-24.4254773219
 20
-32.8867406989
 30
0.0
 11
-24.4254773219
 21
-32.5867406989
 31
0.0
  0
LINE
  5
44B
330
1F
100
AcDbEntity
  8
0
  6
Continuous
 62
     7
370
    25
100
AcDbLine
 10
-24.4254773219
 20
-32.5867406989
 30
0.0
 11
-24.6754773219
 21
-32.5867406989
 31
0.0
  0
LINE
  5
44C
330
1F
100
AcDbEntity
  8
0
  6
Continuous
 62
     7
370
    25
100
AcDbLine
 10
-24.6754773219
 20
-32.5867406989
 30
0.0
 11
-24.6754773219
 21
-32.2736220558
 31
0.0
  0
LINE
  5
44D
330
1F
100
AcDbEntity
  8
0
  6
Continuous
 62
     7
370
    25
100
AcDbLine
 10
-24.6754773219
 20
-32.2736220558
 30
0.0
 11
-26.6754773219
 21
-32.2736220558
 31
0.0
  0
LINE
  5
44E
330
1F
100
AcDbEntity
  8
0
  6
Continuous
 62
     7
370
    25
100
AcDbLine
 10
-26.6754773219
 20
-32.2736220558
 30
0.0
 11
-26.6754773219
 21
-32.5867406989
 31
0.0
  0
LINE
  5
44F
330
1F
100
AcDbEntity
  8
0
  6
Continuous
 62
     7
370
    25
100
AcDbLine
 10
-26.6754773219
 20
-32.5867406989
 30
0.0
 11
-26.9254773219
 21
-32.5867406989
 31
0.0
  0
LINE
  5
450
330
1F
100
AcDbEntity
  8
0
  6
Continuous
 62
     7
370
    25
100
AcDbLine
 10
-26.9254773219
 20
-32.5867406989
 30
0.0
 11
-26.9254773219
 21
-32.8867406989
 31
0.0
  0
LINE
  5
451
330
1F
100
AcDbEntity
  8
0
  6
Continuous
 62
     7
370
    25
100
AcDbLine
 10
-26.9254773219
 20
-32.8867406989
 30
0.0
 11
-26.6754773219
 21
-32.8867406989
 31
0.0
  0
LINE
  5
452
330
1F
100
AcDbEntity
  8
0
  6
Continuous
 62
     7
370
    25
100
AcDbLine
 10
-26.6754773219
 20
-32.8867406989
 30
0.0
 11
-26.6754773219
 21
-33.1867406989
 31
0.0
  0
LINE
  5
453
330
1F
100
AcDbEntity
  8
0
  6
Continuous
 62
     7
370
    25
100
AcDbLine
 10
-26.6754773219
 20
-33.1867406989
 30
0.0
 11
-28.6754773219
 21
-33.1867406989
 31
0.0
  0
LINE
  5
454
330
1F
100
AcDbEntity
  8
0
  6
Continuous
 62
     7
370
    25
100
AcDbLine
 10
-28.6754773219
 20
-33.1867406989
 30
0.0
 11
-28.6754773219
 21
-32.8867406989
 31
0.0
  0
LINE
  5
455
330
1F
100
AcDbEntity
  8
0
  6
Continuous
 62
     7
370
    25
100
AcDbLine
 10
-28.6754773219
 20
-32.8867406989
 30
0.0
 11
-28.4254773219
 21
-32.8867406989
 31
0.0
  0
LINE
  5
456
330
1F
100
AcDbEntity
  8
0
  6
Continuous
 62
     7
370
    25
100
AcDbLine
 10
-28.4254773219
 20
-32.8867406989
 30
0.0
 11
-28.4254773219
 21
-32.5867406989
 31
0.0
  0
LINE
  5
457
330
1F
100
AcDbEntity
  8
0
  6
Continuous
 62
     7
370
    25
100
AcDbLine
 10
-28.4254773219
 20
-32.5867406989
 30
0.0
 11
-28.6754773219
 21
-32.5867406989
 31
0.0
  0
LINE
  5
458
330
1F
100
AcDbEntity
  8
0
  6
Continuous
 62
     7
370
    25
100
AcDbLine
 10
-28.6754773219
 20
-32.5867406989
 30
0.0
 11
-28.6754773219
 21
-32.2736220558
 31
0.0
  0
LINE
  5
459
330
1F
100
AcDbEntity
  8
0
  6
Continuous
 62
     7
370
    25
100
AcDbLine
 10
-28.6754773219
 20
-32.2736220558
 30
0.0
 11
-29.1754773219
 21
-32.2736220558
 31
0.0
  0
LINE
  5
45A
330
1F
100
AcDbEntity
  8
0
  6
Continuous
 62
     7
370
    25
100
AcDbLine
 10
-29.1754773219
 20
-32.2736220558
 30
0.0
 11
-29.1754773219
 21
-29.0736220558
 31
0.0
  0
LINE
  5
45B
330
1F
100
AcDbEntity
  8
0
  6
Continuous
 62
     7
370
    25
100
AcDbLine
 10
-28.6754773219
 20
-29.0736220558
 30
0.0
 11
-29.1754773219
 21
-29.0736220558
 31
0.0
  0
LINE
  5
45C
330
1F
100
AcDbEntity
  8
0
  6
Continuous
 62
     7
370
    25
100
AcDbLine
 10
-26.6754773219
 20
-28.7736220558
 30
0.0
 11
-28.6754773219
 21
-28.7736220558
 31
0.0
  0
LINE
  5
45D
330
1F
100
AcDbEntity
  8
0
  6
Continuous
 62
     7
370
    25
100
AcDbLine
 10
-26.6754773219
 20
-29.0736220558
 30
0.0
 11
-26.6754773219
 21
-28.7736220558
 31
0.0
  0
LINE
  5
45E
330
1F
100
AcDbEntity
  8
0
  6
Continuous
 62
     7
370
    25
100
AcDbLine
 10
-24.6754773219
 20
-29.0736220558
 30
0.0
 11
-26.6754773219
 21
-29.0736220558
 31
0.0
  0
LINE
  5
45F
330
1F
100
AcDbEntity
  8
0
  6
Continuous
 62
     7
370
    25
100
AcDbLine
 10
-24.6754773219
 20
-28.7736220558
 30
0.0
 11
-24.6754773219
 21
-29.0736220558
 31
0.0
  0
LINE
  5
460
330
1F
100
AcDbEntity
  8
0
  6
Continuous
 62
     7
370
    25
100
AcDbLine
 10
-22.6754773219
 20
-28.7736220558
 30
0.0
 11
-24.6754773219
 21
-28.7736220558
 31
0.0
  0
LINE
  5
461
330
1F
100
AcDbEntity
  8
0
  6
Continuous
 62
     7
370
    25
100
AcDbLine
 10
-22.6754773219
 20
-28.7736220558
 30
0.0
 11
-22.6754773219
 21
-32.5867406989
 31
0.0
  0
LINE
  5
462
330
1F
100
AcDbEntity
  8
0
  6
Continuous
 62
     7
370
    25
100
AcDbLine
 10
-28.6754773219
 20
-28.7736220558
 30
0.0
 11
-28.6754773219
 21
-29.0736220558
 31
0.0
  0
LINE
  5
463
330
1F
100
AcDbEntity
  8
0
  6
Continuous
 62
     7
370
    25
100
AcDbLine
 10
-2.4654833268
 20
-24.7592679732
 30
0.0
 11
-4.6654833268
 21
-24.7592679732
 31
0.0
  0
LINE
  5
464
330
1F
100
AcDbEntity
  8
0
  6
Continuous
 62
     7
370
    25
100
AcDbLine
 10
-4.3154833268
 20
-24.4592679732
 30
0.0
 11
-2.8154833268
 21
-24.4592679732
 31
0.0
  0
LINE
  5
465
330
1F
100
AcDbEntity
  8
0
  6
Continuous
 62
     7
370
    25
100
AcDbLine
 10
-4.8154833268
 20
-24.6092679732
 30
0.0
 11
-4.8154833268
 21
-23.7092679732
 31
0.0
  0
LINE
  5
466
330
1F
100
AcDbEntity
  8
0
  6
Continuous
 62
     7
370
    25
100
AcDbLine
 10
-2.8154833268
 20
-24.4592679732
 30
0.0
 11
-2.8154833268
 21
-23.7092679732
 31
0.0
  0
LINE
  5
467
330
1F
100
AcDbEntity
  8
0
  6
Continuous
 62
     7
370
    25
100
AcDbLine
 10
-4.3154833268
 20
-23.7092679732
 30
0.0
 11
-4.3154833268
 21
-24.4592679732
 31
0.0
  0
LINE
  5
468
330
1F
100
AcDbEntity
  8
0
  6
Continuous
 62
     7
370
    25
100
AcDbLine
 10
-2.3154833268
 20
-23.7092679732
 30
0.0
 11
-2.3154833268
 21
-24.6092679732
 31
0.0
  0
LINE
  5
469
330
1F
100
AcDbEntity
  8
0
  6
Continuous
 62
     7
370
    25
100
AcDbLine
 10
-2.4654833268
 20
-23.3592679732
 30
0.0
 11
-4.6654833268
 21
-23.3592679732
 31
0.0
  0
LINE
  5
46A
330
1F
100
AcDbEntity
  8
0
  6
Continuous
 62
     7
370
    25
100
AcDbLine
 10
-4.8154833268
 20
-23.2092679732
 30
0.0
 11
-4.8154833268
 21
-22.3092679732
 31
0.0
  0
LINE
  5
46B
330
1F
100
AcDbEntity
  8
0
  6
Continuous
 62
     7
370
    25
100
AcDbLine
 10
-4.3154833268
 20
-22.3092679732
 30
0.0
 11
-4.3154833268
 21
-23.0592679732
 31
0.0
  0
LINE
  5
46C
330
1F
100
AcDbEntity
  8
0
  6
Continuous
 62
     7
370
    25
100
AcDbLine
 10
-4.3154833268
 20
-23.0592679732
 30
0.0
 11
-2.8154833268
 21
-23.0592679732
 31
0.0
  0
LINE
  5
46D
330
1F
100
AcDbEntity
  8
0
  6
Continuous
 62
     7
370
    25
100
AcDbLine
 10
-2.8154833268
 20
-23.0592679732
 30
0.0
 11
-2.8154833268
 21
-22.3092679732
 31
0.0
  0
LINE
  5
46E
330
1F
100
AcDbEntity
  8
0
  6
Continuous
 62
     7
370
    25
100
AcDbLine
 10
-2.3154833268
 20
-22.3092679732
 30
0.0
 11
-2.3154833268
 21
-23.2092679732
 31
0.0
  0
LINE
  5
46F
330
1F
100
AcDbEntity
  8
0
  6
Continuous
 62
     7
370
    25
100
AcDbLine
 10
-2.4654833268
 20
-21.9592679732
 30
0.0
 11
-4.6654833268
 21
-21.9592679732
 31
0.0
  0
LINE
  5
470
330
1F
100
AcDbEntity
  8
0
  6
Continuous
 62
     7
370
    25
100
AcDbLine
 10
-4.8154833268
 20
-21.8092679732
 30
0.0
 11
-4.8154833268
 21
-20.9092679732
 31
0.0
  0
LINE
  5
471
330
1F
100
AcDbEntity
  8
0
  6
Continuous
 62
     7
370
    25
100
AcDbLine
 10
-4.3154833268
 20
-20.9092679732
 30
0.0
 11
-4.3154833268
 21
-21.6592679732
 31
0.0
  0
LINE
  5
472
330
1F
100
AcDbEntity
  8
0
  6
Continuous
 62
     7
370
    25
100
AcDbLine
 10
-4.3154833268
 20
-21.6592679732
 30
0.0
 11
-2.8154833268
 21
-21.6592679732
 31
0.0
  0
LINE
  5
473
330
1F
100
AcDbEntity
  8
0
  6
Continuous
 62
     7
370
    25
100
AcDbLine
 10
-2.8154833268
 20
-21.6592679732
 30
0.0
 11
-2.8154833268
 21
-20.9092679732
 31
0.0
  0
LINE
  5
474
330
1F
100
AcDbEntity
  8
0
  6
Continuous
 62
     7
370
    25
100
AcDbLine
 10
-2.3154833268
 20
-20.9092679732
 30
0.0
 11
-2.3154833268
 21
-21.8092679732
 31
0.0
  0
LINE
  5
475
330
1F
100
AcDbEntity
  8
0
  6
Continuous
 62
     7
370
    25
100
AcDbLine
 10
-2.4654833268
 20
-20.5592679732
 30
0.0
 11
-4.6654833268
 21
-20.5592679732
 31
0.0
  0
LINE
  5
476
330
1F
100
AcDbEntity
  8
0
  6
Continuous
 62
     7
370
    25
100
AcDbLine
 10
-4.8154833268
 20
-20.4092679732
 30
0.0
 11
-4.8154833268
 21
-19.5092679732
 31
0.0
  0
LINE
  5
477
330
1F
100
AcDbEntity
  8
0
  6
Continuous
 62
     7
370
    25
100
AcDbLine
 10
-4.3154833268
 20
-19.5092679732
 30
0.0
 11
-4.3154833268
 21
-20.2592679732
 31
0.0
  0
LINE
  5
478
330
1F
100
AcDbEntity
  8
0
  6
Continuous
 62
     7
370
    25
100
AcDbLine
 10
-4.3154833268
 20
-20.2592679732
 30
0.0
 11
-2.8154833268
 21
-20.2592679732
 31
0.0
  0
LINE
  5
479
330
1F
100
AcDbEntity
  8
0
  6
Continuous
 62
     7
370
    25
100
AcDbLine
 10
-2.8154833268
 20
-20.2592679732
 30
0.0
 11
-2.8154833268
 21
-19.5092679732
 31
0.0
  0
LINE
  5
47A
330
1F
100
AcDbEntity
  8
0
  6
Continuous
 62
     7
370
    25
100
AcDbLine
 10
-2.3154833268
 20
-19.5092679732
 30
0.0
 11
-2.3154833268
 21
-20.4092679732
 31
0.0
  0
LINE
  5
47B
330
1F
100
AcDbEntity
  8
0
  6
Continuous
 62
     7
370
    25
100
AcDbLine
 10
-2.4654833268
 20
-19.1592679732
 30
0.0
 11
-4.6654833268
 21
-19.1592679732
 31
0.0
  0
LINE
  5
47C
330
1F
100
AcDbEntity
  8
0
  6
Continuous
 62
     7
370
    25
100
AcDbLine
 10
-4.8154833268
 20
-19.0092679732
 30
0.0
 11
-4.8154833268
 21
-18.1092679732
 31
0.0
  0
LINE
  5
47D
330
1F
100
AcDbEntity
  8
0
  6
Continuous
 62
     7
370
    25
100
AcDbLine
 10
-4.3154833268
 20
-18.1092679732
 30
0.0
 11
-4.3154833268
 21
-18.8592679732
 31
0.0
  0
LINE
  5
47E
330
1F
100
AcDbEntity
  8
0
  6
Continuous
 62
     7
370
    25
100
AcDbLine
 10
-4.3154833268
 20
-18.8592679732
 30
0.0
 11
-2.8154833268
 21
-18.8592679732
 31
0.0
  0
LINE
  5
47F
330
1F
100
AcDbEntity
  8
0
  6
Continuous
 62
     7
370
    25
100
AcDbLine
 10
-2.8154833268
 20
-18.8592679732
 30
0.0
 11
-2.8154833268
 21
-18.1092679732
 31
0.0
  0
LINE
  5
480
330
1F
100
AcDbEntity
  8
0
  6
Continuous
 62
     7
370
    25
100
AcDbLine
 10
-2.3154833268
 20
-18.1092679732
 30
0.0
 11
-2.3154833268
 21
-19.0092679732
 31
0.0
  0
LINE
  5
481
330
1F
100
AcDbEntity
  8
0
  6
Continuous
 62
     7
370
    25
100
AcDbLine
 10
-2.8783171825
 20
-8.8815926718
 30
0.0
 11
-1.3783171825
 21
-8.8815926718
 31
0.0
  0
LINE
  5
482
330
1F
100
AcDbEntity
  8
0
  6
Continuous
 62
     7
370
    25
100
AcDbLine
 10
-2.8783171825
 20
-9.6315926718
 30
0.0
 11
-2.8783171825
 21
-8.8815926718
 31
0.0
  0
LINE
  5
483
330
1F
100
AcDbEntity
  8
0
  6
Continuous
 62
     7
370
    25
100
AcDbLine
 10
-3.3783171825
 20
-8.7315926718
 30
0.0
 11
-3.3783171825
 21
-9.6315926718
 31
0.0
  0
LINE
  5
484
330
1F
100
AcDbEntity
  8
0
  6
Continuous
 62
     7
370
    25
100
AcDbLine
 10
-1.0283171825
 20
-8.5815926718
 30
0.0
 11
-3.2283171825
 21
-8.5815926718
 31
0.0
  0
LINE
  5
485
330
1F
100
AcDbEntity
  8
0
  6
Continuous
 62
     7
370
    25
100
AcDbLine
 10
-1.3783171825
 20
-8.8815926718
 30
0.0
 11
-1.3783171825
 21
-9.6315926718
 31
0.0
  0
LINE
  5
486
330
1F
100
AcDbEntity
  8
0
  6
Continuous
 62
     7
370
    25
100
AcDbLine
 10
-0.8783171825
 20
-9.6315926718
 30
0.0
 11
-0.8783171825
 21
-8.7315926718
 31
0.0
  0
LINE
  5
487
330
1F
100
AcDbEntity
  8
0
  6
Continuous
 62
     7
370
    25
100
AcDbLine
 10
-5.7730212769
 20
-8.8632395479
 30
0.0
 11
-4.2730212769
 21
-8.8632395479
 31
0.0
  0
LINE
  5
488
330
1F
100
AcDbEntity
  8
0
  6
Continuous
 62
     7
370
    25
100
AcDbLine
 10
-5.7730212769
 20
-9.6132395479
 30
0.0
 11
-5.7730212769
 21
-8.8632395479
 31
0.0
  0
LINE
  5
489
330
1F
100
AcDbEntity
  8
0
  6
Continuous
 62
     7
370
    25
100
AcDbLine
 10
-4.2730212769
 20
-8.8632395479
 30
0.0
 11
-4.2730212769
 21
-9.6132395479
 31
0.0
  0
LINE
  5
48A
330
1F
100
AcDbEntity
  8
0
  6
Continuous
 62
     7
370
    25
100
AcDbLine
 10
-3.7730212769
 20
-9.6132395479
 30
0.0
 11
-3.7730212769
 21
-8.7132395479
 31
0.0
  0
LINE
  5
48B
330
1F
100
AcDbEntity
  8
0
  6
Continuous
 62
     7
370
    25
100
AcDbLine
 10
-6.2730212769
 20
-8.7132395479
 30
0.0
 11
-6.2730212769
 21
-9.6132395479
 31
0.0
  0
LINE
  5
48C
330
1F
100
AcDbEntity
  8
0
  6
Continuous
 62
     7
370
    25
100
AcDbLine
 10
-3.9230212769
 20
-8.5632395479
 30
0.0
 11
-6.1230212769
 21
-8.5632395479
 31
0.0
  0
LINE
  5
48D
330
1F
100
AcDbEntity
  8
0
  6
Continuous
 62
     7
370
    25
100
AcDbLine
 10
-2.4295757926
 20
-11.2323585674
 30
0.0
 11
-4.6295757926
 21
-11.2323585674
 31
0.0
  0
LINE
  5
48E
330
1F
100
AcDbEntity
  8
0
  6
Continuous
 62
     7
370
    25
100
AcDbLine
 10
-4.2795757926
 20
-10.9323585674
 30
0.0
 11
-2.7795757926
 21
-10.9323585674
 31
0.0
  0
LINE
  5
48F
330
1F
100
AcDbEntity
  8
0
  6
Continuous
 62
     7
370
    25
100
AcDbLine
 10
-2.2795757926
 20
-10.1823585674
 30
0.0
 11
-2.2795757926
 21
-11.0823585674
 31
0.0
  0
LINE
  5
490
330
1F
100
AcDbEntity
  8
0
  6
Continuous
 62
     7
370
    25
100
AcDbLine
 10
-2.7795757926
 20
-10.9323585674
 30
0.0
 11
-2.7795757926
 21
-10.1823585674
 31
0.0
  0
LINE
  5
491
330
1F
100
AcDbEntity
  8
0
  6
Continuous
 62
     7
370
    25
100
AcDbLine
 10
-4.2795757926
 20
-10.1823585674
 30
0.0
 11
-4.2795757926
 21
-10.9323585674
 31
0.0
  0
LINE
  5
492
330
1F
100
AcDbEntity
  8
0
  6
Continuous
 62
     7
370
    25
100
AcDbLine
 10
-4.7795757926
 20
-11.0823585674
 30
0.0
 11
-4.7795757926
 21
-10.1823585674
 31
0.0
  0
LINE
  5
493
330
1F
100
AcDbEntity
  8
0
  6
Continuous
 62
     7
370
    25
100
AcDbLine
 10
-28.5979879882
 20
-27.5594064072
 30
0.0
 11
-28.5979879882
 21
-26.0594064072
 31
0.0
  0
LINE
  5
494
330
1F
100
AcDbEntity
  8
0
  6
Continuous
 62
     7
370
    25
100
AcDbLine
 10
-27.8479879882
 20
-27.5594064072
 30
0.0
 11
-28.5979879882
 21
-27.5594064072
 31
0.0
  0
LINE
  5
495
330
1F
100
AcDbEntity
  8
0
  6
Continuous
 62
     7
370
    25
100
AcDbLine
 10
-28.7479879882
 20
-28.0594064072
 30
0.0
 11
-27.8479879882
 21
-28.0594064072
 31
0.0
  0
LINE
  5
496
330
1F
100
AcDbEntity
  8
0
  6
Continuous
 62
     7
370
    25
100
AcDbLine
 10
-28.8979879882
 20
-25.7094064072
 30
0.0
 11
-28.8979879882
 21
-27.9094064072
 31
0.0
  0
LINE
  5
497
330
1F
100
AcDbEntity
  8
0
  6
Continuous
 62
     7
370
    25
100
AcDbLine
 10
-27.8479879882
 20
-25.5594064072
 30
0.0
 11
-28.7479879882
 21
-25.5594064072
 31
0.0
  0
LINE
  5
498
330
1F
100
AcDbEntity
  8
0
  6
Continuous
 62
     7
370
    25
100
AcDbLine
 10
-28.5979879882
 20
-26.0594064072
 30
0.0
 11
-27.8479879882
 21
-26.0594064072
 31
0.0
  0
LINE
  5
499
330
1F
100
AcDbEntity
  8
0
  6
Continuous
 62
     7
370
    25
100
AcDbLine
 10
-28.6211582773
 20
-20.2839356221
 30
0.0
 11
-28.6211582773
 21
-18.7839356221
 31
0.0
  0
LINE
  5
49A
330
1F
100
AcDbEntity
  8
0
  6
Continuous
 62
     7
370
    25
100
AcDbLine
 10
-27.8711582773
 20
-20.2839356221
 30
0.0
 11
-28.6211582773
 21
-20.2839356221
 31
0.0
  0
LINE
  5
49B
330
1F
100
AcDbEntity
  8
0
  6
Continuous
 62
     7
370
    25
100
AcDbLine
 10
-28.7711582773
 20
-20.7839356221
 30
0.0
 11
-27.8711582773
 21
-20.7839356221
 31
0.0
  0
LINE
  5
49C
330
1F
100
AcDbEntity
  8
0
  6
Continuous
 62
     7
370
    25
100
AcDbLine
 10
-28.9211582773
 20
-18.4339356221
 30
0.0
 11
-28.9211582773
 21
-20.6339356221
 31
0.0
  0
LINE
  5
49D
330
1F
100
AcDbEntity
  8
0
  6
Continuous
 62
     7
370
    25
100
AcDbLine
 10
-27.8711582773
 20
-18.2839356221
 30
0.0
 11
-28.7711582773
 21
-18.2839356221
 31
0.0
  0
LINE
  5
49E
330
1F
100
AcDbEntity
  8
0
  6
Continuous
 62
     7
370
    25
100
AcDbLine
 10
-28.6211582773
 20
-18.7839356221
 30
0.0
 11
-27.8711582773
 21
-18.7839356221
 31
0.0
  0
LINE
  5
49F
330
1F
100
AcDbEntity
  8
0
  6
Continuous
 62
     7
370
    25
100
AcDbLine
 10
-28.6211582773
 20
-17.4339900598
 30
0.0
 11
-28.6211582773
 21
-15.9339900598
 31
0.0
  0
LINE
  5
4A0
330
1F
100
AcDbEntity
  8
0
  6
Continuous
 62
     7
370
    25
100
AcDbLine
 10
-27.8711582773
 20
-17.4339900598
 30
0.0
 11
-28.6211582773
 21
-17.4339900598
 31
0.0
  0
LINE
  5
4A1
330
1F
100
AcDbEntity
  8
0
  6
Continuous
 62
     7
370
    25
100
AcDbLine
 10
-28.7711582773
 20
-17.9339900598
 30
0.0
 11
-27.8711582773
 21
-17.9339900598
 31
0.0
  0
LINE
  5
4A2
330
1F
100
AcDbEntity
  8
0
  6
Continuous
 62
     7
370
    25
100
AcDbLine
 10
-28.9211582773
 20
-15.5839900598
 30
0.0
 11
-28.9211582773
 21
-17.7839900598
 31
0.0
  0
LINE
  5
4A3
330
1F
100
AcDbEntity
  8
0
  6
Continuous
 62
     7
370
    25
100
AcDbLine
 10
-27.8711582773
 20
-15.4339900598
 30
0.0
 11
-28.7711582773
 21
-15.4339900598
 31
0.0
  0
LINE
  5
4A4
330
1F
100
AcDbEntity
  8
0
  6
Continuous
 62
     7
370
    25
100
AcDbLine
 10
-28.6211582773
 20
-15.9339900598
 30
0.0
 11
-27.8711582773
 21
-15.9339900598
 31
0.0
  0
LINE
  5
4A5
330
1F
100
AcDbEntity
  8
0
  6
Continuous
 62
     7
370
    25
100
AcDbLine
 10
-2.4654833268
 20
-17.7592679732
 30
0.0
 11
-4.6654833268
 21
-17.7592679732
 31
0.0
  0
LINE
  5
4A6
330
1F
100
AcDbEntity
  8
0
  6
Continuous
 62
     7
370
    25
100
AcDbLine
 10
-4.3154833268
 20
-17.4592679732
 30
0.0
 11
-2.8154833268
 21
-17.4592679732
 31
0.0
  0
LINE
  5
4A7
330
1F
100
AcDbEntity
  8
0
  6
Continuous
 62
     7
370
    25
100
AcDbLine
 10
-2.8154833268
 20
-17.4592679732
 30
0.0
 11
-2.8154833268
 21
-16.7092679732
 31
0.0
  0
LINE
  5
4A8
330
1F
100
AcDbEntity
  8
0
  6
Continuous
 62
     7
370
    25
100
AcDbLine
 10
-4.8154833268
 20
-17.6092679732
 30
0.0
 11
-4.8154833268
 21
-16.7092679732
 31
0.0
  0
LINE
  5
4A9
330
1F
100
AcDbEntity
  8
0
  6
Continuous
 62
     7
370
    25
100
AcDbLine
 10
-4.3154833268
 20
-16.7092679732
 30
0.0
 11
-4.3154833268
 21
-17.4592679732
 31
0.0
  0
LINE
  5
4AA
330
1F
100
AcDbEntity
  8
0
  6
Continuous
 62
     7
370
    25
100
AcDbLine
 10
-2.3154833268
 20
-16.7092679732
 30
0.0
 11
-2.3154833268
 21
-17.6092679732
 31
0.0
  0
LINE
  5
4AB
330
1F
100
AcDbEntity
  8
0
  6
Continuous
 62
     7
370
    25
100
AcDbLine
 10
-27.3079803244
 20
-17.1676539912
 30
0.0
 11
-27.0579803244
 21
-17.1676539912
 31
0.0
  0
LINE
  5
4AC
330
1F
100
AcDbEntity
  8
0
  6
Continuous
 62
     7
370
    25
100
AcDbLine
 10
-27.0579803244
 20
-16.8676539912
 30
0.0
 11
-27.0579803244
 21
-17.1676539912
 31
0.0
  0
LINE
  5
4AD
330
1F
100
AcDbEntity
  8
0
  6
Continuous
 62
     7
370
    25
100
AcDbLine
 10
-27.3079803244
 20
-16.8676539912
 30
0.0
 11
-27.0579803244
 21
-16.8676539912
 31
0.0
  0
LINE
  5
4AE
330
1F
100
AcDbEntity
  8
0
  6
Continuous
 62
     7
370
    25
100
AcDbLine
 10
-27.3079803244
 20
-16.5676539912
 30
0.0
 11
-27.3079803244
 21
-16.8676539912
 31
0.0
  0
LINE
  5
4AF
330
1F
100
AcDbEntity
  8
0
  6
Continuous
 62
     7
370
    25
100
AcDbLine
 10
-27.3079803244
 20
-16.5676539912
 30
0.0
 11
-25.3079803244
 21
-16.5676539912
 31
0.0
  0
LINE
  5
4B0
330
1F
100
AcDbEntity
  8
0
  6
Continuous
 62
     7
370
    25
100
AcDbLine
 10
-25.3079803244
 20
-16.5676539912
 30
0.0
 11
-25.3079803244
 21
-16.8676539912
 31
0.0
  0
LINE
  5
4B1
330
1F
100
AcDbEntity
  8
0
  6
Continuous
 62
     7
370
    25
100
AcDbLine
 10
-25.5579803244
 20
-16.8676539912
 30
0.0
 11
-25.3079803244
 21
-16.8676539912
 31
0.0
  0
LINE
  5
4B2
330
1F
100
AcDbEntity
  8
0
  6
Continuous
 62
     7
370
    25
100
AcDbLine
 10
-25.5579803244
 20
-16.8676539912
 30
0.0
 11
-25.5579803244
 21
-17.1676539912
 31
0.0
  0
LINE
  5
4B3
330
1F
100
AcDbEntity
  8
0
  6
Continuous
 62
     7
370
    25
100
AcDbLine
 10
-25.5579803244
 20
-17.1676539912
 30
0.0
 11
-25.3079803244
 21
-17.1676539912
 31
0.0
  0
LINE
  5
4B4
330
1F
100
AcDbEntity
  8
0
  6
Continuous
 62
     7
370
    25
100
AcDbLine
 10
-25.3079803244
 20
-17.4807726343
 30
0.0
 11
-25.3079803244
 21
-17.1676539912
 31
0.0
  0
LINE
  5
4B5
330
1F
100
AcDbEntity
  8
0
  6
Continuous
 62
     7
370
    25
100
AcDbLine
 10
-25.3079803244
 20
-17.4807726343
 30
0.0
 11
-23.3079803244
 21
-17.4807726343
 31
0.0
  0
LINE
  5
4B6
330
1F
100
AcDbEntity
  8
0
  6
Continuous
 62
     7
370
    25
100
AcDbLine
 10
-23.3079803244
 20
-17.4807726343
 30
0.0
 11
-23.3079803244
 21
-17.1676539912
 31
0.0
  0
LINE
  5
4B7
330
1F
100
AcDbEntity
  8
0
  6
Continuous
 62
     7
370
    25
100
AcDbLine
 10
-23.3079803244
 20
-17.1676539912
 30
0.0
 11
-23.0579803244
 21
-17.1676539912
 31
0.0
  0
LINE
  5
4B8
330
1F
100
AcDbEntity
  8
0
  6
Continuous
 62
     7
370
    25
100
AcDbLine
 10
-23.0579803244
 20
-16.8676539912
 30
0.0
 11
-23.0579803244
 21
-17.1676539912
 31
0.0
  0
LINE
  5
4B9
330
1F
100
AcDbEntity
  8
0
  6
Continuous
 62
     7
370
    25
100
AcDbLine
 10
-23.3079803244
 20
-16.8676539912
 30
0.0
 11
-23.0579803244
 21
-16.8676539912
 31
0.0
  0
LINE
  5
4BA
330
1F
100
AcDbEntity
  8
0
  6
Continuous
 62
     7
370
    25
100
AcDbLine
 10
-23.3079803244
 20
-16.5676539912
 30
0.0
 11
-23.3079803244
 21
-16.8676539912
 31
0.0
  0
LINE
  5
4BB
330
1F
100
AcDbEntity
  8
0
  6
Continuous
 62
     7
370
    25
100
AcDbLine
 10
-23.3079803244
 20
-16.5676539912
 30
0.0
 11
-21.3079803244
 21
-16.5676539912
 31
0.0
  0
LINE
  5
4BC
330
1F
100
AcDbEntity
  8
0
  6
Continuous
 62
     7
370
    25
100
AcDbLine
 10
-21.3079803244
 20
-16.5676539912
 30
0.0
 11
-21.3079803244
 21
-16.8676539912
 31
0.0
  0
LINE
  5
4BD
330
1F
100
AcDbEntity
  8
0
  6
Continuous
 62
     7
370
    25
100
AcDbLine
 10
-21.5579803244
 20
-16.8676539912
 30
0.0
 11
-21.3079803244
 21
-16.8676539912
 31
0.0
  0
LINE
  5
4BE
330
1F
100
AcDbEntity
  8
0
  6
Continuous
 62
     7
370
    25
100
AcDbLine
 10
-21.5579803244
 20
-16.8676539912
 30
0.0
 11
-21.5579803244
 21
-17.1676539912
 31
0.0
  0
LINE
  5
4BF
330
1F
100
AcDbEntity
  8
0
  6
Continuous
 62
     7
370
    25
100
AcDbLine
 10
-21.5579803244
 20
-17.1676539912
 30
0.0
 11
-21.3079803244
 21
-17.1676539912
 31
0.0
  0
LINE
  5
4C0
330
1F
100
AcDbEntity
  8
0
  6
Continuous
 62
     7
370
    25
100
AcDbLine
 10
-21.3079803244
 20
-20.9807726343
 30
0.0
 11
-21.3079803244
 21
-17.1676539912
 31
0.0
  0
LINE
  5
4C1
330
1F
100
AcDbEntity
  8
0
  6
Continuous
 62
     7
370
    25
100
AcDbLine
 10
-23.3079803244
 20
-20.9807726343
 30
0.0
 11
-21.3079803244
 21
-20.9807726343
 31
0.0
  0
LINE
  5
4C2
330
1F
100
AcDbEntity
  8
0
  6
Continuous
 62
     7
370
    25
100
AcDbLine
 10
-23.3079803244
 20
-20.6807726343
 30
0.0
 11
-23.3079803244
 21
-20.9807726343
 31
0.0
  0
LINE
  5
4C3
330
1F
100
AcDbEntity
  8
0
  6
Continuous
 62
     7
370
    25
100
AcDbLine
 10
-25.3079803244
 20
-20.6807726343
 30
0.0
 11
-23.3079803244
 21
-20.6807726343
 31
0.0
  0
LINE
  5
4C4
330
1F
100
AcDbEntity
  8
0
  6
Continuous
 62
     7
370
    25
100
AcDbLine
 10
-25.3079803244
 20
-20.9807726343
 30
0.0
 11
-25.3079803244
 21
-20.6807726343
 31
0.0
  0
LINE
  5
4C5
330
1F
100
AcDbEntity
  8
0
  6
Continuous
 62
     7
370
    25
100
AcDbLine
 10
-27.3079803244
 20
-20.9807726343
 30
0.0
 11
-25.3079803244
 21
-20.9807726343
 31
0.0
  0
LINE
  5
4C6
330
1F
100
AcDbEntity
  8
0
  6
Continuous
 62
     7
370
    25
100
AcDbLine
 10
-27.3079803244
 20
-20.9807726343
 30
0.0
 11
-27.3079803244
 21
-17.1676539912
 31
0.0
  0
LINE
  5
4C7
330
1F
100
AcDbEntity
  8
0
  6
Continuous
 62
     7
370
    25
100
AcDbLine
 10
-11.2761367406
 20
-19.59885789
 30
0.0
 11
-10.1398239081
 21
-19.59885789
 31
0.0
  0
LINE
  5
4C8
330
1F
100
AcDbEntity
  8
0
  6
Continuous
 62
     7
370
    25
100
AcDbLine
 10
-11.2761367406
 20
-18.6196780564
 30
0.0
 11
-10.1398239081
 21
-18.6196780564
 31
0.0
  0
LINE
  5
4C9
330
1F
100
AcDbEntity
  8
0
  6
Continuous
 62
     7
370
    25
100
AcDbLine
 10
-16.0579803244
 20
-10.6122848069
 30
0.0
 11
-16.0579803244
 21
-10.9122848069
 31
0.0
  0
LINE
  5
4CA
330
1F
100
AcDbEntity
  8
0
  6
Continuous
 62
     7
370
    25
100
AcDbLine
 10
-16.0579803244
 20
-10.9122848069
 30
0.0
 11
-14.0579803244
 21
-10.9122848069
 31
0.0
  0
LINE
  5
4CB
330
1F
100
AcDbEntity
  8
0
  6
Continuous
 62
     7
370
    25
100
AcDbLine
 10
-14.0579803244
 20
-10.6122848069
 30
0.0
 11
-14.0579803244
 21
-10.9122848069
 31
0.0
  0
LINE
  5
4CC
330
1F
100
AcDbEntity
  8
0
  6
Continuous
 62
     7
370
    25
100
AcDbLine
 10
-16.0579803244
 20
-10.6122848069
 30
0.0
 11
-14.0579803244
 21
-10.6122848069
 31
0.0
  0
LINE
  5
4CD
330
1F
100
AcDbEntity
  8
0
  6
Continuous
 62
     7
370
    25
100
AcDbLine
 10
-10.0579803244
 20
-10.6122848069
 30
0.0
 11
-10.0579803244
 21
-10.9122848069
 31
0.0
  0
LINE
  5
4CE
330
1F
100
AcDbEntity
  8
0
  6
Continuous
 62
     7
370
    25
100
AcDbLine
 10
-12.0579803244
 20
-10.6122848069
 30
0.0
 11
-10.0579803244
 21
-10.6122848069
 31
0.0
  0
LINE
  5
4CF
330
1F
100
AcDbEntity
  8
0
  6
Continuous
 62
     7
370
    25
100
AcDbLine
 10
-12.0579803244
 20
-10.9122848069
 30
0.0
 11
-12.0579803244
 21
-10.6122848069
 31
0.0
  0
LINE
  5
4D0
330
1F
100
AcDbEntity
  8
0
  6
Continuous
 62
     7
370
    25
100
AcDbLine
 10
-12.0579803244
 20
-10.9122848069
 30
0.0
 11
-10.0579803244
 21
-10.9122848069
 31
0.0
  0
LINE
  5
4D1
330
1F
100
AcDbEntity
  8
0
  6
Continuous
 62
     7
370
    25
100
AcDbLine
 10
-19.4079803244
 20
-19.8592679732
 30
0.0
 11
-19.1079803244
 21
-19.8592679732
 31
0.0
  0
LINE
  5
4D2
330
1F
100
AcDbEntity
  8
0
  6
Continuous
 62
     7
370
    25
100
AcDbLine
 10
-19.1079803244
 20
-19.8592679732
 30
0.0
 11
-19.1079803244
 21
-17.8592679732
 31
0.0
  0
LINE
  5
4D3
330
1F
100
AcDbEntity
  8
0
  6
Continuous
 62
     7
370
    25
100
AcDbLine
 10
-19.1079803244
 20
-17.8592679732
 30
0.0
 11
-19.4079803244
 21
-17.8592679732
 31
0.0
  0
LINE
  5
4D4
330
1F
100
AcDbEntity
  8
0
  6
Continuous
 62
     7
370
    25
100
AcDbLine
 10
-19.4079803244
 20
-17.8592679732
 30
0.0
 11
-19.4079803244
 21
-19.8592679732
 31
0.0
  0
LINE
  5
4D5
330
1F
100
AcDbEntity
  8
0
  6
Continuous
 62
     7
370
    25
100
AcDbLine
 10
-19.4079803244
 20
-23.8592679732
 30
0.0
 11
-19.1079803244
 21
-23.8592679732
 31
0.0
  0
LINE
  5
4D6
330
1F
100
AcDbEntity
  8
0
  6
Continuous
 62
     7
370
    25
100
AcDbLine
 10
-19.1079803244
 20
-23.8592679732
 30
0.0
 11
-19.1079803244
 21
-21.8592679732
 31
0.0
  0
LINE
  5
4D7
330
1F
100
AcDbEntity
  8
0
  6
Continuous
 62
     7
370
    25
100
AcDbLine
 10
-19.1079803244
 20
-21.8592679732
 30
0.0
 11
-19.4079803244
 21
-21.8592679732
 31
0.0
  0
LINE
  5
4D8
330
1F
100
AcDbEntity
  8
0
  6
Continuous
 62
     7
370
    25
100
AcDbLine
 10
-19.4079803244
 20
-21.8592679732
 30
0.0
 11
-19.4079803244
 21
-23.8592679732
 31
0.0
  0
LINE
  5
4D9
330
1F
100
AcDbEntity
  8
0
  6
Continuous
 62
     7
370
    25
100
AcDbLine
 10
-7.0079803244
 20
-23.8592679732
 30
0.0
 11
-6.7079803244
 21
-23.8592679732
 31
0.0
  0
LINE
  5
4DA
330
1F
100
AcDbEntity
  8
0
  6
Continuous
 62
     7
370
    25
100
AcDbLine
 10
-6.7079803244
 20
-23.8592679732
 30
0.0
 11
-6.7079803244
 21
-21.8592679732
 31
0.0
  0
LINE
  5
4DB
330
1F
100
AcDbEntity
  8
0
  6
Continuous
 62
     7
370
    25
100
AcDbLine
 10
-6.7079803244
 20
-21.8592679732
 30
0.0
 11
-7.0079803244
 21
-21.8592679732
 31
0.0
  0
LINE
  5
4DC
330
1F
100
AcDbEntity
  8
0
  6
Continuous
 62
     7
370
    25
100
AcDbLine
 10
-7.0079803244
 20
-21.8592679732
 30
0.0
 11
-7.0079803244
 21
-23.8592679732
 31
0.0
  0
LINE
  5
4DD
330
1F
100
AcDbEntity
  8
0
  6
Continuous
 62
     7
370
    25
100
AcDbLine
 10
-7.0079803244
 20
-19.8592679732
 30
0.0
 11
-6.7079803244
 21
-19.8592679732
 31
0.0
  0
LINE
  5
4DE
330
1F
100
AcDbEntity
  8
0
  6
Continuous
 62
     7
370
    25
100
AcDbLine
 10
-6.7079803244
 20
-19.8592679732
 30
0.0
 11
-6.7079803244
 21
-17.8592679732
 31
0.0
  0
LINE
  5
4DF
330
1F
100
AcDbEntity
  8
0
  6
Continuous
 62
     7
370
    25
100
AcDbLine
 10
-6.7079803244
 20
-17.8592679732
 30
0.0
 11
-7.0079803244
 21
-17.8592679732
 31
0.0
  0
LINE
  5
4E0
330
1F
100
AcDbEntity
  8
0
  6
Continuous
 62
     7
370
    25
100
AcDbLine
 10
-7.0079803244
 20
-17.8592679732
 30
0.0
 11
-7.0079803244
 21
-19.8592679732
 31
0.0
  0
LINE
  5
4E1
330
1F
100
AcDbEntity
  8
0
  6
Continuous
 62
     7
370
    25
100
AcDbLine
 10
-5.0579803244
 20
-25.3592679732
 30
0.0
 11
-3.6904833268
 21
-25.3592679732
 31
0.0
  0
LINE
  5
4E2
330
1F
100
AcDbEntity
  8
0
  6
Continuous
 62
     7
370
    25
100
AcDbLine
 10
-3.6904833268
 20
-25.3592679732
 30
0.0
 11
-3.6904833268
 21
-29.1357406519
 31
0.0
  0
LINE
  5
4E3
330
1F
100
AcDbEntity
  8
0
  6
Continuous
 62
     7
370
    25
100
AcDbLine
 10
-22.4254773219
 20
-25.3592679732
 30
0.0
 11
-22.4254773219
 21
-29.1357406519
 31
0.0
  0
LINE
  5
4E4
330
1F
100
AcDbEntity
  8
0
  6
Continuous
 62
     7
370
    25
100
AcDbLine
 10
-22.4254773219
 20
-25.3592679732
 30
0.0
 11
-21.0579803244
 21
-25.3592679732
 31
0.0
  0
LINE
  5
4E5
330
1F
100
AcDbEntity
  8
0
  6
Continuous
 62
     7
370
    25
100
AcDbLine
 10
-21.0579803244
 20
-16.3592679732
 30
0.0
 11
-21.0579803244
 21
-25.3592679732
 31
0.0
  0
LINE
  5
4E6
330
1F
100
AcDbEntity
  8
0
  6
Continuous
 62
     7
370
    25
100
AcDbLine
 10
-21.0579803244
 20
-16.3592679732
 30
0.0
 11
-22.4254773219
 21
-16.3592679732
 31
0.0
  0
LINE
  5
4E7
330
1F
100
AcDbEntity
  8
0
  6
Continuous
 62
     7
370
    25
100
AcDbLine
 10
-22.4254773219
 20
-16.3592679732
 30
0.0
 11
-22.4254773219
 21
-12.5827952946
 31
0.0
  0
LINE
  5
4E8
330
1F
100
AcDbEntity
  8
0
  6
Continuous
 62
     7
370
    25
100
AcDbLine
 10
-3.6904833268
 20
-16.3592679732
 30
0.0
 11
-3.6904833268
 21
-12.5827952946
 31
0.0
  0
LINE
  5
4E9
330
1F
100
AcDbEntity
  8
0
  6
Continuous
 62
     7
370
    25
100
AcDbLine
 10
-3.6904833268
 20
-16.3592679732
 30
0.0
 11
-5.0579803244
 21
-16.3592679732
 31
0.0
  0
LINE
  5
4EA
330
1F
100
AcDbEntity
  8
0
  6
Continuous
 62
     7
370
    25
100
AcDbLine
 10
-5.0579803244
 20
-25.3592679732
 30
0.0
 11
-5.0579803244
 21
-16.3592679732
 31
0.0
  0
LINE
  5
4EB
330
1F
100
AcDbEntity
  8
0
  6
Continuous
 62
     7
370
    25
100
AcDbLine
 10
-15.9669973187
 20
-18.6092679732
 30
0.0
 11
-14.84896333
 21
-18.6092679732
 31
0.0
  0
LINE
  5
4EC
330
1F
100
AcDbEntity
  8
0
  6
Continuous
 62
     7
370
    25
100
AcDbLine
 10
-15.9669973187
 20
-19.6092679732
 30
0.0
 11
-14.84896333
 21
-19.6092679732
 31
0.0
  0
LINE
  5
4ED
330
1F
100
AcDbEntity
  8
0
  6
Continuous
 62
     7
370
    25
100
AcDbLine
 10
-13.2079803244
 20
-26.2092679732
 30
0.0
 11
-12.9079803244
 21
-26.2092679732
 31
0.0
  0
LINE
  5
4EE
330
1F
100
AcDbEntity
  8
0
  6
Continuous
 62
     7
370
    25
100
AcDbLine
 10
-12.9079803244
 20
-26.2092679732
 30
0.0
 11
-12.9079803244
 21
-24.2092679732
 31
0.0
  0
LINE
  5
4EF
330
1F
100
AcDbEntity
  8
0
  6
Continuous
 62
     7
370
    25
100
AcDbLine
 10
-12.9079803244
 20
-24.2092679732
 30
0.0
 11
-13.2079803244
 21
-24.2092679732
 31
0.0
  0
LINE
  5
4F0
330
1F
100
AcDbEntity
  8
0
  6
Continuous
 62
     7
370
    25
100
AcDbLine
 10
-13.2079803244
 20
-24.2092679732
 30
0.0
 11
-13.2079803244
 21
-26.2092679732
 31
0.0
  0
LINE
  5
4F1
330
1F
100
AcDbEntity
  8
0
  6
Continuous
 62
     7
370
    25
100
AcDbLine
 10
-12.9079803244
 20
-30.3592679732
 30
0.0
 11
-13.2079803244
 21
-30.3592679732
 31
0.0
  0
LINE
  5
4F2
330
1F
100
AcDbEntity
  8
0
  6
Continuous
 62
     7
370
    25
100
AcDbLine
 10
-13.2079803244
 20
-30.3592679732
 30
0.0
 11
-13.2079803244
 21
-32.3592679732
 31
0.0
  0
LINE
  5
4F3
330
1F
100
AcDbEntity
  8
0
  6
Continuous
 62
     7
370
    25
100
AcDbLine
 10
-13.2079803244
 20
-32.3592679732
 30
0.0
 11
-12.9079803244
 21
-32.3592679732
 31
0.0
  0
LINE
  5
4F4
330
1F
100
AcDbEntity
  8
0
  6
Continuous
 62
     7
370
    25
100
AcDbLine
 10
-12.9079803244
 20
-32.3592679732
 30
0.0
 11
-12.9079803244
 21
-30.3592679732
 31
0.0
  0
LINE
  5
4F5
330
1F
100
AcDbEntity
  8
0
  6
Continuous
 62
     7
370
    25
100
AcDbLine
 10
-10.0579803244
 20
-31.3592679732
 30
0.0
 11
-10.0579803244
 21
-31.0592679732
 31
0.0
  0
LINE
  5
4F6
330
1F
100
AcDbEntity
  8
0
  6
Continuous
 62
     7
370
    25
100
AcDbLine
 10
-10.0579803244
 20
-31.0592679732
 30
0.0
 11
-12.0579803244
 21
-31.0592679732
 31
0.0
  0
LINE
  5
4F7
330
1F
100
AcDbEntity
  8
0
  6
Continuous
 62
     7
370
    25
100
AcDbLine
 10
-12.0579803244
 20
-31.0592679732
 30
0.0
 11
-12.0579803244
 21
-31.3592679732
 31
0.0
  0
LINE
  5
4F8
330
1F
100
AcDbEntity
  8
0
  6
Continuous
 62
     7
370
    25
100
AcDbLine
 10
-12.0579803244
 20
-31.3592679732
 30
0.0
 11
-10.0579803244
 21
-31.3592679732
 31
0.0
  0
LINE
  5
4F9
330
1F
100
AcDbEntity
  8
0
  6
Continuous
 62
     7
370
    25
100
AcDbLine
 10
-16.0579803244
 20
-27.2092679732
 30
0.0
 11
-16.0579803244
 21
-27.5092679732
 31
0.0
  0
LINE
  5
4FA
330
1F
100
AcDbEntity
  8
0
  6
Continuous
 62
     7
370
    25
100
AcDbLine
 10
-16.0579803244
 20
-27.5092679732
 30
0.0
 11
-14.0579803244
 21
-27.5092679732
 31
0.0
  0
LINE
  5
4FB
330
1F
100
AcDbEntity
  8
0
  6
Continuous
 62
     7
370
    25
100
AcDbLine
 10
-14.0579803244
 20
-27.5092679732
 30
0.0
 11
-14.0579803244
 21
-27.2092679732
 31
0.0
  0
LINE
  5
4FC
330
1F
100
AcDbEntity
  8
0
  6
Continuous
 62
     7
370
    25
100
AcDbLine
 10
-14.0579803244
 20
-27.2092679732
 30
0.0
 11
-16.0579803244
 21
-27.2092679732
 31
0.0
  0
LINE
  5
4FD
330
1F
100
AcDbEntity
  8
0
  6
Continuous
 62
     7
370
    25
100
AcDbLine
 10
-10.0579803244
 20
-27.5092679732
 30
0.0
 11
-10.0579803244
 21
-27.2092679732
 31
0.0
  0
LINE
  5
4FE
330
1F
100
AcDbEntity
  8
0
  6
Continuous
 62
     7
370
    25
100
AcDbLine
 10
-10.0579803244
 20
-27.2092679732
 30
0.0
 11
-12.0579803244
 21
-27.2092679732
 31
0.0
  0
LINE
  5
4FF
330
1F
100
AcDbEntity
  8
0
  6
Continuous
 62
     7
370
    25
100
AcDbLine
 10
-12.0579803244
 20
-27.2092679732
 30
0.0
 11
-12.0579803244
 21
-27.5092679732
 31
0.0
  0
LINE
  5
500
330
1F
100
AcDbEntity
  8
0
  6
Continuous
 62
     7
370
    25
100
AcDbLine
 10
-12.0579803244
 20
-27.5092679732
 30
0.0
 11
-10.0579803244
 21
-27.5092679732
 31
0.0
  0
LINE
  5
501
330
1F
100
AcDbEntity
  8
0
  6
Continuous
 62
     7
370
    25
100
AcDbLine
 10
-16.0579803244
 20
-31.0592679732
 30
0.0
 11
-16.0579803244
 21
-31.3592679732
 31
0.0
  0
LINE
  5
502
330
1F
100
AcDbEntity
  8
0
  6
Continuous
 62
     7
370
    25
100
AcDbLine
 10
-16.0579803244
 20
-31.3592679732
 30
0.0
 11
-14.0579803244
 21
-31.3592679732
 31
0.0
  0
LINE
  5
503
330
1F
100
AcDbEntity
  8
0
  6
Continuous
 62
     7
370
    25
100
AcDbLine
 10
-14.0579803244
 20
-31.3592679732
 30
0.0
 11
-14.0579803244
 21
-31.0592679732
 31
0.0
  0
LINE
  5
504
330
1F
100
AcDbEntity
  8
0
  6
Continuous
 62
     7
370
    25
100
AcDbLine
 10
-14.0579803244
 20
-31.0592679732
 30
0.0
 11
-16.0579803244
 21
-31.0592679732
 31
0.0
  0
LINE
  5
505
330
1F
100
AcDbEntity
  8
0
  6
Continuous
 62
     7
370
    25
100
AcDbLine
 10
2.9270136708
 20
-10.6122848069
 30
0.0
 11
2.9270136708
 21
-10.9122848069
 31
0.0
  0
LINE
  5
506
330
1F
100
AcDbEntity
  8
0
  6
Continuous
 62
     7
370
    25
100
AcDbLine
 10
2.9270136708
 20
-10.9122848069
 30
0.0
 11
4.9270136708
 21
-10.9122848069
 31
0.0
  0
LINE
  5
507
330
1F
100
AcDbEntity
  8
0
  6
Continuous
 62
     7
370
    25
100
AcDbLine
 10
4.9270136708
 20
-10.6122848069
 30
0.0
 11
4.9270136708
 21
-10.9122848069
 31
0.0
  0
LINE
  5
508
330
1F
100
AcDbEntity
  8
0
  6
Continuous
 62
     7
370
    25
100
AcDbLine
 10
2.9270136708
 20
-10.6122848069
 30
0.0
 11
4.9270136708
 21
-10.6122848069
 31
0.0
  0
LINE
  5
509
330
1F
100
AcDbEntity
  8
0
  6
Continuous
 62
     7
370
    25
100
AcDbLine
 10
8.9270136708
 20
-10.6122848069
 30
0.0
 11
8.9270136708
 21
-10.9122848069
 31
0.0
  0
LINE
  5
50A
330
1F
100
AcDbEntity
  8
0
  6
Continuous
 62
     7
370
    25
100
AcDbLine
 10
6.9270136708
 20
-10.6122848069
 30
0.0
 11
8.9270136708
 21
-10.6122848069
 31
0.0
  0
LINE
  5
50B
330
1F
100
AcDbEntity
  8
0
  6
Continuous
 62
     7
370
    25
100
AcDbLine
 10
6.9270136708
 20
-10.9122848069
 30
0.0
 11
6.9270136708
 21
-10.6122848069
 31
0.0
  0
LINE
  5
50C
330
1F
100
AcDbEntity
  8
0
  6
Continuous
 62
     7
370
    25
100
AcDbLine
 10
6.9270136708
 20
-10.9122848069
 30
0.0
 11
8.9270136708
 21
-10.9122848069
 31
0.0
  0
LINE
  5
50D
330
1F
100
AcDbEntity
  8
0
  6
Continuous
 62
     7
370
    25
100
AcDbLine
 10
-0.4229863292
 20
-19.8592679732
 30
0.0
 11
-0.1229863292
 21
-19.8592679732
 31
0.0
  0
LINE
  5
50E
330
1F
100
AcDbEntity
  8
0
  6
Continuous
 62
     7
370
    25
100
AcDbLine
 10
-0.1229863292
 20
-19.8592679732
 30
0.0
 11
-0.1229863292
 21
-17.8592679732
 31
0.0
  0
LINE
  5
50F
330
1F
100
AcDbEntity
  8
0
  6
Continuous
 62
     7
370
    25
100
AcDbLine
 10
-0.1229863292
 20
-17.8592679732
 30
0.0
 11
-0.4229863292
 21
-17.8592679732
 31
0.0
  0
LINE
  5
510
330
1F
100
AcDbEntity
  8
0
  6
Continuous
 62
     7
370
    25
100
AcDbLine
 10
-0.4229863292
 20
-17.8592679732
 30
0.0
 11
-0.4229863292
 21
-19.8592679732
 31
0.0
  0
LINE
  5
511
330
1F
100
AcDbEntity
  8
0
  6
Continuous
 62
     7
370
    25
100
AcDbLine
 10
-0.4229863292
 20
-23.8592679732
 30
0.0
 11
-0.1229863292
 21
-23.8592679732
 31
0.0
  0
LINE
  5
512
330
1F
100
AcDbEntity
  8
0
  6
Continuous
 62
     7
370
    25
100
AcDbLine
 10
-0.1229863292
 20
-23.8592679732
 30
0.0
 11
-0.1229863292
 21
-21.8592679732
 31
0.0
  0
LINE
  5
513
330
1F
100
AcDbEntity
  8
0
  6
Continuous
 62
     7
370
    25
100
AcDbLine
 10
-0.1229863292
 20
-21.8592679732
 30
0.0
 11
-0.4229863292
 21
-21.8592679732
 31
0.0
  0
LINE
  5
514
330
1F
100
AcDbEntity
  8
0
  6
Continuous
 62
     7
370
    25
100
AcDbLine
 10
-0.4229863292
 20
-21.8592679732
 30
0.0
 11
-0.4229863292
 21
-23.8592679732
 31
0.0
  0
LINE
  5
515
330
1F
100
AcDbEntity
  8
0
  6
Continuous
 62
     7
370
    25
100
AcDbLine
 10
11.9770136708
 20
-23.8592679732
 30
0.0
 11
12.2770136708
 21
-23.8592679732
 31
0.0
  0
LINE
  5
516
330
1F
100
AcDbEntity
  8
0
  6
Continuous
 62
     7
370
    25
100
AcDbLine
 10
12.2770136708
 20
-23.8592679732
 30
0.0
 11
12.2770136708
 21
-21.8592679732
 31
0.0
  0
LINE
  5
517
330
1F
100
AcDbEntity
  8
0
  6
Continuous
 62
     7
370
    25
100
AcDbLine
 10
12.2770136708
 20
-21.8592679732
 30
0.0
 11
11.9770136708
 21
-21.8592679732
 31
0.0
  0
LINE
  5
518
330
1F
100
AcDbEntity
  8
0
  6
Continuous
 62
     7
370
    25
100
AcDbLine
 10
11.9770136708
 20
-21.8592679732
 30
0.0
 11
11.9770136708
 21
-23.8592679732
 31
0.0
  0
LINE
  5
519
330
1F
100
AcDbEntity
  8
0
  6
Continuous
 62
     7
370
    25
100
AcDbLine
 10
11.9770136708
 20
-19.8592679732
 30
0.0
 11
12.2770136708
 21
-19.8592679732
 31
0.0
  0
LINE
  5
51A
330
1F
100
AcDbEntity
  8
0
  6
Continuous
 62
     7
370
    25
100
AcDbLine
 10
12.2770136708
 20
-19.8592679732
 30
0.0
 11
12.2770136708
 21
-17.8592679732
 31
0.0
  0
LINE
  5
51B
330
1F
100
AcDbEntity
  8
0
  6
Continuous
 62
     7
370
    25
100
AcDbLine
 10
12.2770136708
 20
-17.8592679732
 30
0.0
 11
11.9770136708
 21
-17.8592679732
 31
0.0
  0
LINE
  5
51C
330
1F
100
AcDbEntity
  8
0
  6
Continuous
 62
     7
370
    25
100
AcDbLine
 10
11.9770136708
 20
-17.8592679732
 30
0.0
 11
11.9770136708
 21
-19.8592679732
 31
0.0
  0
LINE
  5
51D
330
1F
100
AcDbEntity
  8
0
  6
Continuous
 62
     7
370
    25
100
AcDbLine
 10
13.9270136708
 20
-25.3592679732
 30
0.0
 11
15.2945106684
 21
-25.3592679732
 31
0.0
  0
LINE
  5
51E
330
1F
100
AcDbEntity
  8
0
  6
Continuous
 62
     7
370
    25
100
AcDbLine
 10
15.2945106684
 20
-25.3592679732
 30
0.0
 11
15.2945106684
 21
-29.1357406519
 31
0.0
  0
LINE
  5
51F
330
1F
100
AcDbEntity
  8
0
  6
Continuous
 62
     7
370
    25
100
AcDbLine
 10
-3.4404833268
 20
-25.3592679732
 30
0.0
 11
-3.4404833268
 21
-29.1357406519
 31
0.0
  0
LINE
  5
520
330
1F
100
AcDbEntity
  8
0
  6
Continuous
 62
     7
370
    25
100
AcDbLine
 10
-3.4404833268
 20
-25.3592679732
 30
0.0
 11
-2.0729863292
 21
-25.3592679732
 31
0.0
  0
LINE
  5
521
330
1F
100
AcDbEntity
  8
0
  6
Continuous
 62
     7
370
    25
100
AcDbLine
 10
-2.0729863292
 20
-16.3592679732
 30
0.0
 11
-2.0729863292
 21
-25.3592679732
 31
0.0
  0
LINE
  5
522
330
1F
100
AcDbEntity
  8
0
  6
Continuous
 62
     7
370
    25
100
AcDbLine
 10
-2.0729863292
 20
-16.3592679732
 30
0.0
 11
-3.4404833268
 21
-16.3592679732
 31
0.0
  0
LINE
  5
523
330
1F
100
AcDbEntity
  8
0
  6
Continuous
 62
     7
370
    25
100
AcDbLine
 10
-3.4404833268
 20
-16.3592679732
 30
0.0
 11
-3.4404833268
 21
-12.5827952946
 31
0.0
  0
LINE
  5
524
330
1F
100
AcDbEntity
  8
0
  6
Continuous
 62
     7
370
    25
100
AcDbLine
 10
15.2945106684
 20
-16.3592679732
 30
0.0
 11
15.2945106684
 21
-12.5827952946
 31
0.0
  0
LINE
  5
525
330
1F
100
AcDbEntity
  8
0
  6
Continuous
 62
     7
370
    25
100
AcDbLine
 10
15.2945106684
 20
-16.3592679732
 30
0.0
 11
13.9270136708
 21
-16.3592679732
 31
0.0
  0
LINE
  5
526
330
1F
100
AcDbEntity
  8
0
  6
Continuous
 62
     7
370
    25
100
AcDbLine
 10
13.9270136708
 20
-25.3592679732
 30
0.0
 11
13.9270136708
 21
-16.3592679732
 31
0.0
  0
LINE
  5
527
330
1F
100
AcDbEntity
  8
0
  6
Continuous
 62
     7
370
    25
100
AcDbLine
 10
11.7775106684
 20
-15.8942679732
 30
0.0
 11
11.7775106684
 21
-16.1442679732
 31
0.0
  0
LINE
  5
528
330
1F
100
AcDbEntity
  8
0
  6
Continuous
 62
     7
370
    25
100
AcDbLine
 10
11.7775106684
 20
-16.1442679732
 30
0.0
 11
14.2775106684
 21
-16.1442679732
 31
0.0
  0
LINE
  5
529
330
1F
100
AcDbEntity
  8
0
  6
Continuous
 62
     7
370
    25
100
AcDbLine
 10
14.2775106684
 20
-16.1442679732
 30
0.0
 11
14.2775106684
 21
-15.8942679732
 31
0.0
  0
LINE
  5
52A
330
1F
100
AcDbEntity
  8
0
  6
Continuous
 62
     7
370
    25
100
AcDbLine
 10
-2.4234833268
 20
-15.8942679732
 30
0.0
 11
-2.4234833268
 21
-16.1442679732
 31
0.0
  0
LINE
  5
52B
330
1F
100
AcDbEntity
  8
0
  6
Continuous
 62
     7
370
    25
100
AcDbLine
 10
-2.4234833268
 20
-16.1442679732
 30
0.0
 11
0.0765166732
 21
-16.1442679732
 31
0.0
  0
LINE
  5
52C
330
1F
100
AcDbEntity
  8
0
  6
Continuous
 62
     7
370
    25
100
AcDbLine
 10
0.0765166732
 20
-16.1442679732
 30
0.0
 11
0.0765166732
 21
-15.8942679732
 31
0.0
  0
LINE
  5
52D
330
1F
100
AcDbEntity
  8
0
  6
Continuous
 62
     7
370
    25
100
AcDbLine
 10
5.7770136708
 20
-20.6092679732
 30
0.0
 11
5.7770136708
 21
-21.1092679732
 31
0.0
  0
LINE
  5
52E
330
1F
100
AcDbEntity
  8
0
  6
Continuous
 62
     7
370
    25
100
AcDbLine
 10
6.0770136708
 20
-21.1092679732
 30
0.0
 11
6.0770136708
 21
-20.6092679732
 31
0.0
  0
LINE
  5
52F
330
1F
100
AcDbEntity
  8
0
  6
Continuous
 62
     7
370
    25
100
AcDbLine
 10
9.5270136708
 20
-20.6092679732
 30
0.0
 11
9.5270136708
 21
-21.1092679732
 31
0.0
  0
LINE
  5
530
330
1F
100
AcDbEntity
  8
0
  6
Continuous
 62
     7
370
    25
100
AcDbLine
 10
9.8270136708
 20
-21.1092679732
 30
0.0
 11
9.8270136708
 21
-20.6092679732
 31
0.0
  0
LINE
  5
531
330
1F
100
AcDbEntity
  8
0
  6
Continuous
 62
     7
370
    25
100
AcDbLine
 10
2.0270136708
 20
-20.6092679732
 30
0.0
 11
2.0270136708
 21
-21.1092679732
 31
0.0
  0
LINE
  5
532
330
1F
100
AcDbEntity
  8
0
  6
Continuous
 62
     7
370
    25
100
AcDbLine
 10
2.3270136708
 20
-21.1092679732
 30
0.0
 11
2.3270136708
 21
-20.6092679732
 31
0.0
  0
LINE
  5
533
330
1F
100
AcDbEntity
  8
0
  6
Continuous
 62
     7
370
    25
100
AcDbLine
 10
7.4770136708
 20
-22.3592679732
 30
0.0
 11
8.3770136708
 21
-22.3592679732
 31
0.0
  0
LINE
  5
534
330
1F
100
AcDbEntity
  8
0
  6
Continuous
 62
     7
370
    25
100
AcDbLine
 10
8.3770136708
 20
-22.3592679732
 30
0.0
 11
8.3770136708
 21
-19.3592679732
 31
0.0
  0
LINE
  5
535
330
1F
100
AcDbEntity
  8
0
  6
Continuous
 62
     7
370
    25
100
AcDbLine
 10
8.3770136708
 20
-19.3592679732
 30
0.0
 11
7.4770136708
 21
-19.3592679732
 31
0.0
  0
LINE
  5
536
330
1F
100
AcDbEntity
  8
0
  6
Continuous
 62
     7
370
    25
100
AcDbLine
 10
7.4770136708
 20
-19.3592679732
 30
0.0
 11
7.4770136708
 21
-22.3592679732
 31
0.0
  0
LINE
  5
537
330
1F
100
AcDbEntity
  8
0
  6
Continuous
 62
     7
370
    25
100
AcDbLine
 10
4.3770136708
 20
-22.3592679732
 30
0.0
 11
4.3770136708
 21
-19.3592679732
 31
0.0
  0
LINE
  5
538
330
1F
100
AcDbEntity
  8
0
  6
Continuous
 62
     7
370
    25
100
AcDbLine
 10
4.3770136708
 20
-19.3592679732
 30
0.0
 11
3.4770136708
 21
-19.3592679732
 31
0.0
  0
LINE
  5
539
330
1F
100
AcDbEntity
  8
0
  6
Continuous
 62
     7
370
    25
100
AcDbLine
 10
3.4770136708
 20
-19.3592679732
 30
0.0
 11
3.4770136708
 21
-22.3592679732
 31
0.0
  0
LINE
  5
53A
330
1F
100
AcDbEntity
  8
0
  6
Continuous
 62
     7
370
    25
100
AcDbLine
 10
3.4770136708
 20
-22.3592679732
 30
0.0
 11
4.3770136708
 21
-22.3592679732
 31
0.0
  0
LINE
  5
53B
330
1F
100
AcDbEntity
  8
0
  6
Continuous
 62
     7
370
    25
100
AcDbLine
 10
-23.0579803244
 20
-23.045875585
 30
0.0
 11
-21.3079803244
 21
-23.045875585
 31
0.0
  0
LINE
  5
53C
330
1F
100
AcDbEntity
  8
0
  6
Continuous
 62
     7
370
    25
100
AcDbLine
 10
-23.0579803244
 20
-23.045875585
 30
0.0
 11
-23.0579803244
 21
-23.345875585
 31
0.0
  0
LINE
  5
53D
330
1F
100
AcDbEntity
  8
0
  6
Continuous
 62
     7
370
    25
100
AcDbLine
 10
-23.0579803244
 20
-23.345875585
 30
0.0
 11
-21.3079803244
 21
-23.345875585
 31
0.0
  0
LINE
  5
53E
330
1F
100
AcDbEntity
  8
0
  6
Continuous
 62
     7
370
    25
100
AcDbLine
 10
-21.3079803244
 20
-25.195875585
 30
0.0
 11
-21.3079803244
 21
-23.345875585
 31
0.0
  0
LINE
  5
53F
330
1F
100
AcDbEntity
  8
0
  6
Continuous
 62
     7
370
    25
100
AcDbLine
 10
-21.3079803244
 20
-25.195875585
 30
0.0
 11
-26.3079803244
 21
-25.195875585
 31
0.0
  0
LINE
  5
540
330
1F
100
AcDbEntity
  8
0
  6
Continuous
 62
     7
370
    25
100
AcDbLine
 10
-26.6829803244
 20
-23.320875585
 30
0.0
 11
-26.6829803244
 21
-23.070875585
 31
0.0
  0
LINE
  5
541
330
1F
100
AcDbEntity
  8
0
  6
Continuous
 62
     7
370
    25
100
AcDbLine
 10
-26.5329803244
 20
-23.320875585
 30
0.0
 11
-26.5329803244
 21
-23.070875585
 31
0.0
  0
LINE
  5
542
330
1F
100
AcDbEntity
  8
0
  6
Continuous
 62
     7
370
    25
100
AcDbLine
 10
-21.3079803244
 20
-23.045875585
 30
0.0
 11
-21.3079803244
 21
-21.195875585
 31
0.0
  0
LINE
  5
543
330
1F
100
AcDbEntity
  8
0
  6
Continuous
 62
     7
370
    25
100
AcDbLine
 10
-21.3079803244
 20
-21.195875585
 30
0.0
 11
-26.3079803244
 21
-21.195875585
 31
0.0
  0
ARC
  5
544
330
1F
100
AcDbEntity
  8
0
  6
Continuous
 62
     7
370
    25
100
AcDbCircle
 10
24.3945106684
 20
-25.5811455211
 30
0.0
 40
0.5000000000000178
100
AcDbArc
 50
0.0
 51
90.0
  0
ARC
  5
545
330
1F
100
AcDbEntity
  8
0
  6
Continuous
 62
     7
370
    25
100
AcDbCircle
 10
23.8945106684
 20
-32.2311455211
 30
0.0
 40
0.9999999999999858
100
AcDbArc
 50
270.0
 51
0.0
  0
ARC
  5
546
330
1F
100
AcDbEntity
  8
0
  6
Continuous
 62
     7
370
    25
100
AcDbCircle
 10
23.804436288
 20
-19.7968258758
 30
0.0
 40
2.000000000000009
100
AcDbArc
 50
185.7105931375
 51
5.7105931375
  0
ARC
  5
547
330
1F
100
AcDbEntity
  8
0
  6
Continuous
 62
     7
370
    25
100
AcDbCircle
 10
17.5345850489
 20
-10.7247217835
 30
0.0
 40
2.000000000000001
100
AcDbArc
 50
5.7105931375
 51
185.7105931375
  0
ARC
  5
548
330
1F
100
AcDbEntity
  8
0
  6
Continuous
 62
     7
370
    25
100
AcDbCircle
 10
-4.6654833268
 20
-24.6092679732
 30
0.0
 40
0.1499999999999986
100
AcDbArc
 50
180.0
 51
270.0
  0
ARC
  5
549
330
1F
100
AcDbEntity
  8
0
  6
Continuous
 62
     7
370
    25
100
AcDbCircle
 10
-4.5654833268
 20
-23.7592679732
 30
0.0
 40
0.2618033988749894
100
AcDbArc
 50
26.5650511771
 51
153.4349488229
  0
ARC
  5
54A
330
1F
100
AcDbEntity
  8
0
  6
Continuous
 62
     7
370
    25
100
AcDbCircle
 10
-2.4654833268
 20
-23.7092679732
 30
0.0
 40
0.1499999999999604
100
AcDbArc
 50
360.0
 51
26.5650511771
  0
ARC
  5
54B
330
1F
100
AcDbEntity
  8
0
  6
Continuous
 62
     7
370
    25
100
AcDbCircle
 10
-2.4654833268
 20
-24.6092679732
 30
0.0
 40
0.1499999999999986
100
AcDbArc
 50
270.0
 51
0.0
  0
ARC
  5
54C
330
1F
100
AcDbEntity
  8
0
  6
Continuous
 62
     7
370
    25
100
AcDbCircle
 10
-4.4654833268
 20
-23.7092679732
 30
0.0
 40
0.1500000000000087
100
AcDbArc
 50
0.0
 51
26.5650511771
  0
ARC
  5
54D
330
1F
100
AcDbEntity
  8
0
  6
Continuous
 62
     7
370
    25
100
AcDbCircle
 10
-2.6654833268
 20
-23.7092679732
 30
0.0
 40
0.1500000000000258
100
AcDbArc
 50
153.4349488229
 51
180.0
  0
ARC
  5
54E
330
1F
100
AcDbEntity
  8
0
  6
Continuous
 62
     7
370
    25
100
AcDbCircle
 10
-2.5654833268
 20
-23.7592679732
 30
0.0
 40
0.2618033988749882
100
AcDbArc
 50
26.5650511771
 51
153.4349488229
  0
ARC
  5
54F
330
1F
100
AcDbEntity
  8
0
  6
Continuous
 62
     7
370
    25
100
AcDbCircle
 10
-4.6654833268
 20
-23.7092679732
 30
0.0
 40
0.1500000000000048
100
AcDbArc
 50
153.4349488229
 51
180.0
  0
ARC
  5
550
330
1F
100
AcDbEntity
  8
0
  6
Continuous
 62
     7
370
    25
100
AcDbCircle
 10
-4.6654833268
 20
-23.2092679732
 30
0.0
 40
0.1500000000000057
100
AcDbArc
 50
180.0
 51
270.0
  0
ARC
  5
551
330
1F
100
AcDbEntity
  8
0
  6
Continuous
 62
     7
370
    25
100
AcDbCircle
 10
-4.6654833268
 20
-22.3092679732
 30
0.0
 40
0.150000000000038
100
AcDbArc
 50
153.4349488229
 51
180.0
  0
ARC
  5
552
330
1F
100
AcDbEntity
  8
0
  6
Continuous
 62
     7
370
    25
100
AcDbCircle
 10
-4.5654833268
 20
-22.3592679732
 30
0.0
 40
0.261803398874991
100
AcDbArc
 50
26.5650511771
 51
153.4349488229
  0
ARC
  5
553
330
1F
100
AcDbEntity
  8
0
  6
Continuous
 62
     7
370
    25
100
AcDbCircle
 10
-4.4654833268
 20
-22.3092679732
 30
0.0
 40
0.1500000000000341
100
AcDbArc
 50
0.0
 51
26.5650511771
  0
ARC
  5
554
330
1F
100
AcDbEntity
  8
0
  6
Continuous
 62
     7
370
    25
100
AcDbCircle
 10
-2.4654833268
 20
-22.3092679732
 30
0.0
 40
0.1499999999999884
100
AcDbArc
 50
0.0
 51
26.5650511771
  0
ARC
  5
555
330
1F
100
AcDbEntity
  8
0
  6
Continuous
 62
     7
370
    25
100
AcDbCircle
 10
-2.4654833268
 20
-23.2092679732
 30
0.0
 40
0.1500000000000021
100
AcDbArc
 50
270.0
 51
0.0
  0
ARC
  5
556
330
1F
100
AcDbEntity
  8
0
  6
Continuous
 62
     7
370
    25
100
AcDbCircle
 10
-2.6654833268
 20
-22.3092679732
 30
0.0
 40
0.1500000000000572
100
AcDbArc
 50
153.4349488229
 51
180.0
  0
ARC
  5
557
330
1F
100
AcDbEntity
  8
0
  6
Continuous
 62
     7
370
    25
100
AcDbCircle
 10
-2.5654833268
 20
-22.3592679732
 30
0.0
 40
0.2618033988749898
100
AcDbArc
 50
26.5650511771
 51
153.4349488229
  0
ARC
  5
558
330
1F
100
AcDbEntity
  8
0
  6
Continuous
 62
     7
370
    25
100
AcDbCircle
 10
-4.6654833268
 20
-21.8092679732
 30
0.0
 40
0.1499999999999995
100
AcDbArc
 50
180.0
 51
270.0
  0
ARC
  5
559
330
1F
100
AcDbEntity
  8
0
  6
Continuous
 62
     7
370
    25
100
AcDbCircle
 10
-4.6654833268
 20
-20.9092679732
 30
0.0
 40
0.1500000000000155
100
AcDbArc
 50
153.4349488229
 51
180.0
  0
ARC
  5
55A
330
1F
100
AcDbEntity
  8
0
  6
Continuous
 62
     7
370
    25
100
AcDbCircle
 10
-4.5654833268
 20
-20.9592679732
 30
0.0
 40
0.2618033988749894
100
AcDbArc
 50
26.5650511771
 51
153.4349488229
  0
ARC
  5
55B
330
1F
100
AcDbEntity
  8
0
  6
Continuous
 62
     7
370
    25
100
AcDbCircle
 10
-4.4654833268
 20
-20.9092679732
 30
0.0
 40
0.1500000000000246
100
AcDbArc
 50
0.0
 51
26.5650511771
  0
ARC
  5
55C
330
1F
100
AcDbEntity
  8
0
  6
Continuous
 62
     7
370
    25
100
AcDbCircle
 10
-2.6654833268
 20
-20.9092679732
 30
0.0
 40
0.1500000000000385
100
AcDbArc
 50
153.4349488229
 51
180.0
  0
ARC
  5
55D
330
1F
100
AcDbEntity
  8
0
  6
Continuous
 62
     7
370
    25
100
AcDbCircle
 10
-2.4654833268
 20
-20.9092679732
 30
0.0
 40
0.1499999999999782
100
AcDbArc
 50
0.0
 51
26.5650511771
  0
ARC
  5
55E
330
1F
100
AcDbEntity
  8
0
  6
Continuous
 62
     7
370
    25
100
AcDbCircle
 10
-2.4654833268
 20
-21.8092679732
 30
0.0
 40
0.1499999999999986
100
AcDbArc
 50
270.0
 51
0.0
  0
ARC
  5
55F
330
1F
100
AcDbEntity
  8
0
  6
Continuous
 62
     7
370
    25
100
AcDbCircle
 10
-2.5654833268
 20
-20.9592679732
 30
0.0
 40
0.2618033988749882
100
AcDbArc
 50
26.5650511771
 51
153.4349488229
  0
ARC
  5
560
330
1F
100
AcDbEntity
  8
0
  6
Continuous
 62
     7
370
    25
100
AcDbCircle
 10
-4.6654833268
 20
-20.4092679732
 30
0.0
 40
0.1499999999999986
100
AcDbArc
 50
180.0
 51
270.0
  0
ARC
  5
561
330
1F
100
AcDbEntity
  8
0
  6
Continuous
 62
     7
370
    25
100
AcDbCircle
 10
-2.4654833268
 20
-19.5092679732
 30
0.0
 40
0.1499999999999493
100
AcDbArc
 50
360.0
 51
26.5650511771
  0
ARC
  5
562
330
1F
100
AcDbEntity
  8
0
  6
Continuous
 62
     7
370
    25
100
AcDbCircle
 10
-2.4654833268
 20
-20.4092679732
 30
0.0
 40
0.1499999999999986
100
AcDbArc
 50
270.0
 51
0.0
  0
ARC
  5
563
330
1F
100
AcDbEntity
  8
0
  6
Continuous
 62
     7
370
    25
100
AcDbCircle
 10
-2.5654833268
 20
-19.5592679732
 30
0.0
 40
0.2618033988749882
100
AcDbArc
 50
26.5650511771
 51
153.4349488229
  0
ARC
  5
564
330
1F
100
AcDbEntity
  8
0
  6
Continuous
 62
     7
370
    25
100
AcDbCircle
 10
-4.5654833268
 20
-19.5592679732
 30
0.0
 40
0.2618033988749894
100
AcDbArc
 50
26.5650511771
 51
153.4349488229
  0
ARC
  5
565
330
1F
100
AcDbEntity
  8
0
  6
Continuous
 62
     7
370
    25
100
AcDbCircle
 10
-4.6654833268
 20
-19.5092679732
 30
0.0
 40
0.1499999999999924
100
AcDbArc
 50
153.4349488229
 51
180.0
  0
ARC
  5
566
330
1F
100
AcDbEntity
  8
0
  6
Continuous
 62
     7
370
    25
100
AcDbCircle
 10
-2.6654833268
 20
-19.5092679732
 30
0.0
 40
0.1500000000000134
100
AcDbArc
 50
153.4349488229
 51
180.0
  0
ARC
  5
567
330
1F
100
AcDbEntity
  8
0
  6
Continuous
 62
     7
370
    25
100
AcDbCircle
 10
-4.4654833268
 20
-19.5092679732
 30
0.0
 40
0.1499999999999968
100
AcDbArc
 50
0.0
 51
26.5650511771
  0
ARC
  5
568
330
1F
100
AcDbEntity
  8
0
  6
Continuous
 62
     7
370
    25
100
AcDbCircle
 10
-4.6654833268
 20
-19.0092679732
 30
0.0
 40
0.1499999999999995
100
AcDbArc
 50
180.0
 51
270.0
  0
ARC
  5
569
330
1F
100
AcDbEntity
  8
0
  6
Continuous
 62
     7
370
    25
100
AcDbCircle
 10
-4.6654833268
 20
-18.1092679732
 30
0.0
 40
0.1500000000000075
100
AcDbArc
 50
153.4349488229
 51
180.0
  0
ARC
  5
56A
330
1F
100
AcDbEntity
  8
0
  6
Continuous
 62
     7
370
    25
100
AcDbCircle
 10
-4.5654833268
 20
-18.1592679732
 30
0.0
 40
0.2618033988749894
100
AcDbArc
 50
26.5650511771
 51
153.4349488229
  0
ARC
  5
56B
330
1F
100
AcDbEntity
  8
0
  6
Continuous
 62
     7
370
    25
100
AcDbCircle
 10
-4.4654833268
 20
-18.1092679732
 30
0.0
 40
0.1500000000000314
100
AcDbArc
 50
0.0
 51
26.5650511771
  0
ARC
  5
56C
330
1F
100
AcDbEntity
  8
0
  6
Continuous
 62
     7
370
    25
100
AcDbCircle
 10
-2.6654833268
 20
-18.1092679732
 30
0.0
 40
0.1500000000000319
100
AcDbArc
 50
153.4349488229
 51
180.0
  0
ARC
  5
56D
330
1F
100
AcDbEntity
  8
0
  6
Continuous
 62
     7
370
    25
100
AcDbCircle
 10
-2.5654833268
 20
-18.1592679732
 30
0.0
 40
0.2618033988749882
100
AcDbArc
 50
26.5650511771
 51
153.4349488229
  0
ARC
  5
56E
330
1F
100
AcDbEntity
  8
0
  6
Continuous
 62
     7
370
    25
100
AcDbCircle
 10
-2.4654833268
 20
-18.1092679732
 30
0.0
 40
0.1499999999999848
100
AcDbArc
 50
0.0
 51
26.5650511771
  0
ARC
  5
56F
330
1F
100
AcDbEntity
  8
0
  6
Continuous
 62
     7
370
    25
100
AcDbCircle
 10
-2.4654833268
 20
-19.0092679732
 30
0.0
 40
0.1500000000000021
100
AcDbArc
 50
270.0
 51
0.0
  0
ARC
  5
570
330
1F
100
AcDbEntity
  8
0
  6
Continuous
 62
     7
370
    25
100
AcDbCircle
 10
-3.0283171825
 20
-9.6315926718
 30
0.0
 40
0.1499999999999893
100
AcDbArc
 50
333.4349488229
 51
0.0
  0
ARC
  5
571
330
1F
100
AcDbEntity
  8
0
  6
Continuous
 62
     7
370
    25
100
AcDbCircle
 10
-3.1283171825
 20
-9.5815926718
 30
0.0
 40
0.2618033988749878
100
AcDbArc
 50
206.5650511771
 51
333.4349488229
  0
ARC
  5
572
330
1F
100
AcDbEntity
  8
0
  6
Continuous
 62
     7
370
    25
100
AcDbCircle
 10
-3.2283171825
 20
-9.6315926718
 30
0.0
 40
0.1499999999999919
100
AcDbArc
 50
180.0
 51
206.5650511771
  0
ARC
  5
573
330
1F
100
AcDbEntity
  8
0
  6
Continuous
 62
     7
370
    25
100
AcDbCircle
 10
-3.2283171825
 20
-8.7315926718
 30
0.0
 40
0.1499999999999986
100
AcDbArc
 50
90.0
 51
180.0
  0
ARC
  5
574
330
1F
100
AcDbEntity
  8
0
  6
Continuous
 62
     7
370
    25
100
AcDbCircle
 10
-1.0283171825
 20
-8.7315926718
 30
0.0
 40
0.1500000000000004
100
AcDbArc
 50
0.0
 51
90.0
  0
ARC
  5
575
330
1F
100
AcDbEntity
  8
0
  6
Continuous
 62
     7
370
    25
100
AcDbCircle
 10
-1.0283171825
 20
-9.6315926718
 30
0.0
 40
0.1499999999999888
100
AcDbArc
 50
333.4349488229
 51
0.0
  0
ARC
  5
576
330
1F
100
AcDbEntity
  8
0
  6
Continuous
 62
     7
370
    25
100
AcDbCircle
 10
-1.1283171825
 20
-9.5815926718
 30
0.0
 40
0.2618033988749886
100
AcDbArc
 50
206.5650511771
 51
333.4349488229
  0
ARC
  5
577
330
1F
100
AcDbEntity
  8
0
  6
Continuous
 62
     7
370
    25
100
AcDbCircle
 10
-1.2283171825
 20
-9.6315926718
 30
0.0
 40
0.1499999999999884
100
AcDbArc
 50
180.0
 51
206.5650511771
  0
ARC
  5
578
330
1F
100
AcDbEntity
  8
0
  6
Continuous
 62
     7
370
    25
100
AcDbCircle
 10
-5.9230212769
 20
-9.6132395479
 30
0.0
 40
0.1499999999999952
100
AcDbArc
 50
333.4349488229
 51
0.0
  0
ARC
  5
579
330
1F
100
AcDbEntity
  8
0
  6
Continuous
 62
     7
370
    25
100
AcDbCircle
 10
-6.0230212769
 20
-9.5632395479
 30
0.0
 40
0.2618033988749926
100
AcDbArc
 50
206.5650511771
 51
333.4349488229
  0
ARC
  5
57A
330
1F
100
AcDbEntity
  8
0
  6
Continuous
 62
     7
370
    25
100
AcDbCircle
 10
-6.1230212769
 20
-9.6132395479
 30
0.0
 40
0.1500000000000253
100
AcDbArc
 50
180.0
 51
206.5650511771
  0
ARC
  5
57B
330
1F
100
AcDbEntity
  8
0
  6
Continuous
 62
     7
370
    25
100
AcDbCircle
 10
-6.1230212769
 20
-8.7132395479
 30
0.0
 40
0.1499999999999986
100
AcDbArc
 50
90.0
 51
180.0
  0
ARC
  5
57C
330
1F
100
AcDbEntity
  8
0
  6
Continuous
 62
     7
370
    25
100
AcDbCircle
 10
-3.9230212769
 20
-9.6132395479
 30
0.0
 40
0.1499999999999991
100
AcDbArc
 50
333.4349488229
 51
0.0
  0
ARC
  5
57D
330
1F
100
AcDbEntity
  8
0
  6
Continuous
 62
     7
370
    25
100
AcDbCircle
 10
-4.0230212769
 20
-9.5632395479
 30
0.0
 40
0.2618033988749894
100
AcDbArc
 50
206.5650511771
 51
333.4349488229
  0
ARC
  5
57E
330
1F
100
AcDbEntity
  8
0
  6
Continuous
 62
     7
370
    25
100
AcDbCircle
 10
-4.1230212769
 20
-9.6132395479
 30
0.0
 40
0.1500000000000057
100
AcDbArc
 50
180.0
 51
206.5650511771
  0
ARC
  5
57F
330
1F
100
AcDbEntity
  8
0
  6
Continuous
 62
     7
370
    25
100
AcDbCircle
 10
-3.9230212769
 20
-8.7132395479
 30
0.0
 40
0.1500000000000004
100
AcDbArc
 50
0.0
 51
90.0
  0
ARC
  5
580
330
1F
100
AcDbEntity
  8
0
  6
Continuous
 62
     7
370
    25
100
AcDbCircle
 10
-4.6295757926
 20
-11.0823585674
 30
0.0
 40
0.1500000000000021
100
AcDbArc
 50
180.0
 51
270.0
  0
ARC
  5
581
330
1F
100
AcDbEntity
  8
0
  6
Continuous
 62
     7
370
    25
100
AcDbCircle
 10
-4.6295757926
 20
-10.1823585674
 30
0.0
 40
0.1499999999999666
100
AcDbArc
 50
153.4349488229
 51
180.0
  0
ARC
  5
582
330
1F
100
AcDbEntity
  8
0
  6
Continuous
 62
     7
370
    25
100
AcDbCircle
 10
-2.6295757926
 20
-10.1823585674
 30
0.0
 40
0.1499999999999937
100
AcDbArc
 50
153.4349488229
 51
180.0
  0
ARC
  5
583
330
1F
100
AcDbEntity
  8
0
  6
Continuous
 62
     7
370
    25
100
AcDbCircle
 10
-2.4295757926
 20
-11.0823585674
 30
0.0
 40
0.1500000000000021
100
AcDbArc
 50
270.0
 51
0.0
  0
ARC
  5
584
330
1F
100
AcDbEntity
  8
0
  6
Continuous
 62
     7
370
    25
100
AcDbCircle
 10
-4.4295757926
 20
-10.1823585674
 30
0.0
 40
0.1500000000000439
100
AcDbArc
 50
0.0
 51
26.5650511771
  0
ARC
  5
585
330
1F
100
AcDbEntity
  8
0
  6
Continuous
 62
     7
370
    25
100
AcDbCircle
 10
-4.5295757926
 20
-10.2323585674
 30
0.0
 40
0.2618033988749894
100
AcDbArc
 50
26.5650511771
 51
153.4349488229
  0
ARC
  5
586
330
1F
100
AcDbEntity
  8
0
  6
Continuous
 62
     7
370
    25
100
AcDbCircle
 10
-2.5295757926
 20
-10.2323585674
 30
0.0
 40
0.261803398874989
100
AcDbArc
 50
26.5650511771
 51
153.4349488229
  0
ARC
  5
587
330
1F
100
AcDbEntity
  8
0
  6
Continuous
 62
     7
370
    25
100
AcDbCircle
 10
-2.4295757926
 20
-10.1823585674
 30
0.0
 40
0.1499999999999968
100
AcDbArc
 50
0.0
 51
26.5650511771
  0
ARC
  5
588
330
1F
100
AcDbEntity
  8
0
  6
Continuous
 62
     7
370
    25
100
AcDbCircle
 10
-27.8479879882
 20
-27.7094064072
 30
0.0
 40
0.1500000000000448
100
AcDbArc
 50
63.4349488229
 51
90.0
  0
ARC
  5
589
330
1F
100
AcDbEntity
  8
0
  6
Continuous
 62
     7
370
    25
100
AcDbCircle
 10
-27.8979879882
 20
-27.8094064072
 30
0.0
 40
0.2618033988749965
100
AcDbArc
 50
296.5650511771
 51
63.4349488229
  0
ARC
  5
58A
330
1F
100
AcDbEntity
  8
0
  6
Continuous
 62
     7
370
    25
100
AcDbCircle
 10
-27.8479879882
 20
-27.9094064072
 30
0.0
 40
0.1499999999998546
100
AcDbArc
 50
270.0
 51
296.5650511771
  0
ARC
  5
58B
330
1F
100
AcDbEntity
  8
0
  6
Continuous
 62
     7
370
    25
100
AcDbCircle
 10
-28.7479879882
 20
-27.9094064072
 30
0.0
 40
0.1500000000000057
100
AcDbArc
 50
180.0
 51
270.0
  0
ARC
  5
58C
330
1F
100
AcDbEntity
  8
0
  6
Continuous
 62
     7
370
    25
100
AcDbCircle
 10
-28.7479879882
 20
-25.7094064072
 30
0.0
 40
0.1500000000000057
100
AcDbArc
 50
90.0
 51
180.0
  0
ARC
  5
58D
330
1F
100
AcDbEntity
  8
0
  6
Continuous
 62
     7
370
    25
100
AcDbCircle
 10
-27.8479879882
 20
-25.7094064072
 30
0.0
 40
0.1500000000000448
100
AcDbArc
 50
63.4349488229
 51
90.0
  0
ARC
  5
58E
330
1F
100
AcDbEntity
  8
0
  6
Continuous
 62
     7
370
    25
100
AcDbCircle
 10
-27.8979879882
 20
-25.8094064072
 30
0.0
 40
0.2618033988749934
100
AcDbArc
 50
296.5650511771
 51
63.4349488229
  0
ARC
  5
58F
330
1F
100
AcDbEntity
  8
0
  6
Continuous
 62
     7
370
    25
100
AcDbCircle
 10
-27.8479879882
 20
-25.9094064072
 30
0.0
 40
0.1499999999999896
100
AcDbArc
 50
270.0
 51
296.5650511771
  0
ARC
  5
590
330
1F
100
AcDbEntity
  8
0
  6
Continuous
 62
     7
370
    25
100
AcDbCircle
 10
-27.8711582773
 20
-20.4339356221
 30
0.0
 40
0.1500000000000519
100
AcDbArc
 50
63.4349488229
 51
90.0
  0
ARC
  5
591
330
1F
100
AcDbEntity
  8
0
  6
Continuous
 62
     7
370
    25
100
AcDbCircle
 10
-27.9211582773
 20
-20.5339356221
 30
0.0
 40
0.2618033988749902
100
AcDbArc
 50
296.5650511771
 51
63.4349488229
  0
ARC
  5
592
330
1F
100
AcDbEntity
  8
0
  6
Continuous
 62
     7
370
    25
100
AcDbCircle
 10
-27.8711582773
 20
-20.6339356221
 30
0.0
 40
0.1499999999999101
100
AcDbArc
 50
270.0
 51
296.5650511771
  0
ARC
  5
593
330
1F
100
AcDbEntity
  8
0
  6
Continuous
 62
     7
370
    25
100
AcDbCircle
 10
-28.7711582773
 20
-20.6339356221
 30
0.0
 40
0.1500000000000057
100
AcDbArc
 50
180.0
 51
270.0
  0
ARC
  5
594
330
1F
100
AcDbEntity
  8
0
  6
Continuous
 62
     7
370
    25
100
AcDbCircle
 10
-28.7711582773
 20
-18.4339356221
 30
0.0
 40
0.1499999999999986
100
AcDbArc
 50
90.0
 51
180.0
  0
ARC
  5
595
330
1F
100
AcDbEntity
  8
0
  6
Continuous
 62
     7
370
    25
100
AcDbCircle
 10
-27.8711582773
 20
-18.4339356221
 30
0.0
 40
0.150000000000023
100
AcDbArc
 50
63.4349488229
 51
90.0
  0
ARC
  5
596
330
1F
100
AcDbEntity
  8
0
  6
Continuous
 62
     7
370
    25
100
AcDbCircle
 10
-27.9211582773
 20
-18.5339356221
 30
0.0
 40
0.2618033988749886
100
AcDbArc
 50
296.5650511771
 51
63.4349488229
  0
ARC
  5
597
330
1F
100
AcDbEntity
  8
0
  6
Continuous
 62
     7
370
    25
100
AcDbCircle
 10
-27.8711582773
 20
-18.6339356221
 30
0.0
 40
0.1499999999998673
100
AcDbArc
 50
270.0
 51
296.5650511771
  0
ARC
  5
598
330
1F
100
AcDbEntity
  8
0
  6
Continuous
 62
     7
370
    25
100
AcDbCircle
 10
-27.8711582773
 20
-17.5839900598
 30
0.0
 40
0.150000000000023
100
AcDbArc
 50
63.4349488229
 51
90.0
  0
ARC
  5
599
330
1F
100
AcDbEntity
  8
0
  6
Continuous
 62
     7
370
    25
100
AcDbCircle
 10
-27.9211582773
 20
-17.6839900598
 30
0.0
 40
0.2618033988749918
100
AcDbArc
 50
296.5650511771
 51
63.4349488229
  0
ARC
  5
59A
330
1F
100
AcDbEntity
  8
0
  6
Continuous
 62
     7
370
    25
100
AcDbCircle
 10
-27.8711582773
 20
-17.7839900598
 30
0.0
 40
0.1499999999999388
100
AcDbArc
 50
270.0
 51
296.5650511771
  0
ARC
  5
59B
330
1F
100
AcDbEntity
  8
0
  6
Continuous
 62
     7
370
    25
100
AcDbCircle
 10
-28.7711582773
 20
-17.7839900598
 30
0.0
 40
0.1499999999999986
100
AcDbArc
 50
180.0
 51
270.0
  0
ARC
  5
59C
330
1F
100
AcDbEntity
  8
0
  6
Continuous
 62
     7
370
    25
100
AcDbCircle
 10
-28.7711582773
 20
-15.5839900598
 30
0.0
 40
0.1500000000000057
100
AcDbArc
 50
90.0
 51
180.0
  0
ARC
  5
59D
330
1F
100
AcDbEntity
  8
0
  6
Continuous
 62
     7
370
    25
100
AcDbCircle
 10
-27.8711582773
 20
-15.5839900598
 30
0.0
 40
0.1500000000000389
100
AcDbArc
 50
63.4349488229
 51
90.0
  0
ARC
  5
59E
330
1F
100
AcDbEntity
  8
0
  6
Continuous
 62
     7
370
    25
100
AcDbCircle
 10
-27.9211582773
 20
-15.6839900598
 30
0.0
 40
0.2618033988749902
100
AcDbArc
 50
296.5650511771
 51
63.4349488229
  0
ARC
  5
59F
330
1F
100
AcDbEntity
  8
0
  6
Continuous
 62
     7
370
    25
100
AcDbCircle
 10
-27.8711582773
 20
-15.7839900598
 30
0.0
 40
0.1499999999999808
100
AcDbArc
 50
270.0
 51
296.5650511771
  0
ARC
  5
5A0
330
1F
100
AcDbEntity
  8
0
  6
Continuous
 62
     7
370
    25
100
AcDbCircle
 10
-4.6654833268
 20
-17.6092679732
 30
0.0
 40
0.1500000000000057
100
AcDbArc
 50
180.0
 51
270.0
  0
ARC
  5
5A1
330
1F
100
AcDbEntity
  8
0
  6
Continuous
 62
     7
370
    25
100
AcDbCircle
 10
-4.5654833268
 20
-16.7592679732
 30
0.0
 40
0.2618033988749894
100
AcDbArc
 50
26.5650511771
 51
153.4349488229
  0
ARC
  5
5A2
330
1F
100
AcDbEntity
  8
0
  6
Continuous
 62
     7
370
    25
100
AcDbCircle
 10
-2.4654833268
 20
-17.6092679732
 30
0.0
 40
0.1500000000000021
100
AcDbArc
 50
270.0
 51
0.0
  0
ARC
  5
5A3
330
1F
100
AcDbEntity
  8
0
  6
Continuous
 62
     7
370
    25
100
AcDbCircle
 10
-2.5654833268
 20
-16.7592679732
 30
0.0
 40
0.2618033988749882
100
AcDbArc
 50
26.5650511771
 51
153.4349488229
  0
ARC
  5
5A4
330
1F
100
AcDbEntity
  8
0
  6
Continuous
 62
     7
370
    25
100
AcDbCircle
 10
-2.6654833268
 20
-16.7092679732
 30
0.0
 40
0.1500000000000385
100
AcDbArc
 50
153.4349488229
 51
180.0
  0
ARC
  5
5A5
330
1F
100
AcDbEntity
  8
0
  6
Continuous
 62
     7
370
    25
100
AcDbCircle
 10
-2.4654833268
 20
-16.7092679732
 30
0.0
 40
0.1499999999999782
100
AcDbArc
 50
0.0
 51
26.5650511771
  0
ARC
  5
5A6
330
1F
100
AcDbEntity
  8
0
  6
Continuous
 62
     7
370
    25
100
AcDbCircle
 10
-4.4654833268
 20
-16.7092679732
 30
0.0
 40
0.1500000000000246
100
AcDbArc
 50
0.0
 51
26.5650511771
  0
ARC
  5
5A7
330
1F
100
AcDbEntity
  8
0
  6
Continuous
 62
     7
370
    25
100
AcDbCircle
 10
-4.6654833268
 20
-16.7092679732
 30
0.0
 40
0.1500000000000155
100
AcDbArc
 50
153.4349488229
 51
180.0
  0
ARC
  5
5A8
330
1F
100
AcDbEntity
  8
0
  6
Continuous
 62
     7
370
    25
100
AcDbCircle
 10
-1.1684418244
 20
-32.0384656542
 30
0.0
 40
0.2793995494990517
100
AcDbArc
 50
292.8430965371
 51
67.156912073
  0
ARC
  5
5A9
330
1F
100
AcDbEntity
  8
0
  6
Continuous
 62
     7
370
    25
100
AcDbCircle
 10
-0.8627649523
 20
-32.7641119374
 30
0.0
 40
0.5080017956555183
100
AcDbArc
 50
112.84317943
 51
145.1538614979
  0
ARC
  5
5AA
330
1F
100
AcDbEntity
  8
0
  6
Continuous
 62
     7
370
    25
100
AcDbCircle
 10
-1.9050420059
 20
-32.0384657892
 30
0.0
 40
0.7619996959835029
100
AcDbArc
 50
214.8461011685
 51
325.1539056709
  0
ARC
  5
5AB
330
1F
100
AcDbEntity
  8
0
  6
Continuous
 62
     7
370
    25
100
AcDbCircle
 10
-2.9473188799
 20
-32.7641125702
 30
0.0
 40
0.5080020098528052
100
AcDbArc
 50
34.8461983883
 51
67.1568503966
  0
ARC
  5
5AC
330
1F
100
AcDbEntity
  8
0
  6
Continuous
 62
     7
370
    25
100
AcDbCircle
 10
-2.6416419263
 20
-32.0384656001
 30
0.0
 40
0.2794000000000065
100
AcDbArc
 50
112.8431115026
 51
247.1568885063
  0
ARC
  5
5AD
330
1F
100
AcDbEntity
  8
0
  6
Continuous
 62
     7
370
    25
100
AcDbCircle
 10
-0.8627668975
 20
-31.312821665
 30
0.0
 40
0.5079989264904632
100
AcDbArc
 50
214.8460415014
 51
247.1569175751
  0
ARC
  5
5AE
330
1F
100
AcDbEntity
  8
0
  6
Continuous
 62
     7
370
    25
100
AcDbCircle
 10
-1.905041987
 20
-32.0384657445
 30
0.0
 40
0.7619997712740187
100
AcDbArc
 50
34.8461157111
 51
145.1538790653
  0
ARC
  5
5AF
330
1F
100
AcDbEntity
  8
0
  6
Continuous
 62
     7
370
    25
100
AcDbCircle
 10
-2.9473148754
 20
-31.3128232023
 30
0.0
 40
0.5079962416714977
100
AcDbArc
 50
292.8429335667
 51
325.1539667743
  0
ARC
  5
5B0
330
1F
100
AcDbEntity
  8
0
  6
Continuous
 62
     7
370
    25
100
AcDbCircle
 10
-5.1603613565
 20
-31.9944749422
 30
0.0
 40
0.761999771274026
100
AcDbArc
 50
34.8461157111
 51
145.1538790653
  0
ARC
  5
5B1
330
1F
100
AcDbEntity
  8
0
  6
Continuous
 62
     7
370
    25
100
AcDbCircle
 10
-4.4237611938
 20
-31.9944748519
 30
0.0
 40
0.2793995494990517
100
AcDbArc
 50
292.8430965371
 51
67.156912073
  0
ARC
  5
5B2
330
1F
100
AcDbEntity
  8
0
  6
Continuous
 62
     7
370
    25
100
AcDbCircle
 10
-4.1180843218
 20
-32.7201211351
 30
0.0
 40
0.5080017956555181
100
AcDbArc
 50
112.84317943
 51
145.1538614979
  0
ARC
  5
5B3
330
1F
100
AcDbEntity
  8
0
  6
Continuous
 62
     7
370
    25
100
AcDbCircle
 10
-5.1603613753
 20
-31.9944749869
 30
0.0
 40
0.7619996959835034
100
AcDbArc
 50
214.8461011685
 51
325.1539056709
  0
ARC
  5
5B4
330
1F
100
AcDbEntity
  8
0
  6
Continuous
 62
     7
370
    25
100
AcDbCircle
 10
-6.2026382493
 20
-32.7201217679
 30
0.0
 40
0.5080020098527528
100
AcDbArc
 50
34.8461983883
 51
67.1568503966
  0
ARC
  5
5B5
330
1F
100
AcDbEntity
  8
0
  6
Continuous
 62
     7
370
    25
100
AcDbCircle
 10
-5.8969612957
 20
-31.9944747978
 30
0.0
 40
0.279400000000009
100
AcDbArc
 50
112.8431115026
 51
247.1568885063
  0
ARC
  5
5B6
330
1F
100
AcDbEntity
  8
0
  6
Continuous
 62
     7
370
    25
100
AcDbCircle
 10
-6.2026342449
 20
-31.2688324
 30
0.0
 40
0.5079962416715196
100
AcDbArc
 50
292.8429335667
 51
325.1539667743
  0
ARC
  5
5B7
330
1F
100
AcDbEntity
  8
0
  6
Continuous
 62
     7
370
    25
100
AcDbCircle
 10
-4.1180862669
 20
-31.2688308627
 30
0.0
 40
0.5079989264904378
100
AcDbArc
 50
214.8460415014
 51
247.1569175751
  0
ARC
  5
5B8
330
1F
100
AcDbEntity
  8
0
  6
Continuous
 62
     7
370
    25
100
AcDbCircle
 10
-2.4904265822
 20
-29.9930975963
 30
0.0
 40
0.5079989264904538
100
AcDbArc
 50
214.8460415014
 51
247.1569175751
  0
ARC
  5
5B9
330
1F
100
AcDbEntity
  8
0
  6
Continuous
 62
     7
370
    25
100
AcDbCircle
 10
-2.7961015091
 20
-30.7187415855
 30
0.0
 40
0.279399549499051
100
AcDbArc
 50
292.8430965371
 51
67.156912073
  0
ARC
  5
5BA
330
1F
100
AcDbEntity
  8
0
  6
Continuous
 62
     7
370
    25
100
AcDbCircle
 10
-2.490424637
 20
-31.4443878687
 30
0.0
 40
0.5080017956554634
100
AcDbArc
 50
112.84317943
 51
145.1538614979
  0
ARC
  5
5BB
330
1F
100
AcDbEntity
  8
0
  6
Continuous
 62
     7
370
    25
100
AcDbCircle
 10
-3.5327016906
 20
-30.7187417205
 30
0.0
 40
0.7619996959835074
100
AcDbArc
 50
214.8461011685
 51
325.1539056709
  0
ARC
  5
5BC
330
1F
100
AcDbEntity
  8
0
  6
Continuous
 62
     7
370
    25
100
AcDbCircle
 10
-4.5749785646
 20
-31.4443885015
 30
0.0
 40
0.5080020098528639
100
AcDbArc
 50
34.8461983883
 51
67.1568503966
  0
ARC
  5
5BD
330
1F
100
AcDbEntity
  8
0
  6
Continuous
 62
     7
370
    25
100
AcDbCircle
 10
-4.269301611
 20
-30.7187415314
 30
0.0
 40
0.279400000000004
100
AcDbArc
 50
112.8431115026
 51
247.1568885063
  0
ARC
  5
5BE
330
1F
100
AcDbEntity
  8
0
  6
Continuous
 62
     7
370
    25
100
AcDbCircle
 10
-4.5749745602
 20
-29.9930991336
 30
0.0
 40
0.5079962416714867
100
AcDbArc
 50
292.8429335667
 51
325.1539667743
  0
ARC
  5
5BF
330
1F
100
AcDbEntity
  8
0
  6
Continuous
 62
     7
370
    25
100
AcDbCircle
 10
-3.5327016718
 20
-30.7187416758
 30
0.0
 40
0.7619997712740314
100
AcDbArc
 50
34.8461157111
 51
145.1538790653
  0
ARC
  5
5C0
330
1F
100
AcDbEntity
  8
0
  6
Continuous
 62
     7
370
    25
100
AcDbCircle
 10
-10.7079803244
 20
-19.1092679732
 30
0.0
 40
0.7500000000000108
100
AcDbArc
 50
319.2479727953
 51
40.7520272047
  0
ARC
  5
5C1
330
1F
100
AcDbEntity
  8
0
  6
Continuous
 62
     7
370
    25
100
AcDbCircle
 10
-10.7079803244
 20
-19.1092679732
 30
0.0
 40
0.7500000000000019
100
AcDbArc
 50
139.2479727953
 51
220.7520272047
  0
ARC
  5
5C2
330
1F
100
AcDbEntity
  8
0
  6
Continuous
 62
     7
370
    25
100
AcDbCircle
 10
-13.0579803244
 20
-20.8592679732
 30
0.0
 40
12.50000000000003
100
AcDbArc
 50
221.4615900451
 51
318.5384099549
  0
ARC
  5
5C3
330
1F
100
AcDbEntity
  8
0
  6
Continuous
 62
     7
370
    25
100
AcDbCircle
 10
-13.0579803244
 20
-20.8592679732
 30
0.0
 40
12.50000000000003
100
AcDbArc
 50
41.4615900451
 51
138.5384099549
  0
ARC
  5
5C4
330
1F
100
AcDbEntity
  8
0
  6
Continuous
 62
     7
370
    25
100
AcDbCircle
 10
-15.4079803244
 20
-19.1092679732
 30
0.0
 40
0.7499999999999981
100
AcDbArc
 50
318.1896851042
 51
41.8103148958
  0
ARC
  5
5C5
330
1F
100
AcDbEntity
  8
0
  6
Continuous
 62
     7
370
    25
100
AcDbCircle
 10
-15.4079803244
 20
-19.1092679732
 30
0.0
 40
0.7499999999999988
100
AcDbArc
 50
138.1896851042
 51
221.8103148958
  0
ARC
  5
5C6
330
1F
100
AcDbEntity
  8
0
  6
Continuous
 62
     7
370
    25
100
AcDbCircle
 10
-26.4119563636
 20
-25.5879594664
 30
0.0
 40
0.050000000000007
100
AcDbArc
 50
181.1693828056
 51
358.8306171944
  0
ARC
  5
5C7
330
1F
100
AcDbEntity
  8
0
  6
Continuous
 62
     7
370
    25
100
AcDbCircle
 10
-26.4119563636
 20
-26.8129594664
 30
0.0
 40
1.224999999999956
100
AcDbArc
 50
47.3387656112
 51
87.6612343888
  0
ARC
  5
5C8
330
1F
100
AcDbEntity
  8
0
  6
Continuous
 62
     7
370
    25
100
AcDbCircle
 10
-25.5457505566
 20
-25.9467536595
 30
0.0
 40
0.0500000000000104
100
AcDbArc
 50
136.1693828057
 51
313.8306171943
  0
ARC
  5
5C9
330
1F
100
AcDbEntity
  8
0
  6
Continuous
 62
     7
370
    25
100
AcDbCircle
 10
-25.1869563636
 20
-26.8129594664
 30
0.0
 40
0.0500000000000434
100
AcDbArc
 50
91.1693828057
 51
268.8306171943
  0
ARC
  5
5CA
330
1F
100
AcDbEntity
  8
0
  6
Continuous
 62
     7
370
    25
100
AcDbCircle
 10
-26.4119563636
 20
-26.8129594664
 30
0.0
 40
1.225000000000013
100
AcDbArc
 50
317.3387656112
 51
357.6612343888
  0
ARC
  5
5CB
330
1F
100
AcDbEntity
  8
0
  6
Continuous
 62
     7
370
    25
100
AcDbCircle
 10
-25.5457505566
 20
-27.6791652734
 30
0.0
 40
0.0500000000000832
100
AcDbArc
 50
46.1693828057
 51
223.8306171944
  0
ARC
  5
5CC
330
1F
100
AcDbEntity
  8
0
  6
Continuous
 62
     7
370
    25
100
AcDbCircle
 10
-26.4119563636
 20
-26.8129594664
 30
0.0
 40
1.225000000000078
100
AcDbArc
 50
272.3387656112
 51
312.6612343888
  0
ARC
  5
5CD
330
1F
100
AcDbEntity
  8
0
  6
Continuous
 62
     7
370
    25
100
AcDbCircle
 10
-26.4119563636
 20
-28.0379594664
 30
0.0
 40
0.0500000000001136
100
AcDbArc
 50
1.1693828056
 51
178.8306171944
  0
ARC
  5
5CE
330
1F
100
AcDbEntity
  8
0
  6
Continuous
 62
     7
370
    25
100
AcDbCircle
 10
-26.4119563636
 20
-26.8129594664
 30
0.0
 40
1.224999999999923
100
AcDbArc
 50
227.3387656112
 51
267.6612343888
  0
ARC
  5
5CF
330
1F
100
AcDbEntity
  8
0
  6
Continuous
 62
     7
370
    25
100
AcDbCircle
 10
-27.2781621705
 20
-27.6791652734
 30
0.0
 40
0.0500000000001119
100
AcDbArc
 50
316.1693828056
 51
133.8306171944
  0
ARC
  5
5D0
330
1F
100
AcDbEntity
  8
0
  6
Continuous
 62
     7
370
    25
100
AcDbCircle
 10
-26.4119563636
 20
-26.8129594664
 30
0.0
 40
1.225000000000024
100
AcDbArc
 50
182.3387656112
 51
222.6612343888
  0
ARC
  5
5D1
330
1F
100
AcDbEntity
  8
0
  6
Continuous
 62
     7
370
    25
100
AcDbCircle
 10
-27.6369563636
 20
-26.8129594664
 30
0.0
 40
0.050000000000084
100
AcDbArc
 50
271.1693828056
 51
88.8306171945
  0
ARC
  5
5D2
330
1F
100
AcDbEntity
  8
0
  6
Continuous
 62
     7
370
    25
100
AcDbCircle
 10
-26.4119563636
 20
-26.8129594664
 30
0.0
 40
1.224999999999975
100
AcDbArc
 50
137.3387656112
 51
177.6612343888
  0
ARC
  5
5D3
330
1F
100
AcDbEntity
  8
0
  6
Continuous
 62
     7
370
    25
100
AcDbCircle
 10
-26.4119563636
 20
-27.5629594664
 30
0.0
 40
0.065000000000012
100
AcDbArc
 50
2.4835947994
 51
177.5164052006
  0
ARC
  5
5D4
330
1F
100
AcDbEntity
  8
0
  6
Continuous
 62
     7
370
    25
100
AcDbCircle
 10
-26.4119563636
 20
-26.8129594664
 30
0.0
 40
0.7499999999999977
100
AcDbArc
 50
274.9671895987
 51
310.0328104013
  0
ARC
  5
5D5
330
1F
100
AcDbEntity
  8
0
  6
Continuous
 62
     7
370
    25
100
AcDbCircle
 10
-25.8816262777
 20
-27.3432895523
 30
0.0
 40
0.0650000000000067
100
AcDbArc
 50
47.4835947994
 51
222.5164052006
  0
ARC
  5
5D6
330
1F
100
AcDbEntity
  8
0
  6
Continuous
 62
     7
370
    25
100
AcDbCircle
 10
-26.4119563636
 20
-26.8129594664
 30
0.0
 40
0.7499999999999737
100
AcDbArc
 50
319.9671895987
 51
355.0328104013
  0
ARC
  5
5D7
330
1F
100
AcDbEntity
  8
0
  6
Continuous
 62
     7
370
    25
100
AcDbCircle
 10
-25.6619563636
 20
-26.8129594664
 30
0.0
 40
0.0650000000000354
100
AcDbArc
 50
92.4835947994
 51
267.5164052006
  0
ARC
  5
5D8
330
1F
100
AcDbEntity
  8
0
  6
Continuous
 62
     7
370
    25
100
AcDbCircle
 10
-26.4119563636
 20
-26.8129594664
 30
0.0
 40
0.7499999999999654
100
AcDbArc
 50
4.9671895987
 51
40.0328104013
  0
ARC
  5
5D9
330
1F
100
AcDbEntity
  8
0
  6
Continuous
 62
     7
370
    25
100
AcDbCircle
 10
-25.8816262777
 20
-26.2826293805
 30
0.0
 40
0.0650000000000721
100
AcDbArc
 50
137.4835947994
 51
312.5164052006
  0
ARC
  5
5DA
330
1F
100
AcDbEntity
  8
0
  6
Continuous
 62
     7
370
    25
100
AcDbCircle
 10
-26.4119563636
 20
-26.8129594664
 30
0.0
 40
0.7499999999999883
100
AcDbArc
 50
49.9671895987
 51
85.0328104013
  0
ARC
  5
5DB
330
1F
100
AcDbEntity
  8
0
  6
Continuous
 62
     7
370
    25
100
AcDbCircle
 10
-26.9422864495
 20
-26.2826293805
 30
0.0
 40
0.0650000000000898
100
AcDbArc
 50
227.4835947993
 51
42.5164052007
  0
ARC
  5
5DC
330
1F
100
AcDbEntity
  8
0
  6
Continuous
 62
     7
370
    25
100
AcDbCircle
 10
-26.4119563636
 20
-26.8129594664
 30
0.0
 40
0.7499999999999633
100
AcDbArc
 50
139.9671895987
 51
175.0328104013
  0
ARC
  5
5DD
330
1F
100
AcDbEntity
  8
0
  6
Continuous
 62
     7
370
    25
100
AcDbCircle
 10
-27.1619563636
 20
-26.8129594664
 30
0.0
 40
0.0650000000000606
100
AcDbArc
 50
272.4835947993
 51
87.5164052007
  0
ARC
  5
5DE
330
1F
100
AcDbEntity
  8
0
  6
Continuous
 62
     7
370
    25
100
AcDbCircle
 10
-26.4119563636
 20
-26.8129594664
 30
0.0
 40
0.7500000000000108
100
AcDbArc
 50
184.9671895987
 51
220.0328104013
  0
ARC
  5
5DF
330
1F
100
AcDbEntity
  8
0
  6
Continuous
 62
     7
370
    25
100
AcDbCircle
 10
-26.9422864495
 20
-27.3432895523
 30
0.0
 40
0.0650000000000292
100
AcDbArc
 50
317.4835947993
 51
132.5164052007
  0
ARC
  5
5E0
330
1F
100
AcDbEntity
  8
0
  6
Continuous
 62
     7
370
    25
100
AcDbCircle
 10
-26.4119563636
 20
-26.8129594664
 30
0.0
 40
0.7500000000000635
100
AcDbArc
 50
229.9671895987
 51
265.0328104013
  0
ARC
  5
5E1
330
1F
100
AcDbEntity
  8
0
  6
Continuous
 62
     7
370
    25
100
AcDbCircle
 10
-26.4119563636
 20
-26.0629594664
 30
0.0
 40
0.0650000000000942
100
AcDbArc
 50
182.4835947994
 51
357.5164052006
  0
ARC
  5
5E2
330
1F
100
AcDbEntity
  8
0
  6
Continuous
 62
     7
370
    25
100
AcDbCircle
 10
-26.4119563636
 20
-26.8129594664
 30
0.0
 40
1.225000000000022
100
AcDbArc
 50
92.3387656112
 51
132.6612343888
  0
ARC
  5
5E3
330
1F
100
AcDbEntity
  8
0
  6
Continuous
 62
     7
370
    25
100
AcDbCircle
 10
-27.2781621705
 20
-25.9467536595
 30
0.0
 40
0.0500000000000416
100
AcDbArc
 50
226.1693828056
 51
43.8306171944
  0
ARC
  5
5E4
330
1F
100
AcDbEntity
  8
0
  6
Continuous
 62
     7
370
    25
100
AcDbCircle
 10
-26.4119563636
 20
-26.8129594664
 30
0.0
 40
0.7499999999999476
100
AcDbArc
 50
94.9671895987
 51
130.0328104013
  0
ARC
  5
5E5
330
1F
100
AcDbEntity
  8
0
  6
Continuous
 62
     7
370
    25
100
AcDbCircle
 10
-26.4119563636
 20
-26.8129594664
 30
0.0
 40
1.225000000000058
100
AcDbArc
 50
2.3387656112
 51
42.6612343888
  0
ARC
  5
5E6
330
1F
100
AcDbEntity
  8
0
  6
Continuous
 62
     7
370
    25
100
AcDbCircle
 10
-23.8141692726
 20
-26.8171802241
 30
0.0
 40
1.224999999999978
100
AcDbArc
 50
92.3387656112
 51
132.6612343888
  0
ARC
  5
5E7
330
1F
100
AcDbEntity
  8
0
  6
Continuous
 62
     7
370
    25
100
AcDbCircle
 10
-23.8141692726
 20
-26.8171802241
 30
0.0
 40
1.224999999999989
100
AcDbArc
 50
2.3387656112
 51
42.6612343888
  0
ARC
  5
5E8
330
1F
100
AcDbEntity
  8
0
  6
Continuous
 62
     7
370
    25
100
AcDbCircle
 10
-22.5891692726
 20
-26.8171802241
 30
0.0
 40
0.050000000000047
100
AcDbArc
 50
91.1693828057
 51
268.8306171943
  0
ARC
  5
5E9
330
1F
100
AcDbEntity
  8
0
  6
Continuous
 62
     7
370
    25
100
AcDbCircle
 10
-23.8141692726
 20
-26.8171802241
 30
0.0
 40
1.225000000000013
100
AcDbArc
 50
317.3387656112
 51
357.6612343888
  0
ARC
  5
5EA
330
1F
100
AcDbEntity
  8
0
  6
Continuous
 62
     7
370
    25
100
AcDbCircle
 10
-22.9479634656
 20
-27.6833860311
 30
0.0
 40
0.0500000000000857
100
AcDbArc
 50
46.1693828057
 51
223.8306171943
  0
ARC
  5
5EB
330
1F
100
AcDbEntity
  8
0
  6
Continuous
 62
     7
370
    25
100
AcDbCircle
 10
-23.8141692726
 20
-26.8171802241
 30
0.0
 40
1.224999999999981
100
AcDbArc
 50
272.3387656112
 51
312.6612343888
  0
ARC
  5
5EC
330
1F
100
AcDbEntity
  8
0
  6
Continuous
 62
     7
370
    25
100
AcDbCircle
 10
-23.8141692726
 20
-28.0421802241
 30
0.0
 40
0.0500000000001135
100
AcDbArc
 50
1.1693828056
 51
178.8306171944
  0
ARC
  5
5ED
330
1F
100
AcDbEntity
  8
0
  6
Continuous
 62
     7
370
    25
100
AcDbCircle
 10
-23.8141692726
 20
-26.8171802241
 30
0.0
 40
1.224999999999968
100
AcDbArc
 50
227.3387656112
 51
267.6612343888
  0
ARC
  5
5EE
330
1F
100
AcDbEntity
  8
0
  6
Continuous
 62
     7
370
    25
100
AcDbCircle
 10
-24.6803750795
 20
-27.6833860311
 30
0.0
 40
0.0500000000001119
100
AcDbArc
 50
316.1693828056
 51
133.8306171944
  0
ARC
  5
5EF
330
1F
100
AcDbEntity
  8
0
  6
Continuous
 62
     7
370
    25
100
AcDbCircle
 10
-23.8141692726
 20
-26.8171802241
 30
0.0
 40
1.224999999999995
100
AcDbArc
 50
182.3387656112
 51
222.6612343888
  0
ARC
  5
5F0
330
1F
100
AcDbEntity
  8
0
  6
Continuous
 62
     7
370
    25
100
AcDbCircle
 10
-25.0391692726
 20
-26.8171802241
 30
0.0
 40
0.0500000000000876
100
AcDbArc
 50
271.1693828056
 51
88.8306171945
  0
ARC
  5
5F1
330
1F
100
AcDbEntity
  8
0
  6
Continuous
 62
     7
370
    25
100
AcDbCircle
 10
-23.8141692726
 20
-26.8171802241
 30
0.0
 40
1.224999999999993
100
AcDbArc
 50
137.3387656112
 51
177.6612343888
  0
ARC
  5
5F2
330
1F
100
AcDbEntity
  8
0
  6
Continuous
 62
     7
370
    25
100
AcDbCircle
 10
-23.8141692726
 20
-27.5671802241
 30
0.0
 40
0.0650000000000047
100
AcDbArc
 50
2.4835947994
 51
177.5164052006
  0
ARC
  5
5F3
330
1F
100
AcDbEntity
  8
0
  6
Continuous
 62
     7
370
    25
100
AcDbCircle
 10
-23.8141692726
 20
-26.8171802241
 30
0.0
 40
0.7499999999999855
100
AcDbArc
 50
274.9671895987
 51
310.0328104013
  0
ARC
  5
5F4
330
1F
100
AcDbEntity
  8
0
  6
Continuous
 62
     7
370
    25
100
AcDbCircle
 10
-23.2838391867
 20
-27.34751031
 30
0.0
 40
0.0650000000000093
100
AcDbArc
 50
47.4835947994
 51
222.5164052006
  0
ARC
  5
5F5
330
1F
100
AcDbEntity
  8
0
  6
Continuous
 62
     7
370
    25
100
AcDbCircle
 10
-23.8141692726
 20
-26.8171802241
 30
0.0
 40
0.7499999999999897
100
AcDbArc
 50
319.9671895987
 51
355.0328104013
  0
ARC
  5
5F6
330
1F
100
AcDbEntity
  8
0
  6
Continuous
 62
     7
370
    25
100
AcDbCircle
 10
-23.0641692726
 20
-26.8171802241
 30
0.0
 40
0.0650000000000391
100
AcDbArc
 50
92.4835947994
 51
267.5164052006
  0
ARC
  5
5F7
330
1F
100
AcDbEntity
  8
0
  6
Continuous
 62
     7
370
    25
100
AcDbCircle
 10
-23.8141692726
 20
-26.8171802241
 30
0.0
 40
0.7500000000000154
100
AcDbArc
 50
4.9671895987
 51
40.0328104013
  0
ARC
  5
5F8
330
1F
100
AcDbEntity
  8
0
  6
Continuous
 62
     7
370
    25
100
AcDbCircle
 10
-23.2838391867
 20
-26.2868501382
 30
0.0
 40
0.0650000000000671
100
AcDbArc
 50
137.4835947994
 51
312.5164052006
  0
ARC
  5
5F9
330
1F
100
AcDbEntity
  8
0
  6
Continuous
 62
     7
370
    25
100
AcDbCircle
 10
-23.8141692726
 20
-26.8171802241
 30
0.0
 40
0.7499999999999954
100
AcDbArc
 50
49.9671895987
 51
85.0328104013
  0
ARC
  5
5FA
330
1F
100
AcDbEntity
  8
0
  6
Continuous
 62
     7
370
    25
100
AcDbCircle
 10
-24.3444993585
 20
-26.2868501382
 30
0.0
 40
0.065000000000085
100
AcDbArc
 50
227.4835947993
 51
42.5164052007
  0
ARC
  5
5FB
330
1F
100
AcDbEntity
  8
0
  6
Continuous
 62
     7
370
    25
100
AcDbCircle
 10
-23.8141692726
 20
-26.8171802241
 30
0.0
 40
0.7499999999999646
100
AcDbArc
 50
139.9671895987
 51
175.0328104013
  0
ARC
  5
5FC
330
1F
100
AcDbEntity
  8
0
  6
Continuous
 62
     7
370
    25
100
AcDbCircle
 10
-24.5641692726
 20
-26.8171802241
 30
0.0
 40
0.0650000000000603
100
AcDbArc
 50
272.4835947993
 51
87.5164052007
  0
ARC
  5
5FD
330
1F
100
AcDbEntity
  8
0
  6
Continuous
 62
     7
370
    25
100
AcDbCircle
 10
-23.8141692726
 20
-26.8171802241
 30
0.0
 40
0.7500000000000134
100
AcDbArc
 50
184.9671895987
 51
220.0328104013
  0
ARC
  5
5FE
330
1F
100
AcDbEntity
  8
0
  6
Continuous
 62
     7
370
    25
100
AcDbCircle
 10
-24.3444993585
 20
-27.34751031
 30
0.0
 40
0.065000000000032
100
AcDbArc
 50
317.4835947993
 51
132.5164052007
  0
ARC
  5
5FF
330
1F
100
AcDbEntity
  8
0
  6
Continuous
 62
     7
370
    25
100
AcDbCircle
 10
-23.8141692726
 20
-26.8171802241
 30
0.0
 40
0.7500000000000725
100
AcDbArc
 50
229.9671895987
 51
265.0328104013
  0
ARC
  5
600
330
1F
100
AcDbEntity
  8
0
  6
Continuous
 62
     7
370
    25
100
AcDbCircle
 10
-22.9479634656
 20
-25.9509744171
 30
0.0
 40
0.0500000000000103
100
AcDbArc
 50
136.1693828057
 51
313.8306171943
  0
ARC
  5
601
330
1F
100
AcDbEntity
  8
0
  6
Continuous
 62
     7
370
    25
100
AcDbCircle
 10
-23.8141692726
 20
-26.8171802241
 30
0.0
 40
1.224999999999996
100
AcDbArc
 50
47.3387656112
 51
87.6612343888
  0
ARC
  5
602
330
1F
100
AcDbEntity
  8
0
  6
Continuous
 62
     7
370
    25
100
AcDbCircle
 10
-23.8141692726
 20
-25.5921802241
 30
0.0
 40
0.0499999999999997
100
AcDbArc
 50
181.1693828056
 51
358.8306171944
  0
ARC
  5
603
330
1F
100
AcDbEntity
  8
0
  6
Continuous
 62
     7
370
    25
100
AcDbCircle
 10
-24.6803750795
 20
-25.9509744171
 30
0.0
 40
0.0500000000000464
100
AcDbArc
 50
226.1693828056
 51
43.8306171944
  0
ARC
  5
604
330
1F
100
AcDbEntity
  8
0
  6
Continuous
 62
     7
370
    25
100
AcDbCircle
 10
-23.8141692726
 20
-26.0671802241
 30
0.0
 40
0.0650000000000869
100
AcDbArc
 50
182.4835947994
 51
357.5164052006
  0
ARC
  5
605
330
1F
100
AcDbEntity
  8
0
  6
Continuous
 62
     7
370
    25
100
AcDbCircle
 10
-23.8141692726
 20
-26.8171802241
 30
0.0
 40
0.7500000000000031
100
AcDbArc
 50
94.9671895987
 51
130.0328104013
  0
ARC
  5
606
330
1F
100
AcDbEntity
  8
0
  6
Continuous
 62
     7
370
    25
100
AcDbCircle
 10
-26.5075253569
 20
-13.2837309014
 30
0.0
 40
0.0499999999999998
100
AcDbArc
 50
181.1693828056
 51
358.8306171944
  0
ARC
  5
607
330
1F
100
AcDbEntity
  8
0
  6
Continuous
 62
     7
370
    25
100
AcDbCircle
 10
-26.5075253569
 20
-14.5087309014
 30
0.0
 40
1.225000000000019
100
AcDbArc
 50
47.3387656112
 51
87.6612343888
  0
ARC
  5
608
330
1F
100
AcDbEntity
  8
0
  6
Continuous
 62
     7
370
    25
100
AcDbCircle
 10
-26.5075253569
 20
-14.5087309014
 30
0.0
 40
1.225000000000038
100
AcDbArc
 50
2.3387656112
 51
42.6612343888
  0
ARC
  5
609
330
1F
100
AcDbEntity
  8
0
  6
Continuous
 62
     7
370
    25
100
AcDbCircle
 10
-25.2825253569
 20
-14.5087309014
 30
0.0
 40
0.0500000000000452
100
AcDbArc
 50
91.1693828057
 51
268.8306171943
  0
ARC
  5
60A
330
1F
100
AcDbEntity
  8
0
  6
Continuous
 62
     7
370
    25
100
AcDbCircle
 10
-26.5075253569
 20
-14.5087309014
 30
0.0
 40
1.225000000000021
100
AcDbArc
 50
317.3387656112
 51
357.6612343888
  0
ARC
  5
60B
330
1F
100
AcDbEntity
  8
0
  6
Continuous
 62
     7
370
    25
100
AcDbCircle
 10
-25.64131955
 20
-15.3749367084
 30
0.0
 40
0.0500000000000881
100
AcDbArc
 50
46.1693828057
 51
223.8306171943
  0
ARC
  5
60C
330
1F
100
AcDbEntity
  8
0
  6
Continuous
 62
     7
370
    25
100
AcDbCircle
 10
-26.5075253569
 20
-14.5087309014
 30
0.0
 40
1.225000000000032
100
AcDbArc
 50
272.3387656112
 51
312.6612343888
  0
ARC
  5
60D
330
1F
100
AcDbEntity
  8
0
  6
Continuous
 62
     7
370
    25
100
AcDbCircle
 10
-26.5075253569
 20
-15.7337309014
 30
0.0
 40
0.0500000000001138
100
AcDbArc
 50
1.1693828056
 51
178.8306171944
  0
ARC
  5
60E
330
1F
100
AcDbEntity
  8
0
  6
Continuous
 62
     7
370
    25
100
AcDbCircle
 10
-26.5075253569
 20
-14.5087309014
 30
0.0
 40
1.224999999999997
100
AcDbArc
 50
227.3387656112
 51
267.6612343888
  0
ARC
  5
60F
330
1F
100
AcDbEntity
  8
0
  6
Continuous
 62
     7
370
    25
100
AcDbCircle
 10
-27.3737311639
 20
-15.3749367084
 30
0.0
 40
0.0500000000001081
100
AcDbArc
 50
316.1693828056
 51
133.8306171944
  0
ARC
  5
610
330
1F
100
AcDbEntity
  8
0
  6
Continuous
 62
     7
370
    25
100
AcDbCircle
 10
-26.5075253569
 20
-14.5087309014
 30
0.0
 40
1.225000000000032
100
AcDbArc
 50
182.3387656112
 51
222.6612343888
  0
ARC
  5
611
330
1F
100
AcDbEntity
  8
0
  6
Continuous
 62
     7
370
    25
100
AcDbCircle
 10
-27.7325253569
 20
-14.5087309014
 30
0.0
 40
0.0500000000000843
100
AcDbArc
 50
271.1693828056
 51
88.8306171944
  0
ARC
  5
612
330
1F
100
AcDbEntity
  8
0
  6
Continuous
 62
     7
370
    25
100
AcDbCircle
 10
-26.5075253569
 20
-14.5087309014
 30
0.0
 40
1.224999999999966
100
AcDbArc
 50
137.3387656112
 51
177.6612343888
  0
ARC
  5
613
330
1F
100
AcDbEntity
  8
0
  6
Continuous
 62
     7
370
    25
100
AcDbCircle
 10
-26.5075253569
 20
-15.2587309014
 30
0.0
 40
0.0650000000000049
100
AcDbArc
 50
2.4835947994
 51
177.5164052006
  0
ARC
  5
614
330
1F
100
AcDbEntity
  8
0
  6
Continuous
 62
     7
370
    25
100
AcDbCircle
 10
-26.5075253569
 20
-14.5087309014
 30
0.0
 40
0.7499999999999977
100
AcDbArc
 50
274.9671895987
 51
310.0328104013
  0
ARC
  5
615
330
1F
100
AcDbEntity
  8
0
  6
Continuous
 62
     7
370
    25
100
AcDbCircle
 10
-25.9771952711
 20
-15.0390609873
 30
0.0
 40
0.0650000000000056
100
AcDbArc
 50
47.4835947994
 51
222.5164052006
  0
ARC
  5
616
330
1F
100
AcDbEntity
  8
0
  6
Continuous
 62
     7
370
    25
100
AcDbCircle
 10
-26.5075253569
 20
-14.5087309014
 30
0.0
 40
0.7500000000000204
100
AcDbArc
 50
319.9671895987
 51
355.0328104013
  0
ARC
  5
617
330
1F
100
AcDbEntity
  8
0
  6
Continuous
 62
     7
370
    25
100
AcDbCircle
 10
-25.7575253569
 20
-14.5087309014
 30
0.0
 40
0.0650000000000333
100
AcDbArc
 50
92.4835947994
 51
267.5164052006
  0
ARC
  5
618
330
1F
100
AcDbEntity
  8
0
  6
Continuous
 62
     7
370
    25
100
AcDbCircle
 10
-26.5075253569
 20
-14.5087309014
 30
0.0
 40
0.7499999999999626
100
AcDbArc
 50
4.9671895987
 51
40.0328104013
  0
ARC
  5
619
330
1F
100
AcDbEntity
  8
0
  6
Continuous
 62
     7
370
    25
100
AcDbCircle
 10
-25.9771952711
 20
-13.9784008155
 30
0.0
 40
0.0650000000000709
100
AcDbArc
 50
137.4835947994
 51
312.5164052006
  0
ARC
  5
61A
330
1F
100
AcDbEntity
  8
0
  6
Continuous
 62
     7
370
    25
100
AcDbCircle
 10
-26.5075253569
 20
-14.5087309014
 30
0.0
 40
0.7499999999999954
100
AcDbArc
 50
49.9671895987
 51
85.0328104013
  0
ARC
  5
61B
330
1F
100
AcDbEntity
  8
0
  6
Continuous
 62
     7
370
    25
100
AcDbCircle
 10
-26.5075253569
 20
-13.7587309014
 30
0.0
 40
0.0650000000000908
100
AcDbArc
 50
182.4835947994
 51
357.5164052006
  0
ARC
  5
61C
330
1F
100
AcDbEntity
  8
0
  6
Continuous
 62
     7
370
    25
100
AcDbCircle
 10
-26.5075253569
 20
-14.5087309014
 30
0.0
 40
0.7499999999999952
100
AcDbArc
 50
94.9671895987
 51
130.0328104013
  0
ARC
  5
61D
330
1F
100
AcDbEntity
  8
0
  6
Continuous
 62
     7
370
    25
100
AcDbCircle
 10
-27.0378554428
 20
-13.9784008155
 30
0.0
 40
0.065000000000087
100
AcDbArc
 50
227.4835947993
 51
42.5164052007
  0
ARC
  5
61E
330
1F
100
AcDbEntity
  8
0
  6
Continuous
 62
     7
370
    25
100
AcDbCircle
 10
-26.5075253569
 20
-14.5087309014
 30
0.0
 40
0.7499999999999537
100
AcDbArc
 50
139.9671895987
 51
175.0328104013
  0
ARC
  5
61F
330
1F
100
AcDbEntity
  8
0
  6
Continuous
 62
     7
370
    25
100
AcDbCircle
 10
-27.2575253569
 20
-14.5087309014
 30
0.0
 40
0.0650000000000635
100
AcDbArc
 50
272.4835947993
 51
87.5164052007
  0
ARC
  5
620
330
1F
100
AcDbEntity
  8
0
  6
Continuous
 62
     7
370
    25
100
AcDbCircle
 10
-26.5075253569
 20
-14.5087309014
 30
0.0
 40
0.7500000000000487
100
AcDbArc
 50
184.9671895987
 51
220.0328104013
  0
ARC
  5
621
330
1F
100
AcDbEntity
  8
0
  6
Continuous
 62
     7
370
    25
100
AcDbCircle
 10
-27.0378554428
 20
-15.0390609873
 30
0.0
 40
0.0650000000000313
100
AcDbArc
 50
317.4835947993
 51
132.5164052007
  0
ARC
  5
622
330
1F
100
AcDbEntity
  8
0
  6
Continuous
 62
     7
370
    25
100
AcDbCircle
 10
-26.5075253569
 20
-14.5087309014
 30
0.0
 40
0.7500000000000439
100
AcDbArc
 50
229.9671895987
 51
265.0328104013
  0
ARC
  5
623
330
1F
100
AcDbEntity
  8
0
  6
Continuous
 62
     7
370
    25
100
AcDbCircle
 10
-25.64131955
 20
-13.6425250945
 30
0.0
 40
0.0500000000000116
100
AcDbArc
 50
136.1693828057
 51
313.8306171943
  0
ARC
  5
624
330
1F
100
AcDbEntity
  8
0
  6
Continuous
 62
     7
370
    25
100
AcDbCircle
 10
-27.3737311639
 20
-13.6425250945
 30
0.0
 40
0.0500000000000428
100
AcDbArc
 50
226.1693828056
 51
43.8306171944
  0
ARC
  5
625
330
1F
100
AcDbEntity
  8
0
  6
Continuous
 62
     7
370
    25
100
AcDbCircle
 10
-26.5075253569
 20
-14.5087309014
 30
0.0
 40
1.225000000000013
100
AcDbArc
 50
92.3387656112
 51
132.6612343888
  0
ARC
  5
626
330
1F
100
AcDbEntity
  8
0
  6
Continuous
 62
     7
370
    25
100
AcDbCircle
 10
-23.8433242019
 20
-14.5049239382
 30
0.0
 40
1.225000000000005
100
AcDbArc
 50
2.3387656112
 51
42.6612343888
  0
ARC
  5
627
330
1F
100
AcDbEntity
  8
0
  6
Continuous
 62
     7
370
    25
100
AcDbCircle
 10
-22.6183242019
 20
-14.5049239382
 30
0.0
 40
0.0500000000000452
100
AcDbArc
 50
91.1693828057
 51
268.8306171943
  0
ARC
  5
628
330
1F
100
AcDbEntity
  8
0
  6
Continuous
 62
     7
370
    25
100
AcDbCircle
 10
-23.8433242019
 20
-14.5049239382
 30
0.0
 40
1.225000000000023
100
AcDbArc
 50
317.3387656112
 51
357.6612343888
  0
ARC
  5
629
330
1F
100
AcDbEntity
  8
0
  6
Continuous
 62
     7
370
    25
100
AcDbCircle
 10
-22.977118395
 20
-15.3711297452
 30
0.0
 40
0.0500000000000846
100
AcDbArc
 50
46.1693828057
 51
223.8306171943
  0
ARC
  5
62A
330
1F
100
AcDbEntity
  8
0
  6
Continuous
 62
     7
370
    25
100
AcDbCircle
 10
-23.8433242019
 20
-14.5049239382
 30
0.0
 40
1.224999999999973
100
AcDbArc
 50
272.3387656112
 51
312.6612343888
  0
ARC
  5
62B
330
1F
100
AcDbEntity
  8
0
  6
Continuous
 62
     7
370
    25
100
AcDbCircle
 10
-23.8433242019
 20
-15.7299239382
 30
0.0
 40
0.0500000000001101
100
AcDbArc
 50
1.1693828056
 51
178.8306171944
  0
ARC
  5
62C
330
1F
100
AcDbEntity
  8
0
  6
Continuous
 62
     7
370
    25
100
AcDbCircle
 10
-23.8433242019
 20
-14.5049239382
 30
0.0
 40
1.225000000000039
100
AcDbArc
 50
227.3387656112
 51
267.6612343888
  0
ARC
  5
62D
330
1F
100
AcDbEntity
  8
0
  6
Continuous
 62
     7
370
    25
100
AcDbCircle
 10
-24.7095300089
 20
-15.3711297452
 30
0.0
 40
0.0500000000001106
100
AcDbArc
 50
316.1693828056
 51
133.8306171944
  0
ARC
  5
62E
330
1F
100
AcDbEntity
  8
0
  6
Continuous
 62
     7
370
    25
100
AcDbCircle
 10
-23.8433242019
 20
-14.5049239382
 30
0.0
 40
1.225000000000002
100
AcDbArc
 50
182.3387656112
 51
222.6612343888
  0
ARC
  5
62F
330
1F
100
AcDbEntity
  8
0
  6
Continuous
 62
     7
370
    25
100
AcDbCircle
 10
-25.0683242019
 20
-14.5049239382
 30
0.0
 40
0.0500000000000822
100
AcDbArc
 50
271.1693828056
 51
88.8306171944
  0
ARC
  5
630
330
1F
100
AcDbEntity
  8
0
  6
Continuous
 62
     7
370
    25
100
AcDbCircle
 10
-23.8433242019
 20
-14.5049239382
 30
0.0
 40
1.225000000000008
100
AcDbArc
 50
137.3387656112
 51
177.6612343888
  0
ARC
  5
631
330
1F
100
AcDbEntity
  8
0
  6
Continuous
 62
     7
370
    25
100
AcDbCircle
 10
-23.8433242019
 20
-15.2549239382
 30
0.0
 40
0.0650000000000048
100
AcDbArc
 50
2.4835947994
 51
177.5164052006
  0
ARC
  5
632
330
1F
100
AcDbEntity
  8
0
  6
Continuous
 62
     7
370
    25
100
AcDbCircle
 10
-23.8433242019
 20
-14.5049239382
 30
0.0
 40
0.7499999999999931
100
AcDbArc
 50
274.9671895987
 51
310.0328104013
  0
ARC
  5
633
330
1F
100
AcDbEntity
  8
0
  6
Continuous
 62
     7
370
    25
100
AcDbCircle
 10
-23.312994116
 20
-15.0352540241
 30
0.0
 40
0.0650000000000067
100
AcDbArc
 50
47.4835947994
 51
222.5164052006
  0
ARC
  5
634
330
1F
100
AcDbEntity
  8
0
  6
Continuous
 62
     7
370
    25
100
AcDbCircle
 10
-23.8433242019
 20
-14.5049239382
 30
0.0
 40
0.749999999999979
100
AcDbArc
 50
319.9671895987
 51
355.0328104013
  0
ARC
  5
635
330
1F
100
AcDbEntity
  8
0
  6
Continuous
 62
     7
370
    25
100
AcDbCircle
 10
-23.0933242019
 20
-14.5049239382
 30
0.0
 40
0.0650000000000335
100
AcDbArc
 50
92.4835947994
 51
267.5164052006
  0
ARC
  5
636
330
1F
100
AcDbEntity
  8
0
  6
Continuous
 62
     7
370
    25
100
AcDbCircle
 10
-23.8433242019
 20
-14.5049239382
 30
0.0
 40
0.7499999999999769
100
AcDbArc
 50
4.9671895987
 51
40.0328104013
  0
ARC
  5
637
330
1F
100
AcDbEntity
  8
0
  6
Continuous
 62
     7
370
    25
100
AcDbCircle
 10
-23.312994116
 20
-13.9745938523
 30
0.0
 40
0.0650000000000667
100
AcDbArc
 50
137.4835947994
 51
312.5164052006
  0
ARC
  5
638
330
1F
100
AcDbEntity
  8
0
  6
Continuous
 62
     7
370
    25
100
AcDbCircle
 10
-23.8433242019
 20
-14.5049239382
 30
0.0
 40
0.7500000000000105
100
AcDbArc
 50
49.9671895987
 51
85.0328104013
  0
ARC
  5
639
330
1F
100
AcDbEntity
  8
0
  6
Continuous
 62
     7
370
    25
100
AcDbCircle
 10
-23.8433242019
 20
-13.7549239382
 30
0.0
 40
0.065000000000087
100
AcDbArc
 50
182.4835947994
 51
357.5164052006
  0
ARC
  5
63A
330
1F
100
AcDbEntity
  8
0
  6
Continuous
 62
     7
370
    25
100
AcDbCircle
 10
-23.8433242019
 20
-14.5049239382
 30
0.0
 40
0.7499999999999476
100
AcDbArc
 50
94.9671895987
 51
130.0328104013
  0
ARC
  5
63B
330
1F
100
AcDbEntity
  8
0
  6
Continuous
 62
     7
370
    25
100
AcDbCircle
 10
-24.3736542878
 20
-13.9745938523
 30
0.0
 40
0.0650000000000862
100
AcDbArc
 50
227.4835947993
 51
42.5164052007
  0
ARC
  5
63C
330
1F
100
AcDbEntity
  8
0
  6
Continuous
 62
     7
370
    25
100
AcDbCircle
 10
-23.8433242019
 20
-14.5049239382
 30
0.0
 40
0.750000000000005
100
AcDbArc
 50
139.9671895987
 51
175.0328104013
  0
ARC
  5
63D
330
1F
100
AcDbEntity
  8
0
  6
Continuous
 62
     7
370
    25
100
AcDbCircle
 10
-24.5933242019
 20
-14.5049239382
 30
0.0
 40
0.0650000000000635
100
AcDbArc
 50
272.4835947993
 51
87.5164052007
  0
ARC
  5
63E
330
1F
100
AcDbEntity
  8
0
  6
Continuous
 62
     7
370
    25
100
AcDbCircle
 10
-23.8433242019
 20
-14.5049239382
 30
0.0
 40
0.7499999999999942
100
AcDbArc
 50
184.9671895987
 51
220.0328104013
  0
ARC
  5
63F
330
1F
100
AcDbEntity
  8
0
  6
Continuous
 62
     7
370
    25
100
AcDbCircle
 10
-24.3736542878
 20
-15.0352540241
 30
0.0
 40
0.0650000000000331
100
AcDbArc
 50
317.4835947993
 51
132.5164052007
  0
ARC
  5
640
330
1F
100
AcDbEntity
  8
0
  6
Continuous
 62
     7
370
    25
100
AcDbCircle
 10
-23.8433242019
 20
-14.5049239382
 30
0.0
 40
0.7500000000000071
100
AcDbArc
 50
229.9671895987
 51
265.0328104013
  0
ARC
  5
641
330
1F
100
AcDbEntity
  8
0
  6
Continuous
 62
     7
370
    25
100
AcDbCircle
 10
-23.8433242019
 20
-14.5049239382
 30
0.0
 40
1.225000000000012
100
AcDbArc
 50
47.3387656112
 51
87.6612343888
  0
ARC
  5
642
330
1F
100
AcDbEntity
  8
0
  6
Continuous
 62
     7
370
    25
100
AcDbCircle
 10
-22.977118395
 20
-13.6387181312
 30
0.0
 40
0.0500000000000079
100
AcDbArc
 50
136.1693828057
 51
313.8306171943
  0
ARC
  5
643
330
1F
100
AcDbEntity
  8
0
  6
Continuous
 62
     7
370
    25
100
AcDbCircle
 10
-23.8433242019
 20
-13.2799239382
 30
0.0
 40
0.0500000000000069
100
AcDbArc
 50
181.1693828056
 51
358.8306171944
  0
ARC
  5
644
330
1F
100
AcDbEntity
  8
0
  6
Continuous
 62
     7
370
    25
100
AcDbCircle
 10
-24.7095300089
 20
-13.6387181312
 30
0.0
 40
0.0500000000000402
100
AcDbArc
 50
226.1693828056
 51
43.8306171944
  0
ARC
  5
645
330
1F
100
AcDbEntity
  8
0
  6
Continuous
 62
     7
370
    25
100
AcDbCircle
 10
-23.8433242019
 20
-14.5049239382
 30
0.0
 40
1.225000000000018
100
AcDbArc
 50
92.3387656112
 51
132.6612343888
  0
ARC
  5
646
330
1F
100
AcDbEntity
  8
0
  6
Continuous
 62
     7
370
    25
100
AcDbCircle
 10
-21.2678424415
 20
-9.7264832193
 30
0.0
 40
1.224999999999981
100
AcDbArc
 50
92.3387656112
 51
132.6612343888
  0
ARC
  5
647
330
1F
100
AcDbEntity
  8
0
  6
Continuous
 62
     7
370
    25
100
AcDbCircle
 10
-21.2678424415
 20
-8.5014832193
 30
0.0
 40
0.0499999999999998
100
AcDbArc
 50
181.1693828056
 51
358.8306171944
  0
ARC
  5
648
330
1F
100
AcDbEntity
  8
0
  6
Continuous
 62
     7
370
    25
100
AcDbCircle
 10
-21.2678424415
 20
-9.7264832193
 30
0.0
 40
1.225000000000001
100
AcDbArc
 50
47.3387656112
 51
87.6612343888
  0
ARC
  5
649
330
1F
100
AcDbEntity
  8
0
  6
Continuous
 62
     7
370
    25
100
AcDbCircle
 10
-20.4016366346
 20
-8.8602774123
 30
0.0
 40
0.0500000000000079
100
AcDbArc
 50
136.1693828057
 51
313.8306171943
  0
ARC
  5
64A
330
1F
100
AcDbEntity
  8
0
  6
Continuous
 62
     7
370
    25
100
AcDbCircle
 10
-21.2678424415
 20
-9.7264832193
 30
0.0
 40
1.225000000000018
100
AcDbArc
 50
2.3387656112
 51
42.6612343888
  0
ARC
  5
64B
330
1F
100
AcDbEntity
  8
0
  6
Continuous
 62
     7
370
    25
100
AcDbCircle
 10
-20.0428424415
 20
-9.7264832193
 30
0.0
 40
0.0500000000000435
100
AcDbArc
 50
91.1693828057
 51
268.8306171943
  0
ARC
  5
64C
330
1F
100
AcDbEntity
  8
0
  6
Continuous
 62
     7
370
    25
100
AcDbCircle
 10
-21.2678424415
 20
-9.7264832193
 30
0.0
 40
1.224999999999987
100
AcDbArc
 50
317.3387656112
 51
357.6612343888
  0
ARC
  5
64D
330
1F
100
AcDbEntity
  8
0
  6
Continuous
 62
     7
370
    25
100
AcDbCircle
 10
-20.4016366346
 20
-10.5926890262
 30
0.0
 40
0.0500000000000833
100
AcDbArc
 50
46.1693828057
 51
223.8306171943
  0
ARC
  5
64E
330
1F
100
AcDbEntity
  8
0
  6
Continuous
 62
     7
370
    25
100
AcDbCircle
 10
-21.2678424415
 20
-9.7264832193
 30
0.0
 40
1.224999999999998
100
AcDbArc
 50
272.3387656112
 51
312.6612343888
  0
ARC
  5
64F
330
1F
100
AcDbEntity
  8
0
  6
Continuous
 62
     7
370
    25
100
AcDbCircle
 10
-21.2678424415
 20
-10.9514832193
 30
0.0
 40
0.05000000000011
100
AcDbArc
 50
1.1693828056
 51
178.8306171944
  0
ARC
  5
650
330
1F
100
AcDbEntity
  8
0
  6
Continuous
 62
     7
370
    25
100
AcDbCircle
 10
-21.2678424415
 20
-9.7264832193
 30
0.0
 40
1.225000000000014
100
AcDbArc
 50
227.3387656112
 51
267.6612343888
  0
ARC
  5
651
330
1F
100
AcDbEntity
  8
0
  6
Continuous
 62
     7
370
    25
100
AcDbCircle
 10
-22.1340482485
 20
-10.5926890262
 30
0.0
 40
0.0500000000001107
100
AcDbArc
 50
316.1693828056
 51
133.8306171944
  0
ARC
  5
652
330
1F
100
AcDbEntity
  8
0
  6
Continuous
 62
     7
370
    25
100
AcDbCircle
 10
-21.2678424415
 20
-9.7264832193
 30
0.0
 40
1.224999999999995
100
AcDbArc
 50
182.3387656112
 51
222.6612343888
  0
ARC
  5
653
330
1F
100
AcDbEntity
  8
0
  6
Continuous
 62
     7
370
    25
100
AcDbCircle
 10
-22.4928424415
 20
-9.7264832193
 30
0.0
 40
0.0500000000000823
100
AcDbArc
 50
271.1693828056
 51
88.8306171944
  0
ARC
  5
654
330
1F
100
AcDbEntity
  8
0
  6
Continuous
 62
     7
370
    25
100
AcDbCircle
 10
-21.2678424415
 20
-9.7264832193
 30
0.0
 40
1.225
100
AcDbArc
 50
137.3387656112
 51
177.6612343888
  0
ARC
  5
655
330
1F
100
AcDbEntity
  8
0
  6
Continuous
 62
     7
370
    25
100
AcDbCircle
 10
-22.1340482485
 20
-8.8602774123
 30
0.0
 40
0.050000000000044
100
AcDbArc
 50
226.1693828056
 51
43.8306171944
  0
ARC
  5
656
330
1F
100
AcDbEntity
  8
0
  6
Continuous
 62
     7
370
    25
100
AcDbCircle
 10
16.2943994369
 20
-22.4594588933
 30
0.0
 40
0.050000000000008
100
AcDbArc
 50
136.1693828057
 51
313.8306171943
  0
ARC
  5
657
330
1F
100
AcDbEntity
  8
0
  6
Continuous
 62
     7
370
    25
100
AcDbCircle
 10
15.42819363
 20
-23.3256647002
 30
0.0
 40
1.224999999999997
100
AcDbArc
 50
2.3387656112
 51
42.6612343888
  0
ARC
  5
658
330
1F
100
AcDbEntity
  8
0
  6
Continuous
 62
     7
370
    25
100
AcDbCircle
 10
16.65319363
 20
-23.3256647002
 30
0.0
 40
0.0500000000000436
100
AcDbArc
 50
91.1693828057
 51
268.8306171943
  0
ARC
  5
659
330
1F
100
AcDbEntity
  8
0
  6
Continuous
 62
     7
370
    25
100
AcDbCircle
 10
15.42819363
 20
-23.3256647002
 30
0.0
 40
1.225000000000002
100
AcDbArc
 50
317.3387656112
 51
357.6612343888
  0
ARC
  5
65A
330
1F
100
AcDbEntity
  8
0
  6
Continuous
 62
     7
370
    25
100
AcDbCircle
 10
16.2943994369
 20
-24.1918705072
 30
0.0
 40
0.0500000000000832
100
AcDbArc
 50
46.1693828057
 51
223.8306171943
  0
ARC
  5
65B
330
1F
100
AcDbEntity
  8
0
  6
Continuous
 62
     7
370
    25
100
AcDbCircle
 10
15.42819363
 20
-23.3256647002
 30
0.0
 40
1.224999999999962
100
AcDbArc
 50
272.3387656112
 51
312.6612343888
  0
ARC
  5
65C
330
1F
100
AcDbEntity
  8
0
  6
Continuous
 62
     7
370
    25
100
AcDbCircle
 10
15.42819363
 20
-24.5506647002
 30
0.0
 40
0.0500000000001119
100
AcDbArc
 50
1.1693828056
 51
178.8306171944
  0
ARC
  5
65D
330
1F
100
AcDbEntity
  8
0
  6
Continuous
 62
     7
370
    25
100
AcDbCircle
 10
15.42819363
 20
-23.3256647002
 30
0.0
 40
1.225000000000021
100
AcDbArc
 50
227.3387656112
 51
267.6612343888
  0
ARC
  5
65E
330
1F
100
AcDbEntity
  8
0
  6
Continuous
 62
     7
370
    25
100
AcDbCircle
 10
14.561987823
 20
-24.1918705072
 30
0.0
 40
0.0500000000001118
100
AcDbArc
 50
316.1693828056
 51
133.8306171944
  0
ARC
  5
65F
330
1F
100
AcDbEntity
  8
0
  6
Continuous
 62
     7
370
    25
100
AcDbCircle
 10
15.42819363
 20
-23.3256647002
 30
0.0
 40
1.225000000000013
100
AcDbArc
 50
182.3387656112
 51
222.6612343888
  0
ARC
  5
660
330
1F
100
AcDbEntity
  8
0
  6
Continuous
 62
     7
370
    25
100
AcDbCircle
 10
14.20319363
 20
-23.3256647002
 30
0.0
 40
0.0500000000000841
100
AcDbArc
 50
271.1693828056
 51
88.8306171944
  0
ARC
  5
661
330
1F
100
AcDbEntity
  8
0
  6
Continuous
 62
     7
370
    25
100
AcDbCircle
 10
15.42819363
 20
-23.3256647002
 30
0.0
 40
1.225000000000006
100
AcDbArc
 50
137.3387656112
 51
177.6612343888
  0
ARC
  5
662
330
1F
100
AcDbEntity
  8
0
  6
Continuous
 62
     7
370
    25
100
AcDbCircle
 10
14.561987823
 20
-22.4594588933
 30
0.0
 40
0.0500000000000415
100
AcDbArc
 50
226.1693828056
 51
43.8306171944
  0
ARC
  5
663
330
1F
100
AcDbEntity
  8
0
  6
Continuous
 62
     7
370
    25
100
AcDbCircle
 10
15.42819363
 20
-23.3256647002
 30
0.0
 40
1.225000000000009
100
AcDbArc
 50
47.3387656112
 51
87.6612343888
  0
ARC
  5
664
330
1F
100
AcDbEntity
  8
0
  6
Continuous
 62
     7
370
    25
100
AcDbCircle
 10
15.42819363
 20
-23.3256647002
 30
0.0
 40
1.224999999999997
100
AcDbArc
 50
92.3387656112
 51
132.6612343888
  0
ARC
  5
665
330
1F
100
AcDbEntity
  8
0
  6
Continuous
 62
     7
370
    25
100
AcDbCircle
 10
15.42819363
 20
-22.1006647002
 30
0.0
 40
0.0499999999999999
100
AcDbArc
 50
181.1693828056
 51
358.8306171944
  0
ARC
  5
666
330
1F
100
AcDbEntity
  8
0
  6
Continuous
 62
     7
370
    25
100
AcDbCircle
 10
18.9760263401
 20
-22.4568573042
 30
0.0
 40
0.0500000000000104
100
AcDbArc
 50
136.1693828057
 51
313.8306171943
  0
ARC
  5
667
330
1F
100
AcDbEntity
  8
0
  6
Continuous
 62
     7
370
    25
100
AcDbCircle
 10
18.1098205331
 20
-23.3230631112
 30
0.0
 40
1.225000000000029
100
AcDbArc
 50
2.3387656112
 51
42.6612343888
  0
ARC
  5
668
330
1F
100
AcDbEntity
  8
0
  6
Continuous
 62
     7
370
    25
100
AcDbCircle
 10
19.3348205331
 20
-23.3230631112
 30
0.0
 40
0.0500000000000436
100
AcDbArc
 50
91.1693828057
 51
268.8306171943
  0
ARC
  5
669
330
1F
100
AcDbEntity
  8
0
  6
Continuous
 62
     7
370
    25
100
AcDbCircle
 10
18.1098205331
 20
-23.3230631112
 30
0.0
 40
1.225000000000036
100
AcDbArc
 50
317.3387656112
 51
357.6612343888
  0
ARC
  5
66A
330
1F
100
AcDbEntity
  8
0
  6
Continuous
 62
     7
370
    25
100
AcDbCircle
 10
18.9760263401
 20
-24.1892689181
 30
0.0
 40
0.0500000000000832
100
AcDbArc
 50
46.1693828057
 51
223.8306171944
  0
ARC
  5
66B
330
1F
100
AcDbEntity
  8
0
  6
Continuous
 62
     7
370
    25
100
AcDbCircle
 10
18.1098205331
 20
-23.3230631112
 30
0.0
 40
1.225000000000013
100
AcDbArc
 50
272.3387656112
 51
312.6612343888
  0
ARC
  5
66C
330
1F
100
AcDbEntity
  8
0
  6
Continuous
 62
     7
370
    25
100
AcDbCircle
 10
18.1098205331
 20
-24.5480631112
 30
0.0
 40
0.05000000000011
100
AcDbArc
 50
1.1693828056
 51
178.8306171944
  0
ARC
  5
66D
330
1F
100
AcDbEntity
  8
0
  6
Continuous
 62
     7
370
    25
100
AcDbCircle
 10
18.1098205331
 20
-23.3230631112
 30
0.0
 40
1.225000000000025
100
AcDbArc
 50
227.3387656112
 51
267.6612343888
  0
ARC
  5
66E
330
1F
100
AcDbEntity
  8
0
  6
Continuous
 62
     7
370
    25
100
AcDbCircle
 10
17.2436147262
 20
-24.1892689181
 30
0.0
 40
0.0500000000001095
100
AcDbArc
 50
316.1693828056
 51
133.8306171944
  0
ARC
  5
66F
330
1F
100
AcDbEntity
  8
0
  6
Continuous
 62
     7
370
    25
100
AcDbCircle
 10
18.1098205331
 20
-23.3230631112
 30
0.0
 40
1.224999999999959
100
AcDbArc
 50
182.3387656112
 51
222.6612343888
  0
ARC
  5
670
330
1F
100
AcDbEntity
  8
0
  6
Continuous
 62
     7
370
    25
100
AcDbCircle
 10
16.8848205331
 20
-23.3230631112
 30
0.0
 40
0.0500000000000842
100
AcDbArc
 50
271.1693828056
 51
88.8306171944
  0
ARC
  5
671
330
1F
100
AcDbEntity
  8
0
  6
Continuous
 62
     7
370
    25
100
AcDbCircle
 10
18.1098205331
 20
-23.3230631112
 30
0.0
 40
1.224999999999979
100
AcDbArc
 50
137.3387656112
 51
177.6612343888
  0
ARC
  5
672
330
1F
100
AcDbEntity
  8
0
  6
Continuous
 62
     7
370
    25
100
AcDbCircle
 10
17.2436147262
 20
-22.4568573042
 30
0.0
 40
0.0500000000000416
100
AcDbArc
 50
226.1693828056
 51
43.8306171944
  0
ARC
  5
673
330
1F
100
AcDbEntity
  8
0
  6
Continuous
 62
     7
370
    25
100
AcDbCircle
 10
18.1098205331
 20
-23.3230631112
 30
0.0
 40
1.224999999999949
100
AcDbArc
 50
47.3387656112
 51
87.6612343888
  0
ARC
  5
674
330
1F
100
AcDbEntity
  8
0
  6
Continuous
 62
     7
370
    25
100
AcDbCircle
 10
18.1098205331
 20
-22.0980631112
 30
0.0
 40
0.0499999999999998
100
AcDbArc
 50
181.1693828056
 51
358.8306171944
  0
ARC
  5
675
330
1F
100
AcDbEntity
  8
0
  6
Continuous
 62
     7
370
    25
100
AcDbCircle
 10
18.1098205331
 20
-23.3230631112
 30
0.0
 40
1.224999999999978
100
AcDbArc
 50
92.3387656112
 51
132.6612343888
  0
ARC
  5
676
330
1F
100
AcDbEntity
  8
0
  6
Continuous
 62
     7
370
    25
100
AcDbCircle
 10
23.4820949793
 20
-23.3306815874
 30
0.0
 40
1.224999999999992
100
AcDbArc
 50
92.3387656112
 51
132.6612343888
  0
ARC
  5
677
330
1F
100
AcDbEntity
  8
0
  6
Continuous
 62
     7
370
    25
100
AcDbCircle
 10
24.3483007863
 20
-22.4644757804
 30
0.0
 40
0.0500000000000078
100
AcDbArc
 50
136.1693828057
 51
313.8306171943
  0
ARC
  5
678
330
1F
100
AcDbEntity
  8
0
  6
Continuous
 62
     7
370
    25
100
AcDbCircle
 10
23.4820949793
 20
-23.3306815874
 30
0.0
 40
1.224999999999979
100
AcDbArc
 50
2.3387656112
 51
42.6612343888
  0
ARC
  5
679
330
1F
100
AcDbEntity
  8
0
  6
Continuous
 62
     7
370
    25
100
AcDbCircle
 10
24.7070949793
 20
-23.3306815874
 30
0.0
 40
0.0500000000000436
100
AcDbArc
 50
91.1693828057
 51
268.8306171943
  0
ARC
  5
67A
330
1F
100
AcDbEntity
  8
0
  6
Continuous
 62
     7
370
    25
100
AcDbCircle
 10
23.4820949793
 20
-23.3306815874
 30
0.0
 40
1.224999999999995
100
AcDbArc
 50
317.3387656112
 51
357.6612343888
  0
ARC
  5
67B
330
1F
100
AcDbEntity
  8
0
  6
Continuous
 62
     7
370
    25
100
AcDbCircle
 10
24.3483007863
 20
-24.1968873943
 30
0.0
 40
0.0500000000000859
100
AcDbArc
 50
46.1693828057
 51
223.8306171943
  0
ARC
  5
67C
330
1F
100
AcDbEntity
  8
0
  6
Continuous
 62
     7
370
    25
100
AcDbCircle
 10
23.4820949793
 20
-23.3306815874
 30
0.0
 40
1.224999999999971
100
AcDbArc
 50
272.3387656112
 51
312.6612343888
  0
ARC
  5
67D
330
1F
100
AcDbEntity
  8
0
  6
Continuous
 62
     7
370
    25
100
AcDbCircle
 10
23.4820949793
 20
-24.5556815874
 30
0.0
 40
0.05000000000011
100
AcDbArc
 50
1.1693828056
 51
178.8306171944
  0
ARC
  5
67E
330
1F
100
AcDbEntity
  8
0
  6
Continuous
 62
     7
370
    25
100
AcDbCircle
 10
23.4820949793
 20
-23.3306815874
 30
0.0
 40
1.225000000000027
100
AcDbArc
 50
227.3387656112
 51
267.6612343888
  0
ARC
  5
67F
330
1F
100
AcDbEntity
  8
0
  6
Continuous
 62
     7
370
    25
100
AcDbCircle
 10
22.6158891724
 20
-24.1968873943
 30
0.0
 40
0.0500000000001117
100
AcDbArc
 50
316.1693828056
 51
133.8306171944
  0
ARC
  5
680
330
1F
100
AcDbEntity
  8
0
  6
Continuous
 62
     7
370
    25
100
AcDbCircle
 10
23.4820949793
 20
-23.3306815874
 30
0.0
 40
1.225000000000024
100
AcDbArc
 50
182.3387656112
 51
222.6612343888
  0
ARC
  5
681
330
1F
100
AcDbEntity
  8
0
  6
Continuous
 62
     7
370
    25
100
AcDbCircle
 10
22.2570949793
 20
-23.3306815874
 30
0.0
 40
0.0500000000000841
100
AcDbArc
 50
271.1693828056
 51
88.8306171944
  0
ARC
  5
682
330
1F
100
AcDbEntity
  8
0
  6
Continuous
 62
     7
370
    25
100
AcDbCircle
 10
23.4820949793
 20
-23.3306815874
 30
0.0
 40
1.224999999999979
100
AcDbArc
 50
137.3387656112
 51
177.6612343888
  0
ARC
  5
683
330
1F
100
AcDbEntity
  8
0
  6
Continuous
 62
     7
370
    25
100
AcDbCircle
 10
22.6158891724
 20
-22.4644757804
 30
0.0
 40
0.0500000000000439
100
AcDbArc
 50
226.1693828056
 51
43.8306171944
  0
ARC
  5
684
330
1F
100
AcDbEntity
  8
0
  6
Continuous
 62
     7
370
    25
100
AcDbCircle
 10
23.4820949793
 20
-23.3306815874
 30
0.0
 40
1.224999999999967
100
AcDbArc
 50
47.3387656112
 51
87.6612343888
  0
ARC
  5
685
330
1F
100
AcDbEntity
  8
0
  6
Continuous
 62
     7
370
    25
100
AcDbCircle
 10
23.4820949793
 20
-22.1056815874
 30
0.0
 40
0.0500000000000034
100
AcDbArc
 50
181.1693828056
 51
358.8306171944
  0
ARC
  5
686
330
1F
100
AcDbEntity
  8
0
  6
Continuous
 62
     7
370
    25
100
AcDbCircle
 10
20.8067850646
 20
-23.3192109397
 30
0.0
 40
1.22500000000001
100
AcDbArc
 50
92.3387656112
 51
132.6612343888
  0
ARC
  5
687
330
1F
100
AcDbEntity
  8
0
  6
Continuous
 62
     7
370
    25
100
AcDbCircle
 10
20.8067850646
 20
-22.0942109397
 30
0.0
 40
0.0499999999999997
100
AcDbArc
 50
181.1693828056
 51
358.8306171944
  0
ARC
  5
688
330
1F
100
AcDbEntity
  8
0
  6
Continuous
 62
     7
370
    25
100
AcDbCircle
 10
21.6729908715
 20
-22.4530051328
 30
0.0
 40
0.050000000000008
100
AcDbArc
 50
136.1693828057
 51
313.8306171943
  0
ARC
  5
689
330
1F
100
AcDbEntity
  8
0
  6
Continuous
 62
     7
370
    25
100
AcDbCircle
 10
20.8067850646
 20
-23.3192109397
 30
0.0
 40
1.225000000000032
100
AcDbArc
 50
2.3387656112
 51
42.6612343888
  0
ARC
  5
68A
330
1F
100
AcDbEntity
  8
0
  6
Continuous
 62
     7
370
    25
100
AcDbCircle
 10
22.0317850646
 20
-23.3192109397
 30
0.0
 40
0.0500000000000436
100
AcDbArc
 50
91.1693828057
 51
268.8306171943
  0
ARC
  5
68B
330
1F
100
AcDbEntity
  8
0
  6
Continuous
 62
     7
370
    25
100
AcDbCircle
 10
20.8067850646
 20
-23.3192109397
 30
0.0
 40
1.224999999999977
100
AcDbArc
 50
317.3387656112
 51
357.6612343888
  0
ARC
  5
68C
330
1F
100
AcDbEntity
  8
0
  6
Continuous
 62
     7
370
    25
100
AcDbCircle
 10
21.6729908715
 20
-24.1854167467
 30
0.0
 40
0.0500000000000858
100
AcDbArc
 50
46.1693828057
 51
223.8306171943
  0
ARC
  5
68D
330
1F
100
AcDbEntity
  8
0
  6
Continuous
 62
     7
370
    25
100
AcDbCircle
 10
20.8067850646
 20
-23.3192109397
 30
0.0
 40
1.225000000000022
100
AcDbArc
 50
272.3387656112
 51
312.6612343888
  0
ARC
  5
68E
330
1F
100
AcDbEntity
  8
0
  6
Continuous
 62
     7
370
    25
100
AcDbCircle
 10
20.8067850646
 20
-24.5442109397
 30
0.0
 40
0.0500000000001136
100
AcDbArc
 50
1.1693828056
 51
178.8306171944
  0
ARC
  5
68F
330
1F
100
AcDbEntity
  8
0
  6
Continuous
 62
     7
370
    25
100
AcDbCircle
 10
20.8067850646
 20
-23.3192109397
 30
0.0
 40
1.225000000000025
100
AcDbArc
 50
227.3387656112
 51
267.6612343888
  0
ARC
  5
690
330
1F
100
AcDbEntity
  8
0
  6
Continuous
 62
     7
370
    25
100
AcDbCircle
 10
19.9405792576
 20
-24.1854167467
 30
0.0
 40
0.050000000000112
100
AcDbArc
 50
316.1693828056
 51
133.8306171944
  0
ARC
  5
691
330
1F
100
AcDbEntity
  8
0
  6
Continuous
 62
     7
370
    25
100
AcDbCircle
 10
20.8067850646
 20
-23.3192109397
 30
0.0
 40
1.224999999999999
100
AcDbArc
 50
182.3387656112
 51
222.6612343888
  0
ARC
  5
692
330
1F
100
AcDbEntity
  8
0
  6
Continuous
 62
     7
370
    25
100
AcDbCircle
 10
19.5817850646
 20
-23.3192109397
 30
0.0
 40
0.0500000000000841
100
AcDbArc
 50
271.1693828056
 51
88.8306171944
  0
ARC
  5
693
330
1F
100
AcDbEntity
  8
0
  6
Continuous
 62
     7
370
    25
100
AcDbCircle
 10
20.8067850646
 20
-23.3192109397
 30
0.0
 40
1.224999999999975
100
AcDbArc
 50
137.3387656112
 51
177.6612343888
  0
ARC
  5
694
330
1F
100
AcDbEntity
  8
0
  6
Continuous
 62
     7
370
    25
100
AcDbCircle
 10
19.9405792576
 20
-22.4530051328
 30
0.0
 40
0.0500000000000416
100
AcDbArc
 50
226.1693828056
 51
43.8306171944
  0
ARC
  5
695
330
1F
100
AcDbEntity
  8
0
  6
Continuous
 62
     7
370
    25
100
AcDbCircle
 10
20.8067850646
 20
-23.3192109397
 30
0.0
 40
1.225000000000019
100
AcDbArc
 50
47.3387656112
 51
87.6612343888
  0
ARC
  5
696
330
1F
100
AcDbEntity
  8
0
  6
Continuous
 62
     7
370
    25
100
AcDbCircle
 10
14.386791022
 20
-32.1230814057
 30
0.0
 40
1.225000000000034
100
AcDbArc
 50
2.3387656112
 51
42.6612343888
  0
ARC
  5
697
330
1F
100
AcDbEntity
  8
0
  6
Continuous
 62
     7
370
    25
100
AcDbCircle
 10
15.611791022
 20
-32.1230814057
 30
0.0
 40
0.0500000000000471
100
AcDbArc
 50
91.1693828057
 51
268.8306171943
  0
ARC
  5
698
330
1F
100
AcDbEntity
  8
0
  6
Continuous
 62
     7
370
    25
100
AcDbCircle
 10
14.386791022
 20
-32.1230814057
 30
0.0
 40
1.225000000000012
100
AcDbArc
 50
317.3387656112
 51
357.6612343888
  0
ARC
  5
699
330
1F
100
AcDbEntity
  8
0
  6
Continuous
 62
     7
370
    25
100
AcDbCircle
 10
15.2529968289
 20
-32.9892872126
 30
0.0
 40
0.0500000000000883
100
AcDbArc
 50
46.1693828057
 51
223.8306171943
  0
ARC
  5
69A
330
1F
100
AcDbEntity
  8
0
  6
Continuous
 62
     7
370
    25
100
AcDbCircle
 10
14.386791022
 20
-32.1230814057
 30
0.0
 40
1.22499999999997
100
AcDbArc
 50
272.3387656112
 51
312.6612343888
  0
ARC
  5
69B
330
1F
100
AcDbEntity
  8
0
  6
Continuous
 62
     7
370
    25
100
AcDbCircle
 10
14.386791022
 20
-33.3480814057
 30
0.0
 40
0.0500000000001118
100
AcDbArc
 50
1.1693828056
 51
178.8306171944
  0
ARC
  5
69C
330
1F
100
AcDbEntity
  8
0
  6
Continuous
 62
     7
370
    25
100
AcDbCircle
 10
14.386791022
 20
-32.1230814057
 30
0.0
 40
1.224999999999933
100
AcDbArc
 50
227.3387656112
 51
267.6612343888
  0
ARC
  5
69D
330
1F
100
AcDbEntity
  8
0
  6
Continuous
 62
     7
370
    25
100
AcDbCircle
 10
13.520585215
 20
-32.9892872126
 30
0.0
 40
0.0500000000001144
100
AcDbArc
 50
316.1693828056
 51
133.8306171944
  0
ARC
  5
69E
330
1F
100
AcDbEntity
  8
0
  6
Continuous
 62
     7
370
    25
100
AcDbCircle
 10
14.386791022
 20
-32.1230814057
 30
0.0
 40
1.225000000000042
100
AcDbArc
 50
182.3387656112
 51
222.6612343888
  0
ARC
  5
69F
330
1F
100
AcDbEntity
  8
0
  6
Continuous
 62
     7
370
    25
100
AcDbCircle
 10
13.161791022
 20
-32.1230814057
 30
0.0
 40
0.0500000000000805
100
AcDbArc
 50
271.1693828056
 51
88.8306171944
  0
ARC
  5
6A0
330
1F
100
AcDbEntity
  8
0
  6
Continuous
 62
     7
370
    25
100
AcDbCircle
 10
14.386791022
 20
-32.1230814057
 30
0.0
 40
1.225000000000033
100
AcDbArc
 50
92.3387656112
 51
132.6612343888
  0
ARC
  5
6A1
330
1F
100
AcDbEntity
  8
0
  6
Continuous
 62
     7
370
    25
100
AcDbCircle
 10
15.2529968289
 20
-31.2568755987
 30
0.0
 40
0.0500000000000078
100
AcDbArc
 50
136.1693828057
 51
313.8306171943
  0
ARC
  5
6A2
330
1F
100
AcDbEntity
  8
0
  6
Continuous
 62
     7
370
    25
100
AcDbCircle
 10
14.386791022
 20
-30.8980814057
 30
0.0
 40
0.0499999999999981
100
AcDbArc
 50
181.1693828056
 51
358.8306171944
  0
ARC
  5
6A3
330
1F
100
AcDbEntity
  8
0
  6
Continuous
 62
     7
370
    25
100
AcDbCircle
 10
14.386791022
 20
-32.1230814057
 30
0.0
 40
1.225000000000033
100
AcDbArc
 50
47.3387656112
 51
87.6612343888
  0
ARC
  5
6A4
330
1F
100
AcDbEntity
  8
0
  6
Continuous
 62
     7
370
    25
100
AcDbCircle
 10
13.520585215
 20
-31.2568755987
 30
0.0
 40
0.0500000000000427
100
AcDbArc
 50
226.1693828056
 51
43.8306171944
  0
ARC
  5
6A5
330
1F
100
AcDbEntity
  8
0
  6
Continuous
 62
     7
370
    25
100
AcDbCircle
 10
14.386791022
 20
-32.1230814057
 30
0.0
 40
1.225000000000019
100
AcDbArc
 50
137.3387656112
 51
177.6612343888
  0
ARC
  5
6A6
330
1F
100
AcDbEntity
  8
0
  6
Continuous
 62
     7
370
    25
100
AcDbCircle
 10
-21.3009385707
 20
-32.0458352377
 30
0.0
 40
1.224999999999996
100
AcDbArc
 50
92.3387656112
 51
132.6612343888
  0
ARC
  5
6A7
330
1F
100
AcDbEntity
  8
0
  6
Continuous
 62
     7
370
    25
100
AcDbCircle
 10
-21.3009385707
 20
-30.8208352377
 30
0.0
 40
0.0499999999999997
100
AcDbArc
 50
181.1693828056
 51
358.8306171944
  0
ARC
  5
6A8
330
1F
100
AcDbEntity
  8
0
  6
Continuous
 62
     7
370
    25
100
AcDbCircle
 10
-20.4347327638
 20
-31.1796294308
 30
0.0
 40
0.0500000000000103
100
AcDbArc
 50
136.1693828057
 51
313.8306171943
  0
ARC
  5
6A9
330
1F
100
AcDbEntity
  8
0
  6
Continuous
 62
     7
370
    25
100
AcDbCircle
 10
-21.3009385707
 20
-32.0458352377
 30
0.0
 40
1.225000000000033
100
AcDbArc
 50
2.3387656112
 51
42.6612343888
  0
ARC
  5
6AA
330
1F
100
AcDbEntity
  8
0
  6
Continuous
 62
     7
370
    25
100
AcDbCircle
 10
-20.0759385707
 20
-32.0458352377
 30
0.0
 40
0.0500000000000469
100
AcDbArc
 50
91.1693828057
 51
268.8306171943
  0
ARC
  5
6AB
330
1F
100
AcDbEntity
  8
0
  6
Continuous
 62
     7
370
    25
100
AcDbCircle
 10
-21.3009385707
 20
-32.0458352377
 30
0.0
 40
1.225000000000017
100
AcDbArc
 50
317.3387656112
 51
357.6612343888
  0
ARC
  5
6AC
330
1F
100
AcDbEntity
  8
0
  6
Continuous
 62
     7
370
    25
100
AcDbCircle
 10
-20.4347327638
 20
-32.9120410447
 30
0.0
 40
0.0500000000000857
100
AcDbArc
 50
46.1693828057
 51
223.8306171943
  0
ARC
  5
6AD
330
1F
100
AcDbEntity
  8
0
  6
Continuous
 62
     7
370
    25
100
AcDbCircle
 10
-21.3009385707
 20
-32.0458352377
 30
0.0
 40
1.225000000000013
100
AcDbArc
 50
272.3387656112
 51
312.6612343888
  0
ARC
  5
6AE
330
1F
100
AcDbEntity
  8
0
  6
Continuous
 62
     7
370
    25
100
AcDbCircle
 10
-21.3009385707
 20
-33.2708352377
 30
0.0
 40
0.0500000000001099
100
AcDbArc
 50
1.1693828056
 51
178.8306171944
  0
ARC
  5
6AF
330
1F
100
AcDbEntity
  8
0
  6
Continuous
 62
     7
370
    25
100
AcDbCircle
 10
-21.3009385707
 20
-32.0458352377
 30
0.0
 40
1.224999999999917
100
AcDbArc
 50
227.3387656112
 51
267.6612343888
  0
ARC
  5
6B0
330
1F
100
AcDbEntity
  8
0
  6
Continuous
 62
     7
370
    25
100
AcDbCircle
 10
-22.1671443777
 20
-32.9120410447
 30
0.0
 40
0.0500000000001144
100
AcDbArc
 50
316.1693828056
 51
133.8306171944
  0
ARC
  5
6B1
330
1F
100
AcDbEntity
  8
0
  6
Continuous
 62
     7
370
    25
100
AcDbCircle
 10
-21.3009385707
 20
-32.0458352377
 30
0.0
 40
1.225000000000039
100
AcDbArc
 50
182.3387656112
 51
222.6612343888
  0
ARC
  5
6B2
330
1F
100
AcDbEntity
  8
0
  6
Continuous
 62
     7
370
    25
100
AcDbCircle
 10
-22.5259385707
 20
-32.0458352377
 30
0.0
 40
0.0500000000000804
100
AcDbArc
 50
271.1693828056
 51
88.8306171945
  0
ARC
  5
6B3
330
1F
100
AcDbEntity
  8
0
  6
Continuous
 62
     7
370
    25
100
AcDbCircle
 10
-21.3009385707
 20
-32.0458352377
 30
0.0
 40
1.225000000000015
100
AcDbArc
 50
137.3387656112
 51
177.6612343888
  0
ARC
  5
6B4
330
1F
100
AcDbEntity
  8
0
  6
Continuous
 62
     7
370
    25
100
AcDbCircle
 10
-22.1671443777
 20
-31.1796294308
 30
0.0
 40
0.050000000000044
100
AcDbArc
 50
226.1693828056
 51
43.8306171944
  0
ARC
  5
6B5
330
1F
100
AcDbEntity
  8
0
  6
Continuous
 62
     7
370
    25
100
AcDbCircle
 10
-21.3009385707
 20
-32.0458352377
 30
0.0
 40
1.224999999999996
100
AcDbArc
 50
47.3387656112
 51
87.6612343888
  0
ARC
  5
6B6
330
1F
100
AcDbEntity
  8
0
  6
Continuous
 62
     7
370
    25
100
AcDbCircle
 10
14.2672288108
 20
-8.5345359973
 30
0.0
 40
0.0500000000000015
100
AcDbArc
 50
181.1693828056
 51
358.8306171944
  0
ARC
  5
6B7
330
1F
100
AcDbEntity
  8
0
  6
Continuous
 62
     7
370
    25
100
AcDbCircle
 10
14.2672288108
 20
-9.7595359973
 30
0.0
 40
1.224999999999991
100
AcDbArc
 50
47.3387656112
 51
87.6612343888
  0
ARC
  5
6B8
330
1F
100
AcDbEntity
  8
0
  6
Continuous
 62
     7
370
    25
100
AcDbCircle
 10
15.4922288108
 20
-9.7595359973
 30
0.0
 40
0.0500000000000435
100
AcDbArc
 50
91.1693828057
 51
268.8306171943
  0
ARC
  5
6B9
330
1F
100
AcDbEntity
  8
0
  6
Continuous
 62
     7
370
    25
100
AcDbCircle
 10
14.2672288108
 20
-9.7595359973
 30
0.0
 40
1.225000000000007
100
AcDbArc
 50
317.3387656112
 51
357.6612343888
  0
ARC
  5
6BA
330
1F
100
AcDbEntity
  8
0
  6
Continuous
 62
     7
370
    25
100
AcDbCircle
 10
15.1334346178
 20
-10.6257418043
 30
0.0
 40
0.0500000000000833
100
AcDbArc
 50
46.1693828057
 51
223.8306171943
  0
ARC
  5
6BB
330
1F
100
AcDbEntity
  8
0
  6
Continuous
 62
     7
370
    25
100
AcDbCircle
 10
14.2672288108
 20
-9.7595359973
 30
0.0
 40
1.224999999999987
100
AcDbArc
 50
272.3387656112
 51
312.6612343888
  0
ARC
  5
6BC
330
1F
100
AcDbEntity
  8
0
  6
Continuous
 62
     7
370
    25
100
AcDbCircle
 10
14.2672288108
 20
-10.9845359973
 30
0.0
 40
0.0500000000001116
100
AcDbArc
 50
1.1693828056
 51
178.8306171944
  0
ARC
  5
6BD
330
1F
100
AcDbEntity
  8
0
  6
Continuous
 62
     7
370
    25
100
AcDbCircle
 10
14.2672288108
 20
-9.7595359973
 30
0.0
 40
1.225000000000001
100
AcDbArc
 50
227.3387656112
 51
267.6612343888
  0
ARC
  5
6BE
330
1F
100
AcDbEntity
  8
0
  6
Continuous
 62
     7
370
    25
100
AcDbCircle
 10
13.4010230039
 20
-10.6257418043
 30
0.0
 40
0.0500000000001094
100
AcDbArc
 50
316.1693828056
 51
133.8306171944
  0
ARC
  5
6BF
330
1F
100
AcDbEntity
  8
0
  6
Continuous
 62
     7
370
    25
100
AcDbCircle
 10
14.2672288108
 20
-9.7595359973
 30
0.0
 40
1.224999999999997
100
AcDbArc
 50
182.3387656112
 51
222.6612343888
  0
ARC
  5
6C0
330
1F
100
AcDbEntity
  8
0
  6
Continuous
 62
     7
370
    25
100
AcDbCircle
 10
13.0422288108
 20
-9.7595359973
 30
0.0
 40
0.0500000000000805
100
AcDbArc
 50
271.1693828056
 51
88.8306171944
  0
ARC
  5
6C1
330
1F
100
AcDbEntity
  8
0
  6
Continuous
 62
     7
370
    25
100
AcDbCircle
 10
14.2672288108
 20
-9.7595359973
 30
0.0
 40
1.224999999999997
100
AcDbArc
 50
137.3387656112
 51
177.6612343888
  0
ARC
  5
6C2
330
1F
100
AcDbEntity
  8
0
  6
Continuous
 62
     7
370
    25
100
AcDbCircle
 10
14.2672288108
 20
-9.7595359973
 30
0.0
 40
1.225000000000045
100
AcDbArc
 50
2.3387656112
 51
42.6612343888
  0
ARC
  5
6C3
330
1F
100
AcDbEntity
  8
0
  6
Continuous
 62
     7
370
    25
100
AcDbCircle
 10
14.2672288108
 20
-9.7595359973
 30
0.0
 40
1.224999999999981
100
AcDbArc
 50
92.3387656112
 51
132.6612343888
  0
ARC
  5
6C4
330
1F
100
AcDbEntity
  8
0
  6
Continuous
 62
     7
370
    25
100
AcDbCircle
 10
13.4010230039
 20
-8.8933301904
 30
0.0
 40
0.0500000000000415
100
AcDbArc
 50
226.1693828056
 51
43.8306171944
  0
ARC
  5
6C5
330
1F
100
AcDbEntity
  8
0
  6
Continuous
 62
     7
370
    25
100
AcDbCircle
 10
15.1334346178
 20
-8.8933301904
 30
0.0
 40
0.050000000000009
100
AcDbArc
 50
136.1693828057
 51
313.8306171943
  0
ARC
  5
6C6
330
1F
100
AcDbEntity
  8
0
  6
Continuous
 62
     7
370
    25
100
AcDbCircle
 10
5.9270136708
 20
-20.8592679732
 30
0.0
 40
12.50000000000003
100
AcDbArc
 50
221.4615900451
 51
318.5384099549
  0
ARC
  5
6C7
330
1F
100
AcDbEntity
  8
0
  6
Continuous
 62
     7
370
    25
100
AcDbCircle
 10
5.9270136708
 20
-20.8592679732
 30
0.0
 40
12.50000000000003
100
AcDbArc
 50
41.4615900451
 51
138.5384099549
  0
ARC
  5
6C8
330
1F
100
AcDbEntity
  8
0
  6
Continuous
 62
     7
370
    25
100
AcDbCircle
 10
13.0275106684
 20
-20.2171720897
 30
0.0
 40
4.500000000000037
100
AcDbArc
 50
73.8723797868
 51
106.1276202132
  0
ARC
  5
6C9
330
1F
100
AcDbEntity
  8
0
  6
Continuous
 62
     7
370
    25
100
AcDbCircle
 10
-1.1734833268
 20
-20.2171720897
 30
0.0
 40
4.500000000000034
100
AcDbArc
 50
73.8723797868
 51
106.1276202132
  0
ARC
  5
6CA
330
1F
100
AcDbEntity
  8
0
  6
Continuous
 62
     7
370
    25
100
AcDbCircle
 10
5.9270136708
 20
-21.1092679732
 30
0.0
 40
0.1500000000000004
100
AcDbArc
 50
180.0
 51
0.0
  0
ARC
  5
6CB
330
1F
100
AcDbEntity
  8
0
  6
Continuous
 62
     7
370
    25
100
AcDbCircle
 10
5.9270136708
 20
-20.6092679732
 30
0.0
 40
0.1500000000000004
100
AcDbArc
 50
0.0
 51
180.0
  0
ARC
  5
6CC
330
1F
100
AcDbEntity
  8
0
  6
Continuous
 62
     7
370
    25
100
AcDbCircle
 10
9.6770136708
 20
-21.1092679732
 30
0.0
 40
0.1500000000000004
100
AcDbArc
 50
180.0
 51
0.0
  0
ARC
  5
6CD
330
1F
100
AcDbEntity
  8
0
  6
Continuous
 62
     7
370
    25
100
AcDbCircle
 10
9.6770136708
 20
-20.6092679732
 30
0.0
 40
0.1499999999999986
100
AcDbArc
 50
0.0
 51
180.0
  0
ARC
  5
6CE
330
1F
100
AcDbEntity
  8
0
  6
Continuous
 62
     7
370
    25
100
AcDbCircle
 10
2.1770136708
 20
-21.1092679732
 30
0.0
 40
0.1499999999999999
100
AcDbArc
 50
180.0
 51
0.0
  0
ARC
  5
6CF
330
1F
100
AcDbEntity
  8
0
  6
Continuous
 62
     7
370
    25
100
AcDbCircle
 10
2.1770136708
 20
-20.6092679732
 30
0.0
 40
0.1499999999999999
100
AcDbArc
 50
0.0
 51
180.0
  0
ARC
  5
6D0
330
1F
100
AcDbEntity
  8
0
  6
Continuous
 62
     7
370
    25
100
AcDbCircle
 10
-26.6079803244
 20
-23.070875585
 30
0.0
 40
0.0750000000000028
100
AcDbArc
 50
360.0
 51
180.0
  0
ARC
  5
6D1
330
1F
100
AcDbEntity
  8
0
  6
Continuous
 62
     7
370
    25
100
AcDbCircle
 10
-26.6079803244
 20
-23.320875585
 30
0.0
 40
0.0750000000000028
100
AcDbArc
 50
180.0
 51
360.0
  0
ARC
  5
6D2
330
1F
100
AcDbEntity
  8
0
  6
Continuous
 62
     7
370
    25
100
AcDbCircle
 10
-26.3079803244
 20
-23.195875585
 30
0.0
 40
2.000000000000004
100
AcDbArc
 50
90.0
 51
270.0
  0
ENDSEC
  0
SECTION
  2
OBJECTS
  0
DICTIONARY
  5
C
330
0
100
AcDbDictionary
281
     1
  3
ACAD_GROUP
350
D
  3
ACAD_LAYOUT
350
1A
  3
ACAD_MLINESTYLE
350
17
  3
ACAD_PLOTSETTINGS
350
19
  3
ACAD_PLOTSTYLENAME
350
E
  3
ACAD_SCALELIST
350
47
  3
DWGPROPS
350
6D3
  0
DICTIONARY
  5
D
102
{ACAD_REACTORS
330
C
102
}
330
C
100
AcDbDictionary
281
     1
  0
DICTIONARY
  5
1A
102
{ACAD_REACTORS
330
C
102
}
330
C
100
AcDbDictionary
281
     1
  3
Layout1
350
1E
  3
Layout2
350
26
  3
Model
350
22
  0
DICTIONARY
  5
17
102
{ACAD_REACTORS
330
C
102
}
330
C
100
AcDbDictionary
281
     1
  3
Standard
350
18
  0
DICTIONARY
  5
19
102
{ACAD_REACTORS
330
C
102
}
330
C
100
AcDbDictionary
281
     1
  0
ACDBDICTIONARYWDFLT
  5
E
102
{ACAD_REACTORS
330
C
102
}
330
C
100
AcDbDictionary
281
     1
  3
Normal
350
F
100
AcDbDictionaryWithDefault
340
F
  0
DICTIONARY
  5
47
102
{ACAD_REACTORS
330
C
102
}
330
C
100
AcDbDictionary
281
     1
  3
A0
350
48
  3
A1
350
49
  3
A2
350
4A
  3
A3
350
4B
  3
A4
350
4C
  3
A5
350
4D
  3
A6
350
4E
  3
A7
350
4F
  3
A8
350
50
  3
A9
350
51
  3
B0
350
52
  3
B1
350
53
  3
B2
350
54
  3
B3
350
55
  3
B4
350
56
  3
B5
350
57
  3
B6
350
58
  3
B7
350
59
  3
B8
350
5A
  3
B9
350
5B
  3
C0
350
5C
  3
C1
350
5D
  3
C2
350
5E
  3
C3
350
5F
  3
C4
350
60
  3
C5
350
61
  3
C6
350
62
  3
C7
350
63
  3
C8
350
64
  3
C9
350
65
  3
D0
350
66
  3
D1
350
67
  3
D2
350
68
  0
XRECORD
  5
6D3
102
{ACAD_REACTORS
330
C
102
}
330
C
100
AcDbXrecord
280
     1
  1
DWGPROPS COOKIE
  2

  3

  4

  6

  7

  8
Achyuth
  9

300
=
301
=
302
=
303
=
304
=
305
=
306
=
307
=
308
=
309
=
 40
0.0
 41
2459912.630067812
 42
2459912.630125255
  1

 90
        0
  0
LAYOUT
  5
1E
102
{ACAD_REACTORS
330
1A
102
}
330
1A
100
AcDbPlotSettings
  1

  2
none_device
  4

  6

 40
0.0
 41
0.0
 42
0.0
 43
0.0
 44
0.0
 45
0.0
 46
0.0
 47
0.0
 48
0.0
 49
0.0
140
0.0
141
0.0
142
1.0
143
1.0
 70
   688
 72
     1
 73
     0
 74
     5
  7

 75
    16
147
1.0
148
0.0
149
0.0
100
AcDbLayout
  1
Layout1
 70
     1
 71
     1
 10
0.0
 20
0.0
 11
420.0
 21
297.0
 12
0.0
 22
0.0
 32
0.0
 14
1.0000000000E+20
 24
1.0000000000E+20
 34
1.0000000000E+20
 15
-1.0000000000E+20
 25
-1.0000000000E+20
 35
-1.0000000000E+20
146
0.0
 13
0.0
 23
0.0
 33
0.0
 16
1.0
 26
0.0
 36
0.0
 17
0.0
 27
1.0
 37
0.0
 76
     0
330
1B
  0
LAYOUT
  5
26
102
{ACAD_REACTORS
330
1A
102
}
330
1A
100
AcDbPlotSettings
  1

  2
none_device
  4

  6

 40
0.0
 41
0.0
 42
0.0
 43
0.0
 44
0.0
 45
0.0
 46
0.0
 47
0.0
 48
0.0
 49
0.0
140
0.0
141
0.0
142
1.0
143
1.0
 70
   688
 72
     1
 73
     0
 74
     5
  7

 75
    16
147
1.0
148
0.0
149
0.0
100
AcDbLayout
  1
Layout2
 70
     1
 71
     2
 10
0.0
 20
0.0
 11
0.0
 21
0.0
 12
0.0
 22
0.0
 32
0.0
 14
0.0
 24
0.0
 34
0.0
 15
0.0
 25
0.0
 35
0.0
146
0.0
 13
0.0
 23
0.0
 33
0.0
 16
1.0
 26
0.0
 36
0.0
 17
0.0
 27
1.0
 37
0.0
 76
     0
330
23
  0
LAYOUT
  5
22
102
{ACAD_REACTORS
330
1A
102
}
330
1A
100
AcDbPlotSettings
  1

  2
none_device
  4
ANSI_A_(11.00_x_8.50_Inches)
  6

 40
6.35
 41
19.05
 42
6.35000508
 43
19.05000254
 44
279.4
 45
215.9
 46
141.8299141696
 47
193.8437554251
 48
0.0
 49
0.0
140
0.0
141
0.0
142
0.1980723374
143
1.0
 70
  1696
 72
     0
 73
     0
 74
     0
  7

 75
     0
147
0.0179189148
148
-1300.4909072572
149
0.0
100
AcDbLayout
  1
Model
 70
     1
 71
     0
 10
0.0
 20
0.0
 11
420.0
 21
297.0
 12
0.0
 22
0.0
 32
0.0
 14
-29.1754773219
 24
-33.3592679732
 34
0.0
 15
25.804436288
 25
-8.3592679732
 35
0.0
146
0.0
 13
0.0
 23
0.0
 33
0.0
 16
1.0
 26
0.0
 36
0.0
 17
0.0
 27
1.0
 37
0.0
 76
     0
330
1F
331
29
  0
MLINESTYLE
  5
18
102
{ACAD_REACTORS
330
17
102
}
330
17
100
AcDbMlineStyle
  2
Standard
 70
     0
  3

 62
   256
 51
90.0
 52
90.0
 71
     2
 49
0.5
 62
   256
  6
BYLAYER
 49
-0.5
 62
   256
  6
BYLAYER
  0
ACDBPLACEHOLDER
  5
F
102
{ACAD_REACTORS
330
E
102
}
330
E
  0
SCALE
  5
48
102
{ACAD_REACTORS
330
47
102
}
330
47
100
AcDbScale
 70
     0
300
1:1
140
1.0
141
1.0
290
     1
  0
SCALE
  5
49
102
{ACAD_REACTORS
330
47
102
}
330
47
100
AcDbScale
 70
     0
300
1:2
140
1.0
141
2.0
290
     0
  0
SCALE
  5
4A
102
{ACAD_REACTORS
330
47
102
}
330
47
100
AcDbScale
 70
     0
300
1:4
140
1.0
141
4.0
290
     0
  0
SCALE
  5
4B
102
{ACAD_REACTORS
330
47
102
}
330
47
100
AcDbScale
 70
     0
300
1:5
140
1.0
141
5.0
290
     0
  0
SCALE
  5
4C
102
{ACAD_REACTORS
330
47
102
}
330
47
100
AcDbScale
 70
     0
300
1:8
140
1.0
141
8.0
290
     0
  0
SCALE
  5
4D
102
{ACAD_REACTORS
330
47
102
}
330
47
100
AcDbScale
 70
     0
300
1:10
140
1.0
141
10.0
290
     0
  0
SCALE
  5
4E
102
{ACAD_REACTORS
330
47
102
}
330
47
100
AcDbScale
 70
     0
300
1:16
140
1.0
141
16.0
290
     0
  0
SCALE
  5
4F
102
{ACAD_REACTORS
330
47
102
}
330
47
100
AcDbScale
 70
     0
300
1:20
140
1.0
141
20.0
290
     0
  0
SCALE
  5
50
102
{ACAD_REACTORS
330
47
102
}
330
47
100
AcDbScale
 70
     0
300
1:30
140
1.0
141
30.0
290
     0
  0
SCALE
  5
51
102
{ACAD_REACTORS
330
47
102
}
330
47
100
AcDbScale
 70
     0
300
1:40
140
1.0
141
40.0
290
     0
  0
SCALE
  5
52
102
{ACAD_REACTORS
330
47
102
}
330
47
100
AcDbScale
 70
     0
300
1:50
140
1.0
141
50.0
290
     0
  0
SCALE
  5
53
102
{ACAD_REACTORS
330
47
102
}
330
47
100
AcDbScale
 70
     0
300
1:100
140
1.0
141
100.0
290
     0
  0
SCALE
  5
54
102
{ACAD_REACTORS
330
47
102
}
330
47
100
AcDbScale
 70
     0
300
2:1
140
2.0
141
1.0
290
     0
  0
SCALE
  5
55
102
{ACAD_REACTORS
330
47
102
}
330
47
100
AcDbScale
 70
     0
300
4:1
140
4.0
141
1.0
290
     0
  0
SCALE
  5
56
102
{ACAD_REACTORS
330
47
102
}
330
47
100
AcDbScale
 70
     0
300
8:1
140
8.0
141
1.0
290
     0
  0
SCALE
  5
57
102
{ACAD_REACTORS
330
47
102
}
330
47
100
AcDbScale
 70
     0
300
10:1
140
10.0
141
1.0
290
     0
  0
SCALE
  5
58
102
{ACAD_REACTORS
330
47
102
}
330
47
100
AcDbScale
 70
     0
300
100:1
140
100.0
141
1.0
290
     0
  0
SCALE
  5
59
102
{ACAD_REACTORS
330
47
102
}
330
47
100
AcDbScale
 70
     0
300
1/128" = 1'-0"
140
0.0078125
141
12.0
290
     0
  0
SCALE
  5
5A
102
{ACAD_REACTORS
330
47
102
}
330
47
100
AcDbScale
 70
     0
300
1/64" = 1'-0"
140
0.015625
141
12.0
290
     0
  0
SCALE
  5
5B
102
{ACAD_REACTORS
330
47
102
}
330
47
100
AcDbScale
 70
     0
300
1/32" = 1'-0"
140
0.03125
141
12.0
290
     0
  0
SCALE
  5
5C
102
{ACAD_REACTORS
330
47
102
}
330
47
100
AcDbScale
 70
     0
300
1/16" = 1'-0"
140
0.0625
141
12.0
290
     0
  0
SCALE
  5
5D
102
{ACAD_REACTORS
330
47
102
}
330
47
100
AcDbScale
 70
     0
300
3/32" = 1'-0"
140
0.09375
141
12.0
290
     0
  0
SCALE
  5
5E
102
{ACAD_REACTORS
330
47
102
}
330
47
100
AcDbScale
 70
     0
300
1/8" = 1'-0"
140
0.125
141
12.0
290
     0
  0
SCALE
  5
5F
102
{ACAD_REACTORS
330
47
102
}
330
47
100
AcDbScale
 70
     0
300
3/16" = 1'-0"
140
0.1875
141
12.0
290
     0
  0
SCALE
  5
60
102
{ACAD_REACTORS
330
47
102
}
330
47
100
AcDbScale
 70
     0
300
1/4" = 1'-0"
140
0.25
141
12.0
290
     0
  0
SCALE
  5
61
102
{ACAD_REACTORS
330
47
102
}
330
47
100
AcDbScale
 70
     0
300
3/8" = 1'-0"
140
0.375
141
12.0
290
     0
  0
SCALE
  5
62
102
{ACAD_REACTORS
330
47
102
}
330
47
100
AcDbScale
 70
     0
300
1/2" = 1'-0"
140
0.5
141
12.0
290
     0
  0
SCALE
  5
63
102
{ACAD_REACTORS
330
47
102
}
330
47
100
AcDbScale
 70
     0
300
3/4" = 1'-0"
140
0.75
141
12.0
290
     0
  0
SCALE
  5
64
102
{ACAD_REACTORS
330
47
102
}
330
47
100
AcDbScale
 70
     0
300
1" = 1'-0"
140
1.0
141
12.0
290
     0
  0
SCALE
  5
65
102
{ACAD_REACTORS
330
47
102
}
330
47
100
AcDbScale
 70
     0
300
1-1/2" = 1'-0"
140
1.5
141
12.0
290
     0
  0
SCALE
  5
66
102
{ACAD_REACTORS
330
47
102
}
330
47
100
AcDbScale
 70
     0
300
3" = 1'-0"
140
3.0
141
12.0
290
     0
  0
SCALE
  5
67
102
{ACAD_REACTORS
330
47
102
}
330
47
100
AcDbScale
 70
     0
300
6" = 1'-0"
140
6.0
141
12.0
290
     0
  0
SCALE
  5
68
102
{ACAD_REACTORS
330
47
102
}
330
47
100
AcDbScale
 70
     0
300
1'-0" = 1'-0"
140
12.0
141
12.0
290
     0
  0
ENDSEC
  0
EOF
